%TF.GenerationSoftware,KiCad,Pcbnew,10.0.1*%
%TF.CreationDate,2026-05-09T02:55:21+08:00*%
%TF.ProjectId,Sensor Reader V4,53656e73-6f72-4205-9265-616465722056,rev?*%
%TF.SameCoordinates,Original*%
%TF.FileFunction,Soldermask,Bot*%
%TF.FilePolarity,Negative*%
%FSLAX46Y46*%
G04 Gerber Fmt 4.6, Leading zero omitted, Abs format (unit mm)*
G04 Created by KiCad (PCBNEW 10.0.1) date 2026-05-09 02:55:21*
%MOMM*%
%LPD*%
G01*
G04 APERTURE LIST*
G04 Aperture macros list*
%AMRoundRect*
0 Rectangle with rounded corners*
0 $1 Rounding radius*
0 $2 $3 $4 $5 $6 $7 $8 $9 X,Y pos of 4 corners*
0 Add a 4 corners polygon primitive as box body*
4,1,4,$2,$3,$4,$5,$6,$7,$8,$9,$2,$3,0*
0 Add four circle primitives for the rounded corners*
1,1,$1+$1,$2,$3*
1,1,$1+$1,$4,$5*
1,1,$1+$1,$6,$7*
1,1,$1+$1,$8,$9*
0 Add four rect primitives between the rounded corners*
20,1,$1+$1,$2,$3,$4,$5,0*
20,1,$1+$1,$4,$5,$6,$7,0*
20,1,$1+$1,$6,$7,$8,$9,0*
20,1,$1+$1,$8,$9,$2,$3,0*%
G04 Aperture macros list end*
%ADD10C,2.600000*%
%ADD11C,3.800000*%
%ADD12RoundRect,0.250000X0.750000X-0.600000X0.750000X0.600000X-0.750000X0.600000X-0.750000X-0.600000X0*%
%ADD13O,2.000000X1.700000*%
%ADD14R,1.700000X1.700000*%
%ADD15C,1.700000*%
%ADD16R,1.500000X1.500000*%
%ADD17C,1.500000*%
%ADD18RoundRect,0.250000X-0.750000X0.600000X-0.750000X-0.600000X0.750000X-0.600000X0.750000X0.600000X0*%
%ADD19C,0.650000*%
%ADD20O,1.000000X2.100000*%
%ADD21O,1.000000X1.600000*%
G04 APERTURE END LIST*
D10*
%TO.C,REF\u002A\u002A*%
X166000000Y-41000000D03*
D11*
X166000000Y-41000000D03*
%TD*%
D12*
%TO.C,J13*%
X122000000Y-73000000D03*
D13*
X122000000Y-70500000D03*
%TD*%
D14*
%TO.C,J6*%
X151600000Y-41980000D03*
D15*
X151600000Y-44520000D03*
X151600000Y-47060000D03*
X151600000Y-49600000D03*
X151600000Y-52140000D03*
X151600000Y-54680000D03*
%TD*%
D16*
%TO.C,SW2*%
X133500000Y-79500000D03*
D17*
X140000000Y-79500000D03*
X133500000Y-84000000D03*
X140000000Y-84000000D03*
%TD*%
D16*
%TO.C,SW1*%
X152000000Y-79500000D03*
D17*
X158500000Y-79500000D03*
X152000000Y-84000000D03*
X158500000Y-84000000D03*
%TD*%
D18*
%TO.C,J10*%
X164500000Y-70500000D03*
D13*
X164500000Y-73000000D03*
%TD*%
D19*
%TO.C,J1*%
X139405000Y-94570000D03*
X145185000Y-94570000D03*
D20*
X137975000Y-94070000D03*
D21*
X137975000Y-98250000D03*
D20*
X146615000Y-94070000D03*
D21*
X146615000Y-98250000D03*
%TD*%
D10*
%TO.C,REF\u002A\u002A*%
X166000000Y-98000000D03*
D11*
X166000000Y-98000000D03*
%TD*%
D10*
%TO.C,REF\u002A\u002A*%
X120500000Y-41000000D03*
D11*
X120500000Y-41000000D03*
%TD*%
D18*
%TO.C,J9*%
X164500000Y-80000000D03*
D13*
X164500000Y-82500000D03*
%TD*%
D18*
%TO.C,J15*%
X164525000Y-89375000D03*
D13*
X164525000Y-91875000D03*
%TD*%
D14*
%TO.C,J2*%
X156795000Y-49595000D03*
D15*
X156795000Y-52135000D03*
X156795000Y-54675000D03*
%TD*%
D12*
%TO.C,J8*%
X122000000Y-82500000D03*
D13*
X122000000Y-80000000D03*
%TD*%
D12*
%TO.C,J7*%
X122000000Y-92000000D03*
D13*
X122000000Y-89500000D03*
%TD*%
D18*
%TO.C,J11*%
X164500000Y-61000000D03*
D13*
X164500000Y-63500000D03*
%TD*%
D10*
%TO.C,REF\u002A\u002A*%
X120500000Y-98000000D03*
D11*
X120500000Y-98000000D03*
%TD*%
D18*
%TO.C,J12*%
X164500000Y-51500000D03*
D13*
X164500000Y-54000000D03*
%TD*%
D12*
%TO.C,J14*%
X122000000Y-63500000D03*
D13*
X122000000Y-61000000D03*
%TD*%
D14*
%TO.C,J16*%
X121000000Y-54040000D03*
D15*
X121000000Y-51500000D03*
%TD*%
M02*
