%TF.GenerationSoftware,KiCad,Pcbnew,10.0.1*%
%TF.CreationDate,2026-05-09T02:55:21+08:00*%
%TF.ProjectId,Sensor Reader V4,53656e73-6f72-4205-9265-616465722056,rev?*%
%TF.SameCoordinates,Original*%
%TF.FileFunction,Legend,Top*%
%TF.FilePolarity,Positive*%
%FSLAX46Y46*%
G04 Gerber Fmt 4.6, Leading zero omitted, Abs format (unit mm)*
G04 Created by KiCad (PCBNEW 10.0.1) date 2026-05-09 02:55:21*
%MOMM*%
%LPD*%
G01*
G04 APERTURE LIST*
G04 Aperture macros list*
%AMRoundRect*
0 Rectangle with rounded corners*
0 $1 Rounding radius*
0 $2 $3 $4 $5 $6 $7 $8 $9 X,Y pos of 4 corners*
0 Add a 4 corners polygon primitive as box body*
4,1,4,$2,$3,$4,$5,$6,$7,$8,$9,$2,$3,0*
0 Add four circle primitives for the rounded corners*
1,1,$1+$1,$2,$3*
1,1,$1+$1,$4,$5*
1,1,$1+$1,$6,$7*
1,1,$1+$1,$8,$9*
0 Add four rect primitives between the rounded corners*
20,1,$1+$1,$2,$3,$4,$5,0*
20,1,$1+$1,$4,$5,$6,$7,0*
20,1,$1+$1,$6,$7,$8,$9,0*
20,1,$1+$1,$8,$9,$2,$3,0*%
G04 Aperture macros list end*
%ADD10C,0.100000*%
%ADD11C,0.200000*%
%ADD12C,0.450000*%
%ADD13C,0.150000*%
%ADD14C,0.120000*%
%ADD15C,0.000000*%
%ADD16RoundRect,0.237500X0.237500X-0.300000X0.237500X0.300000X-0.237500X0.300000X-0.237500X-0.300000X0*%
%ADD17RoundRect,0.237500X0.237500X-0.250000X0.237500X0.250000X-0.237500X0.250000X-0.237500X-0.250000X0*%
%ADD18C,1.000000*%
%ADD19RoundRect,0.250000X-0.475000X0.337500X-0.475000X-0.337500X0.475000X-0.337500X0.475000X0.337500X0*%
%ADD20C,2.600000*%
%ADD21C,3.800000*%
%ADD22RoundRect,0.237500X-0.237500X0.250000X-0.237500X-0.250000X0.237500X-0.250000X0.237500X0.250000X0*%
%ADD23RoundRect,0.237500X-0.237500X0.300000X-0.237500X-0.300000X0.237500X-0.300000X0.237500X0.300000X0*%
%ADD24R,1.475000X0.300000*%
%ADD25R,1.400000X0.450000*%
%ADD26R,1.846000X2.150000*%
%ADD27RoundRect,0.250000X0.750000X-0.600000X0.750000X0.600000X-0.750000X0.600000X-0.750000X-0.600000X0*%
%ADD28O,2.000000X1.700000*%
%ADD29R,1.700000X1.700000*%
%ADD30C,1.700000*%
%ADD31R,1.500000X1.500000*%
%ADD32C,1.500000*%
%ADD33R,1.500000X0.900000*%
%ADD34R,0.700000X0.700000*%
%ADD35RoundRect,0.250000X-0.750000X0.600000X-0.750000X-0.600000X0.750000X-0.600000X0.750000X0.600000X0*%
%ADD36C,0.650000*%
%ADD37RoundRect,0.150000X-0.150000X-0.425000X0.150000X-0.425000X0.150000X0.425000X-0.150000X0.425000X0*%
%ADD38RoundRect,0.075000X-0.075000X-0.500000X0.075000X-0.500000X0.075000X0.500000X-0.075000X0.500000X0*%
%ADD39O,1.000000X2.100000*%
%ADD40O,1.000000X1.600000*%
%ADD41RoundRect,0.237500X-0.300000X-0.237500X0.300000X-0.237500X0.300000X0.237500X-0.300000X0.237500X0*%
%ADD42RoundRect,0.237500X0.250000X0.237500X-0.250000X0.237500X-0.250000X-0.237500X0.250000X-0.237500X0*%
G04 APERTURE END LIST*
D10*
X151750000Y-95250000D02*
X158250000Y-95250000D01*
X151750000Y-98250000D02*
X151750000Y-95250000D01*
X151750000Y-98750000D02*
X151750000Y-99500000D01*
X151750000Y-99500000D02*
X154000000Y-99500000D01*
X158250000Y-98250000D02*
X158250000Y-95250000D01*
X158250000Y-98750000D02*
X158250000Y-99500000D01*
X158250000Y-99500000D02*
X155500000Y-99500000D01*
X134675312Y-56896895D02*
X134218169Y-56896895D01*
X134446741Y-56896895D02*
X134446741Y-56096895D01*
X134446741Y-56096895D02*
X134370550Y-56211180D01*
X134370550Y-56211180D02*
X134294360Y-56287371D01*
X134294360Y-56287371D02*
X134218169Y-56325466D01*
X135170551Y-56096895D02*
X135246741Y-56096895D01*
X135246741Y-56096895D02*
X135322932Y-56134990D01*
X135322932Y-56134990D02*
X135361027Y-56173085D01*
X135361027Y-56173085D02*
X135399122Y-56249276D01*
X135399122Y-56249276D02*
X135437217Y-56401657D01*
X135437217Y-56401657D02*
X135437217Y-56592133D01*
X135437217Y-56592133D02*
X135399122Y-56744514D01*
X135399122Y-56744514D02*
X135361027Y-56820704D01*
X135361027Y-56820704D02*
X135322932Y-56858800D01*
X135322932Y-56858800D02*
X135246741Y-56896895D01*
X135246741Y-56896895D02*
X135170551Y-56896895D01*
X135170551Y-56896895D02*
X135094360Y-56858800D01*
X135094360Y-56858800D02*
X135056265Y-56820704D01*
X135056265Y-56820704D02*
X135018170Y-56744514D01*
X135018170Y-56744514D02*
X134980074Y-56592133D01*
X134980074Y-56592133D02*
X134980074Y-56401657D01*
X134980074Y-56401657D02*
X135018170Y-56249276D01*
X135018170Y-56249276D02*
X135056265Y-56173085D01*
X135056265Y-56173085D02*
X135094360Y-56134990D01*
X135094360Y-56134990D02*
X135170551Y-56096895D01*
X135780075Y-56896895D02*
X135780075Y-56096895D01*
X136237218Y-56896895D02*
X135894360Y-56439752D01*
X136237218Y-56096895D02*
X135780075Y-56554038D01*
X136541979Y-56896895D02*
X136732456Y-56896895D01*
X136732456Y-56896895D02*
X136732456Y-56744514D01*
X136732456Y-56744514D02*
X136656265Y-56706419D01*
X136656265Y-56706419D02*
X136580075Y-56630228D01*
X136580075Y-56630228D02*
X136541979Y-56515942D01*
X136541979Y-56515942D02*
X136541979Y-56325466D01*
X136541979Y-56325466D02*
X136580075Y-56211180D01*
X136580075Y-56211180D02*
X136656265Y-56134990D01*
X136656265Y-56134990D02*
X136770551Y-56096895D01*
X136770551Y-56096895D02*
X136922932Y-56096895D01*
X136922932Y-56096895D02*
X137037218Y-56134990D01*
X137037218Y-56134990D02*
X137113408Y-56211180D01*
X137113408Y-56211180D02*
X137151503Y-56325466D01*
X137151503Y-56325466D02*
X137151503Y-56515942D01*
X137151503Y-56515942D02*
X137113408Y-56630228D01*
X137113408Y-56630228D02*
X137037218Y-56706419D01*
X137037218Y-56706419D02*
X136961027Y-56744514D01*
X136961027Y-56744514D02*
X136961027Y-56896895D01*
X136961027Y-56896895D02*
X137151503Y-56896895D01*
X137713408Y-53820704D02*
X137675312Y-53858800D01*
X137675312Y-53858800D02*
X137561027Y-53896895D01*
X137561027Y-53896895D02*
X137484836Y-53896895D01*
X137484836Y-53896895D02*
X137370550Y-53858800D01*
X137370550Y-53858800D02*
X137294360Y-53782609D01*
X137294360Y-53782609D02*
X137256265Y-53706419D01*
X137256265Y-53706419D02*
X137218169Y-53554038D01*
X137218169Y-53554038D02*
X137218169Y-53439752D01*
X137218169Y-53439752D02*
X137256265Y-53287371D01*
X137256265Y-53287371D02*
X137294360Y-53211180D01*
X137294360Y-53211180D02*
X137370550Y-53134990D01*
X137370550Y-53134990D02*
X137484836Y-53096895D01*
X137484836Y-53096895D02*
X137561027Y-53096895D01*
X137561027Y-53096895D02*
X137675312Y-53134990D01*
X137675312Y-53134990D02*
X137713408Y-53173085D01*
X138018169Y-53858800D02*
X138132455Y-53896895D01*
X138132455Y-53896895D02*
X138322931Y-53896895D01*
X138322931Y-53896895D02*
X138399122Y-53858800D01*
X138399122Y-53858800D02*
X138437217Y-53820704D01*
X138437217Y-53820704D02*
X138475312Y-53744514D01*
X138475312Y-53744514D02*
X138475312Y-53668323D01*
X138475312Y-53668323D02*
X138437217Y-53592133D01*
X138437217Y-53592133D02*
X138399122Y-53554038D01*
X138399122Y-53554038D02*
X138322931Y-53515942D01*
X138322931Y-53515942D02*
X138170550Y-53477847D01*
X138170550Y-53477847D02*
X138094360Y-53439752D01*
X138094360Y-53439752D02*
X138056265Y-53401657D01*
X138056265Y-53401657D02*
X138018169Y-53325466D01*
X138018169Y-53325466D02*
X138018169Y-53249276D01*
X138018169Y-53249276D02*
X138056265Y-53173085D01*
X138056265Y-53173085D02*
X138094360Y-53134990D01*
X138094360Y-53134990D02*
X138170550Y-53096895D01*
X138170550Y-53096895D02*
X138361027Y-53096895D01*
X138361027Y-53096895D02*
X138475312Y-53134990D01*
X139718169Y-53858800D02*
X139832455Y-53896895D01*
X139832455Y-53896895D02*
X140022931Y-53896895D01*
X140022931Y-53896895D02*
X140099122Y-53858800D01*
X140099122Y-53858800D02*
X140137217Y-53820704D01*
X140137217Y-53820704D02*
X140175312Y-53744514D01*
X140175312Y-53744514D02*
X140175312Y-53668323D01*
X140175312Y-53668323D02*
X140137217Y-53592133D01*
X140137217Y-53592133D02*
X140099122Y-53554038D01*
X140099122Y-53554038D02*
X140022931Y-53515942D01*
X140022931Y-53515942D02*
X139870550Y-53477847D01*
X139870550Y-53477847D02*
X139794360Y-53439752D01*
X139794360Y-53439752D02*
X139756265Y-53401657D01*
X139756265Y-53401657D02*
X139718169Y-53325466D01*
X139718169Y-53325466D02*
X139718169Y-53249276D01*
X139718169Y-53249276D02*
X139756265Y-53173085D01*
X139756265Y-53173085D02*
X139794360Y-53134990D01*
X139794360Y-53134990D02*
X139870550Y-53096895D01*
X139870550Y-53096895D02*
X140061027Y-53096895D01*
X140061027Y-53096895D02*
X140175312Y-53134990D01*
X140975313Y-53820704D02*
X140937217Y-53858800D01*
X140937217Y-53858800D02*
X140822932Y-53896895D01*
X140822932Y-53896895D02*
X140746741Y-53896895D01*
X140746741Y-53896895D02*
X140632455Y-53858800D01*
X140632455Y-53858800D02*
X140556265Y-53782609D01*
X140556265Y-53782609D02*
X140518170Y-53706419D01*
X140518170Y-53706419D02*
X140480074Y-53554038D01*
X140480074Y-53554038D02*
X140480074Y-53439752D01*
X140480074Y-53439752D02*
X140518170Y-53287371D01*
X140518170Y-53287371D02*
X140556265Y-53211180D01*
X140556265Y-53211180D02*
X140632455Y-53134990D01*
X140632455Y-53134990D02*
X140746741Y-53096895D01*
X140746741Y-53096895D02*
X140822932Y-53096895D01*
X140822932Y-53096895D02*
X140937217Y-53134990D01*
X140937217Y-53134990D02*
X140975313Y-53173085D01*
X141699122Y-53896895D02*
X141318170Y-53896895D01*
X141318170Y-53896895D02*
X141318170Y-53096895D01*
X141965789Y-53896895D02*
X141965789Y-53096895D01*
X142422932Y-53896895D02*
X142080074Y-53439752D01*
X142422932Y-53096895D02*
X141965789Y-53554038D01*
X143718169Y-53858800D02*
X143832455Y-53896895D01*
X143832455Y-53896895D02*
X144022931Y-53896895D01*
X144022931Y-53896895D02*
X144099122Y-53858800D01*
X144099122Y-53858800D02*
X144137217Y-53820704D01*
X144137217Y-53820704D02*
X144175312Y-53744514D01*
X144175312Y-53744514D02*
X144175312Y-53668323D01*
X144175312Y-53668323D02*
X144137217Y-53592133D01*
X144137217Y-53592133D02*
X144099122Y-53554038D01*
X144099122Y-53554038D02*
X144022931Y-53515942D01*
X144022931Y-53515942D02*
X143870550Y-53477847D01*
X143870550Y-53477847D02*
X143794360Y-53439752D01*
X143794360Y-53439752D02*
X143756265Y-53401657D01*
X143756265Y-53401657D02*
X143718169Y-53325466D01*
X143718169Y-53325466D02*
X143718169Y-53249276D01*
X143718169Y-53249276D02*
X143756265Y-53173085D01*
X143756265Y-53173085D02*
X143794360Y-53134990D01*
X143794360Y-53134990D02*
X143870550Y-53096895D01*
X143870550Y-53096895D02*
X144061027Y-53096895D01*
X144061027Y-53096895D02*
X144175312Y-53134990D01*
X144518170Y-53896895D02*
X144518170Y-53096895D01*
X144518170Y-53096895D02*
X144708646Y-53096895D01*
X144708646Y-53096895D02*
X144822932Y-53134990D01*
X144822932Y-53134990D02*
X144899122Y-53211180D01*
X144899122Y-53211180D02*
X144937217Y-53287371D01*
X144937217Y-53287371D02*
X144975313Y-53439752D01*
X144975313Y-53439752D02*
X144975313Y-53554038D01*
X144975313Y-53554038D02*
X144937217Y-53706419D01*
X144937217Y-53706419D02*
X144899122Y-53782609D01*
X144899122Y-53782609D02*
X144822932Y-53858800D01*
X144822932Y-53858800D02*
X144708646Y-53896895D01*
X144708646Y-53896895D02*
X144518170Y-53896895D01*
X145318170Y-53896895D02*
X145318170Y-53096895D01*
X146418169Y-53858800D02*
X146532455Y-53896895D01*
X146532455Y-53896895D02*
X146722931Y-53896895D01*
X146722931Y-53896895D02*
X146799122Y-53858800D01*
X146799122Y-53858800D02*
X146837217Y-53820704D01*
X146837217Y-53820704D02*
X146875312Y-53744514D01*
X146875312Y-53744514D02*
X146875312Y-53668323D01*
X146875312Y-53668323D02*
X146837217Y-53592133D01*
X146837217Y-53592133D02*
X146799122Y-53554038D01*
X146799122Y-53554038D02*
X146722931Y-53515942D01*
X146722931Y-53515942D02*
X146570550Y-53477847D01*
X146570550Y-53477847D02*
X146494360Y-53439752D01*
X146494360Y-53439752D02*
X146456265Y-53401657D01*
X146456265Y-53401657D02*
X146418169Y-53325466D01*
X146418169Y-53325466D02*
X146418169Y-53249276D01*
X146418169Y-53249276D02*
X146456265Y-53173085D01*
X146456265Y-53173085D02*
X146494360Y-53134990D01*
X146494360Y-53134990D02*
X146570550Y-53096895D01*
X146570550Y-53096895D02*
X146761027Y-53096895D01*
X146761027Y-53096895D02*
X146875312Y-53134990D01*
X147218170Y-53896895D02*
X147218170Y-53096895D01*
X147218170Y-53096895D02*
X147408646Y-53096895D01*
X147408646Y-53096895D02*
X147522932Y-53134990D01*
X147522932Y-53134990D02*
X147599122Y-53211180D01*
X147599122Y-53211180D02*
X147637217Y-53287371D01*
X147637217Y-53287371D02*
X147675313Y-53439752D01*
X147675313Y-53439752D02*
X147675313Y-53554038D01*
X147675313Y-53554038D02*
X147637217Y-53706419D01*
X147637217Y-53706419D02*
X147599122Y-53782609D01*
X147599122Y-53782609D02*
X147522932Y-53858800D01*
X147522932Y-53858800D02*
X147408646Y-53896895D01*
X147408646Y-53896895D02*
X147218170Y-53896895D01*
X148170551Y-53096895D02*
X148322932Y-53096895D01*
X148322932Y-53096895D02*
X148399122Y-53134990D01*
X148399122Y-53134990D02*
X148475313Y-53211180D01*
X148475313Y-53211180D02*
X148513408Y-53363561D01*
X148513408Y-53363561D02*
X148513408Y-53630228D01*
X148513408Y-53630228D02*
X148475313Y-53782609D01*
X148475313Y-53782609D02*
X148399122Y-53858800D01*
X148399122Y-53858800D02*
X148322932Y-53896895D01*
X148322932Y-53896895D02*
X148170551Y-53896895D01*
X148170551Y-53896895D02*
X148094360Y-53858800D01*
X148094360Y-53858800D02*
X148018170Y-53782609D01*
X148018170Y-53782609D02*
X147980074Y-53630228D01*
X147980074Y-53630228D02*
X147980074Y-53363561D01*
X147980074Y-53363561D02*
X148018170Y-53211180D01*
X148018170Y-53211180D02*
X148094360Y-53134990D01*
X148094360Y-53134990D02*
X148170551Y-53096895D01*
X153637217Y-72596895D02*
X153256265Y-72596895D01*
X153256265Y-72596895D02*
X153218169Y-72977847D01*
X153218169Y-72977847D02*
X153256265Y-72939752D01*
X153256265Y-72939752D02*
X153332455Y-72901657D01*
X153332455Y-72901657D02*
X153522931Y-72901657D01*
X153522931Y-72901657D02*
X153599122Y-72939752D01*
X153599122Y-72939752D02*
X153637217Y-72977847D01*
X153637217Y-72977847D02*
X153675312Y-73054038D01*
X153675312Y-73054038D02*
X153675312Y-73244514D01*
X153675312Y-73244514D02*
X153637217Y-73320704D01*
X153637217Y-73320704D02*
X153599122Y-73358800D01*
X153599122Y-73358800D02*
X153522931Y-73396895D01*
X153522931Y-73396895D02*
X153332455Y-73396895D01*
X153332455Y-73396895D02*
X153256265Y-73358800D01*
X153256265Y-73358800D02*
X153218169Y-73320704D01*
X153903884Y-72596895D02*
X154170551Y-73396895D01*
X154170551Y-73396895D02*
X154437217Y-72596895D01*
X132175312Y-75634990D02*
X132099122Y-75596895D01*
X132099122Y-75596895D02*
X131984836Y-75596895D01*
X131984836Y-75596895D02*
X131870550Y-75634990D01*
X131870550Y-75634990D02*
X131794360Y-75711180D01*
X131794360Y-75711180D02*
X131756265Y-75787371D01*
X131756265Y-75787371D02*
X131718169Y-75939752D01*
X131718169Y-75939752D02*
X131718169Y-76054038D01*
X131718169Y-76054038D02*
X131756265Y-76206419D01*
X131756265Y-76206419D02*
X131794360Y-76282609D01*
X131794360Y-76282609D02*
X131870550Y-76358800D01*
X131870550Y-76358800D02*
X131984836Y-76396895D01*
X131984836Y-76396895D02*
X132061027Y-76396895D01*
X132061027Y-76396895D02*
X132175312Y-76358800D01*
X132175312Y-76358800D02*
X132213408Y-76320704D01*
X132213408Y-76320704D02*
X132213408Y-76054038D01*
X132213408Y-76054038D02*
X132061027Y-76054038D01*
X132556265Y-76396895D02*
X132556265Y-75596895D01*
X132556265Y-75596895D02*
X133013408Y-76396895D01*
X133013408Y-76396895D02*
X133013408Y-75596895D01*
X133394360Y-76396895D02*
X133394360Y-75596895D01*
X133394360Y-75596895D02*
X133584836Y-75596895D01*
X133584836Y-75596895D02*
X133699122Y-75634990D01*
X133699122Y-75634990D02*
X133775312Y-75711180D01*
X133775312Y-75711180D02*
X133813407Y-75787371D01*
X133813407Y-75787371D02*
X133851503Y-75939752D01*
X133851503Y-75939752D02*
X133851503Y-76054038D01*
X133851503Y-76054038D02*
X133813407Y-76206419D01*
X133813407Y-76206419D02*
X133775312Y-76282609D01*
X133775312Y-76282609D02*
X133699122Y-76358800D01*
X133699122Y-76358800D02*
X133584836Y-76396895D01*
X133584836Y-76396895D02*
X133394360Y-76396895D01*
X132180074Y-71096895D02*
X132675312Y-71096895D01*
X132675312Y-71096895D02*
X132408646Y-71401657D01*
X132408646Y-71401657D02*
X132522931Y-71401657D01*
X132522931Y-71401657D02*
X132599122Y-71439752D01*
X132599122Y-71439752D02*
X132637217Y-71477847D01*
X132637217Y-71477847D02*
X132675312Y-71554038D01*
X132675312Y-71554038D02*
X132675312Y-71744514D01*
X132675312Y-71744514D02*
X132637217Y-71820704D01*
X132637217Y-71820704D02*
X132599122Y-71858800D01*
X132599122Y-71858800D02*
X132522931Y-71896895D01*
X132522931Y-71896895D02*
X132294360Y-71896895D01*
X132294360Y-71896895D02*
X132218169Y-71858800D01*
X132218169Y-71858800D02*
X132180074Y-71820704D01*
X133018170Y-71820704D02*
X133056265Y-71858800D01*
X133056265Y-71858800D02*
X133018170Y-71896895D01*
X133018170Y-71896895D02*
X132980074Y-71858800D01*
X132980074Y-71858800D02*
X133018170Y-71820704D01*
X133018170Y-71820704D02*
X133018170Y-71896895D01*
X133322931Y-71096895D02*
X133818169Y-71096895D01*
X133818169Y-71096895D02*
X133551503Y-71401657D01*
X133551503Y-71401657D02*
X133665788Y-71401657D01*
X133665788Y-71401657D02*
X133741979Y-71439752D01*
X133741979Y-71439752D02*
X133780074Y-71477847D01*
X133780074Y-71477847D02*
X133818169Y-71554038D01*
X133818169Y-71554038D02*
X133818169Y-71744514D01*
X133818169Y-71744514D02*
X133780074Y-71820704D01*
X133780074Y-71820704D02*
X133741979Y-71858800D01*
X133741979Y-71858800D02*
X133665788Y-71896895D01*
X133665788Y-71896895D02*
X133437217Y-71896895D01*
X133437217Y-71896895D02*
X133361026Y-71858800D01*
X133361026Y-71858800D02*
X133322931Y-71820704D01*
X134046741Y-71096895D02*
X134313408Y-71896895D01*
X134313408Y-71896895D02*
X134580074Y-71096895D01*
X154175312Y-75634990D02*
X154099122Y-75596895D01*
X154099122Y-75596895D02*
X153984836Y-75596895D01*
X153984836Y-75596895D02*
X153870550Y-75634990D01*
X153870550Y-75634990D02*
X153794360Y-75711180D01*
X153794360Y-75711180D02*
X153756265Y-75787371D01*
X153756265Y-75787371D02*
X153718169Y-75939752D01*
X153718169Y-75939752D02*
X153718169Y-76054038D01*
X153718169Y-76054038D02*
X153756265Y-76206419D01*
X153756265Y-76206419D02*
X153794360Y-76282609D01*
X153794360Y-76282609D02*
X153870550Y-76358800D01*
X153870550Y-76358800D02*
X153984836Y-76396895D01*
X153984836Y-76396895D02*
X154061027Y-76396895D01*
X154061027Y-76396895D02*
X154175312Y-76358800D01*
X154175312Y-76358800D02*
X154213408Y-76320704D01*
X154213408Y-76320704D02*
X154213408Y-76054038D01*
X154213408Y-76054038D02*
X154061027Y-76054038D01*
X154556265Y-76396895D02*
X154556265Y-75596895D01*
X154556265Y-75596895D02*
X155013408Y-76396895D01*
X155013408Y-76396895D02*
X155013408Y-75596895D01*
X155394360Y-76396895D02*
X155394360Y-75596895D01*
X155394360Y-75596895D02*
X155584836Y-75596895D01*
X155584836Y-75596895D02*
X155699122Y-75634990D01*
X155699122Y-75634990D02*
X155775312Y-75711180D01*
X155775312Y-75711180D02*
X155813407Y-75787371D01*
X155813407Y-75787371D02*
X155851503Y-75939752D01*
X155851503Y-75939752D02*
X155851503Y-76054038D01*
X155851503Y-76054038D02*
X155813407Y-76206419D01*
X155813407Y-76206419D02*
X155775312Y-76282609D01*
X155775312Y-76282609D02*
X155699122Y-76358800D01*
X155699122Y-76358800D02*
X155584836Y-76396895D01*
X155584836Y-76396895D02*
X155394360Y-76396895D01*
X121096895Y-47324687D02*
X121096895Y-47781830D01*
X121096895Y-47553258D02*
X120296895Y-47553258D01*
X120296895Y-47553258D02*
X120411180Y-47629449D01*
X120411180Y-47629449D02*
X120487371Y-47705639D01*
X120487371Y-47705639D02*
X120525466Y-47781830D01*
X120296895Y-46829448D02*
X120296895Y-46753258D01*
X120296895Y-46753258D02*
X120334990Y-46677067D01*
X120334990Y-46677067D02*
X120373085Y-46638972D01*
X120373085Y-46638972D02*
X120449276Y-46600877D01*
X120449276Y-46600877D02*
X120601657Y-46562782D01*
X120601657Y-46562782D02*
X120792133Y-46562782D01*
X120792133Y-46562782D02*
X120944514Y-46600877D01*
X120944514Y-46600877D02*
X121020704Y-46638972D01*
X121020704Y-46638972D02*
X121058800Y-46677067D01*
X121058800Y-46677067D02*
X121096895Y-46753258D01*
X121096895Y-46753258D02*
X121096895Y-46829448D01*
X121096895Y-46829448D02*
X121058800Y-46905639D01*
X121058800Y-46905639D02*
X121020704Y-46943734D01*
X121020704Y-46943734D02*
X120944514Y-46981829D01*
X120944514Y-46981829D02*
X120792133Y-47019925D01*
X120792133Y-47019925D02*
X120601657Y-47019925D01*
X120601657Y-47019925D02*
X120449276Y-46981829D01*
X120449276Y-46981829D02*
X120373085Y-46943734D01*
X120373085Y-46943734D02*
X120334990Y-46905639D01*
X120334990Y-46905639D02*
X120296895Y-46829448D01*
X120563561Y-45877067D02*
X121096895Y-45877067D01*
X120563561Y-46219924D02*
X120982609Y-46219924D01*
X120982609Y-46219924D02*
X121058800Y-46181829D01*
X121058800Y-46181829D02*
X121096895Y-46105639D01*
X121096895Y-46105639D02*
X121096895Y-45991353D01*
X121096895Y-45991353D02*
X121058800Y-45915162D01*
X121058800Y-45915162D02*
X121020704Y-45877067D01*
X120677847Y-45229448D02*
X120677847Y-45496114D01*
X121096895Y-45496114D02*
X120296895Y-45496114D01*
X120296895Y-45496114D02*
X120296895Y-45115162D01*
X123696895Y-47324687D02*
X123696895Y-47781830D01*
X123696895Y-47553258D02*
X122896895Y-47553258D01*
X122896895Y-47553258D02*
X123011180Y-47629449D01*
X123011180Y-47629449D02*
X123087371Y-47705639D01*
X123087371Y-47705639D02*
X123125466Y-47781830D01*
X122896895Y-46829448D02*
X122896895Y-46753258D01*
X122896895Y-46753258D02*
X122934990Y-46677067D01*
X122934990Y-46677067D02*
X122973085Y-46638972D01*
X122973085Y-46638972D02*
X123049276Y-46600877D01*
X123049276Y-46600877D02*
X123201657Y-46562782D01*
X123201657Y-46562782D02*
X123392133Y-46562782D01*
X123392133Y-46562782D02*
X123544514Y-46600877D01*
X123544514Y-46600877D02*
X123620704Y-46638972D01*
X123620704Y-46638972D02*
X123658800Y-46677067D01*
X123658800Y-46677067D02*
X123696895Y-46753258D01*
X123696895Y-46753258D02*
X123696895Y-46829448D01*
X123696895Y-46829448D02*
X123658800Y-46905639D01*
X123658800Y-46905639D02*
X123620704Y-46943734D01*
X123620704Y-46943734D02*
X123544514Y-46981829D01*
X123544514Y-46981829D02*
X123392133Y-47019925D01*
X123392133Y-47019925D02*
X123201657Y-47019925D01*
X123201657Y-47019925D02*
X123049276Y-46981829D01*
X123049276Y-46981829D02*
X122973085Y-46943734D01*
X122973085Y-46943734D02*
X122934990Y-46905639D01*
X122934990Y-46905639D02*
X122896895Y-46829448D01*
X122896895Y-46067543D02*
X122896895Y-45991353D01*
X122896895Y-45991353D02*
X122934990Y-45915162D01*
X122934990Y-45915162D02*
X122973085Y-45877067D01*
X122973085Y-45877067D02*
X123049276Y-45838972D01*
X123049276Y-45838972D02*
X123201657Y-45800877D01*
X123201657Y-45800877D02*
X123392133Y-45800877D01*
X123392133Y-45800877D02*
X123544514Y-45838972D01*
X123544514Y-45838972D02*
X123620704Y-45877067D01*
X123620704Y-45877067D02*
X123658800Y-45915162D01*
X123658800Y-45915162D02*
X123696895Y-45991353D01*
X123696895Y-45991353D02*
X123696895Y-46067543D01*
X123696895Y-46067543D02*
X123658800Y-46143734D01*
X123658800Y-46143734D02*
X123620704Y-46181829D01*
X123620704Y-46181829D02*
X123544514Y-46219924D01*
X123544514Y-46219924D02*
X123392133Y-46258020D01*
X123392133Y-46258020D02*
X123201657Y-46258020D01*
X123201657Y-46258020D02*
X123049276Y-46219924D01*
X123049276Y-46219924D02*
X122973085Y-46181829D01*
X122973085Y-46181829D02*
X122934990Y-46143734D01*
X122934990Y-46143734D02*
X122896895Y-46067543D01*
X123163561Y-45458019D02*
X123696895Y-45458019D01*
X123239752Y-45458019D02*
X123201657Y-45419924D01*
X123201657Y-45419924D02*
X123163561Y-45343734D01*
X123163561Y-45343734D02*
X123163561Y-45229448D01*
X123163561Y-45229448D02*
X123201657Y-45153257D01*
X123201657Y-45153257D02*
X123277847Y-45115162D01*
X123277847Y-45115162D02*
X123696895Y-45115162D01*
X123277847Y-44467543D02*
X123277847Y-44734209D01*
X123696895Y-44734209D02*
X122896895Y-44734209D01*
X122896895Y-44734209D02*
X122896895Y-44353257D01*
X126896895Y-56324687D02*
X126896895Y-56781830D01*
X126896895Y-56553258D02*
X126096895Y-56553258D01*
X126096895Y-56553258D02*
X126211180Y-56629449D01*
X126211180Y-56629449D02*
X126287371Y-56705639D01*
X126287371Y-56705639D02*
X126325466Y-56781830D01*
X126096895Y-55829448D02*
X126096895Y-55753258D01*
X126096895Y-55753258D02*
X126134990Y-55677067D01*
X126134990Y-55677067D02*
X126173085Y-55638972D01*
X126173085Y-55638972D02*
X126249276Y-55600877D01*
X126249276Y-55600877D02*
X126401657Y-55562782D01*
X126401657Y-55562782D02*
X126592133Y-55562782D01*
X126592133Y-55562782D02*
X126744514Y-55600877D01*
X126744514Y-55600877D02*
X126820704Y-55638972D01*
X126820704Y-55638972D02*
X126858800Y-55677067D01*
X126858800Y-55677067D02*
X126896895Y-55753258D01*
X126896895Y-55753258D02*
X126896895Y-55829448D01*
X126896895Y-55829448D02*
X126858800Y-55905639D01*
X126858800Y-55905639D02*
X126820704Y-55943734D01*
X126820704Y-55943734D02*
X126744514Y-55981829D01*
X126744514Y-55981829D02*
X126592133Y-56019925D01*
X126592133Y-56019925D02*
X126401657Y-56019925D01*
X126401657Y-56019925D02*
X126249276Y-55981829D01*
X126249276Y-55981829D02*
X126173085Y-55943734D01*
X126173085Y-55943734D02*
X126134990Y-55905639D01*
X126134990Y-55905639D02*
X126096895Y-55829448D01*
X126896895Y-55219924D02*
X126096895Y-55219924D01*
X126896895Y-54762781D02*
X126439752Y-55105639D01*
X126096895Y-54762781D02*
X126554038Y-55219924D01*
X126896895Y-54458020D02*
X126896895Y-54267543D01*
X126896895Y-54267543D02*
X126744514Y-54267543D01*
X126744514Y-54267543D02*
X126706419Y-54343734D01*
X126706419Y-54343734D02*
X126630228Y-54419924D01*
X126630228Y-54419924D02*
X126515942Y-54458020D01*
X126515942Y-54458020D02*
X126325466Y-54458020D01*
X126325466Y-54458020D02*
X126211180Y-54419924D01*
X126211180Y-54419924D02*
X126134990Y-54343734D01*
X126134990Y-54343734D02*
X126096895Y-54229448D01*
X126096895Y-54229448D02*
X126096895Y-54077067D01*
X126096895Y-54077067D02*
X126134990Y-53962781D01*
X126134990Y-53962781D02*
X126211180Y-53886591D01*
X126211180Y-53886591D02*
X126325466Y-53848496D01*
X126325466Y-53848496D02*
X126515942Y-53848496D01*
X126515942Y-53848496D02*
X126630228Y-53886591D01*
X126630228Y-53886591D02*
X126706419Y-53962781D01*
X126706419Y-53962781D02*
X126744514Y-54038972D01*
X126744514Y-54038972D02*
X126896895Y-54038972D01*
X126896895Y-54038972D02*
X126896895Y-53848496D01*
X126896895Y-60324687D02*
X126896895Y-60781830D01*
X126896895Y-60553258D02*
X126096895Y-60553258D01*
X126096895Y-60553258D02*
X126211180Y-60629449D01*
X126211180Y-60629449D02*
X126287371Y-60705639D01*
X126287371Y-60705639D02*
X126325466Y-60781830D01*
X126896895Y-59981829D02*
X126096895Y-59981829D01*
X126896895Y-59524686D02*
X126439752Y-59867544D01*
X126096895Y-59524686D02*
X126554038Y-59981829D01*
X126896895Y-59219925D02*
X126896895Y-59029448D01*
X126896895Y-59029448D02*
X126744514Y-59029448D01*
X126744514Y-59029448D02*
X126706419Y-59105639D01*
X126706419Y-59105639D02*
X126630228Y-59181829D01*
X126630228Y-59181829D02*
X126515942Y-59219925D01*
X126515942Y-59219925D02*
X126325466Y-59219925D01*
X126325466Y-59219925D02*
X126211180Y-59181829D01*
X126211180Y-59181829D02*
X126134990Y-59105639D01*
X126134990Y-59105639D02*
X126096895Y-58991353D01*
X126096895Y-58991353D02*
X126096895Y-58838972D01*
X126096895Y-58838972D02*
X126134990Y-58724686D01*
X126134990Y-58724686D02*
X126211180Y-58648496D01*
X126211180Y-58648496D02*
X126325466Y-58610401D01*
X126325466Y-58610401D02*
X126515942Y-58610401D01*
X126515942Y-58610401D02*
X126630228Y-58648496D01*
X126630228Y-58648496D02*
X126706419Y-58724686D01*
X126706419Y-58724686D02*
X126744514Y-58800877D01*
X126744514Y-58800877D02*
X126896895Y-58800877D01*
X126896895Y-58800877D02*
X126896895Y-58610401D01*
X126896895Y-64824687D02*
X126896895Y-65281830D01*
X126896895Y-65053258D02*
X126096895Y-65053258D01*
X126096895Y-65053258D02*
X126211180Y-65129449D01*
X126211180Y-65129449D02*
X126287371Y-65205639D01*
X126287371Y-65205639D02*
X126325466Y-65281830D01*
X126896895Y-64481829D02*
X126096895Y-64481829D01*
X126896895Y-64024686D02*
X126439752Y-64367544D01*
X126096895Y-64024686D02*
X126554038Y-64481829D01*
X126896895Y-63719925D02*
X126896895Y-63529448D01*
X126896895Y-63529448D02*
X126744514Y-63529448D01*
X126744514Y-63529448D02*
X126706419Y-63605639D01*
X126706419Y-63605639D02*
X126630228Y-63681829D01*
X126630228Y-63681829D02*
X126515942Y-63719925D01*
X126515942Y-63719925D02*
X126325466Y-63719925D01*
X126325466Y-63719925D02*
X126211180Y-63681829D01*
X126211180Y-63681829D02*
X126134990Y-63605639D01*
X126134990Y-63605639D02*
X126096895Y-63491353D01*
X126096895Y-63491353D02*
X126096895Y-63338972D01*
X126096895Y-63338972D02*
X126134990Y-63224686D01*
X126134990Y-63224686D02*
X126211180Y-63148496D01*
X126211180Y-63148496D02*
X126325466Y-63110401D01*
X126325466Y-63110401D02*
X126515942Y-63110401D01*
X126515942Y-63110401D02*
X126630228Y-63148496D01*
X126630228Y-63148496D02*
X126706419Y-63224686D01*
X126706419Y-63224686D02*
X126744514Y-63300877D01*
X126744514Y-63300877D02*
X126896895Y-63300877D01*
X126896895Y-63300877D02*
X126896895Y-63110401D01*
X126896895Y-69324687D02*
X126896895Y-69781830D01*
X126896895Y-69553258D02*
X126096895Y-69553258D01*
X126096895Y-69553258D02*
X126211180Y-69629449D01*
X126211180Y-69629449D02*
X126287371Y-69705639D01*
X126287371Y-69705639D02*
X126325466Y-69781830D01*
X126896895Y-68981829D02*
X126096895Y-68981829D01*
X126896895Y-68524686D02*
X126439752Y-68867544D01*
X126096895Y-68524686D02*
X126554038Y-68981829D01*
X126896895Y-68219925D02*
X126896895Y-68029448D01*
X126896895Y-68029448D02*
X126744514Y-68029448D01*
X126744514Y-68029448D02*
X126706419Y-68105639D01*
X126706419Y-68105639D02*
X126630228Y-68181829D01*
X126630228Y-68181829D02*
X126515942Y-68219925D01*
X126515942Y-68219925D02*
X126325466Y-68219925D01*
X126325466Y-68219925D02*
X126211180Y-68181829D01*
X126211180Y-68181829D02*
X126134990Y-68105639D01*
X126134990Y-68105639D02*
X126096895Y-67991353D01*
X126096895Y-67991353D02*
X126096895Y-67838972D01*
X126096895Y-67838972D02*
X126134990Y-67724686D01*
X126134990Y-67724686D02*
X126211180Y-67648496D01*
X126211180Y-67648496D02*
X126325466Y-67610401D01*
X126325466Y-67610401D02*
X126515942Y-67610401D01*
X126515942Y-67610401D02*
X126630228Y-67648496D01*
X126630228Y-67648496D02*
X126706419Y-67724686D01*
X126706419Y-67724686D02*
X126744514Y-67800877D01*
X126744514Y-67800877D02*
X126896895Y-67800877D01*
X126896895Y-67800877D02*
X126896895Y-67610401D01*
X126896895Y-73324687D02*
X126896895Y-73781830D01*
X126896895Y-73553258D02*
X126096895Y-73553258D01*
X126096895Y-73553258D02*
X126211180Y-73629449D01*
X126211180Y-73629449D02*
X126287371Y-73705639D01*
X126287371Y-73705639D02*
X126325466Y-73781830D01*
X126896895Y-72981829D02*
X126096895Y-72981829D01*
X126896895Y-72524686D02*
X126439752Y-72867544D01*
X126096895Y-72524686D02*
X126554038Y-72981829D01*
X126896895Y-72219925D02*
X126896895Y-72029448D01*
X126896895Y-72029448D02*
X126744514Y-72029448D01*
X126744514Y-72029448D02*
X126706419Y-72105639D01*
X126706419Y-72105639D02*
X126630228Y-72181829D01*
X126630228Y-72181829D02*
X126515942Y-72219925D01*
X126515942Y-72219925D02*
X126325466Y-72219925D01*
X126325466Y-72219925D02*
X126211180Y-72181829D01*
X126211180Y-72181829D02*
X126134990Y-72105639D01*
X126134990Y-72105639D02*
X126096895Y-71991353D01*
X126096895Y-71991353D02*
X126096895Y-71838972D01*
X126096895Y-71838972D02*
X126134990Y-71724686D01*
X126134990Y-71724686D02*
X126211180Y-71648496D01*
X126211180Y-71648496D02*
X126325466Y-71610401D01*
X126325466Y-71610401D02*
X126515942Y-71610401D01*
X126515942Y-71610401D02*
X126630228Y-71648496D01*
X126630228Y-71648496D02*
X126706419Y-71724686D01*
X126706419Y-71724686D02*
X126744514Y-71800877D01*
X126744514Y-71800877D02*
X126896895Y-71800877D01*
X126896895Y-71800877D02*
X126896895Y-71610401D01*
X128896895Y-85824687D02*
X128896895Y-86281830D01*
X128896895Y-86053258D02*
X128096895Y-86053258D01*
X128096895Y-86053258D02*
X128211180Y-86129449D01*
X128211180Y-86129449D02*
X128287371Y-86205639D01*
X128287371Y-86205639D02*
X128325466Y-86281830D01*
X128096895Y-85329448D02*
X128096895Y-85253258D01*
X128096895Y-85253258D02*
X128134990Y-85177067D01*
X128134990Y-85177067D02*
X128173085Y-85138972D01*
X128173085Y-85138972D02*
X128249276Y-85100877D01*
X128249276Y-85100877D02*
X128401657Y-85062782D01*
X128401657Y-85062782D02*
X128592133Y-85062782D01*
X128592133Y-85062782D02*
X128744514Y-85100877D01*
X128744514Y-85100877D02*
X128820704Y-85138972D01*
X128820704Y-85138972D02*
X128858800Y-85177067D01*
X128858800Y-85177067D02*
X128896895Y-85253258D01*
X128896895Y-85253258D02*
X128896895Y-85329448D01*
X128896895Y-85329448D02*
X128858800Y-85405639D01*
X128858800Y-85405639D02*
X128820704Y-85443734D01*
X128820704Y-85443734D02*
X128744514Y-85481829D01*
X128744514Y-85481829D02*
X128592133Y-85519925D01*
X128592133Y-85519925D02*
X128401657Y-85519925D01*
X128401657Y-85519925D02*
X128249276Y-85481829D01*
X128249276Y-85481829D02*
X128173085Y-85443734D01*
X128173085Y-85443734D02*
X128134990Y-85405639D01*
X128134990Y-85405639D02*
X128096895Y-85329448D01*
X128096895Y-84567543D02*
X128096895Y-84491353D01*
X128096895Y-84491353D02*
X128134990Y-84415162D01*
X128134990Y-84415162D02*
X128173085Y-84377067D01*
X128173085Y-84377067D02*
X128249276Y-84338972D01*
X128249276Y-84338972D02*
X128401657Y-84300877D01*
X128401657Y-84300877D02*
X128592133Y-84300877D01*
X128592133Y-84300877D02*
X128744514Y-84338972D01*
X128744514Y-84338972D02*
X128820704Y-84377067D01*
X128820704Y-84377067D02*
X128858800Y-84415162D01*
X128858800Y-84415162D02*
X128896895Y-84491353D01*
X128896895Y-84491353D02*
X128896895Y-84567543D01*
X128896895Y-84567543D02*
X128858800Y-84643734D01*
X128858800Y-84643734D02*
X128820704Y-84681829D01*
X128820704Y-84681829D02*
X128744514Y-84719924D01*
X128744514Y-84719924D02*
X128592133Y-84758020D01*
X128592133Y-84758020D02*
X128401657Y-84758020D01*
X128401657Y-84758020D02*
X128249276Y-84719924D01*
X128249276Y-84719924D02*
X128173085Y-84681829D01*
X128173085Y-84681829D02*
X128134990Y-84643734D01*
X128134990Y-84643734D02*
X128096895Y-84567543D01*
X128896895Y-83958019D02*
X128096895Y-83958019D01*
X128896895Y-83500876D02*
X128439752Y-83843734D01*
X128096895Y-83500876D02*
X128554038Y-83958019D01*
X128896895Y-83196115D02*
X128896895Y-83005638D01*
X128896895Y-83005638D02*
X128744514Y-83005638D01*
X128744514Y-83005638D02*
X128706419Y-83081829D01*
X128706419Y-83081829D02*
X128630228Y-83158019D01*
X128630228Y-83158019D02*
X128515942Y-83196115D01*
X128515942Y-83196115D02*
X128325466Y-83196115D01*
X128325466Y-83196115D02*
X128211180Y-83158019D01*
X128211180Y-83158019D02*
X128134990Y-83081829D01*
X128134990Y-83081829D02*
X128096895Y-82967543D01*
X128096895Y-82967543D02*
X128096895Y-82815162D01*
X128096895Y-82815162D02*
X128134990Y-82700876D01*
X128134990Y-82700876D02*
X128211180Y-82624686D01*
X128211180Y-82624686D02*
X128325466Y-82586591D01*
X128325466Y-82586591D02*
X128515942Y-82586591D01*
X128515942Y-82586591D02*
X128630228Y-82624686D01*
X128630228Y-82624686D02*
X128706419Y-82700876D01*
X128706419Y-82700876D02*
X128744514Y-82777067D01*
X128744514Y-82777067D02*
X128896895Y-82777067D01*
X128896895Y-82777067D02*
X128896895Y-82586591D01*
X128896895Y-95324687D02*
X128896895Y-95781830D01*
X128896895Y-95553258D02*
X128096895Y-95553258D01*
X128096895Y-95553258D02*
X128211180Y-95629449D01*
X128211180Y-95629449D02*
X128287371Y-95705639D01*
X128287371Y-95705639D02*
X128325466Y-95781830D01*
X128096895Y-94829448D02*
X128096895Y-94753258D01*
X128096895Y-94753258D02*
X128134990Y-94677067D01*
X128134990Y-94677067D02*
X128173085Y-94638972D01*
X128173085Y-94638972D02*
X128249276Y-94600877D01*
X128249276Y-94600877D02*
X128401657Y-94562782D01*
X128401657Y-94562782D02*
X128592133Y-94562782D01*
X128592133Y-94562782D02*
X128744514Y-94600877D01*
X128744514Y-94600877D02*
X128820704Y-94638972D01*
X128820704Y-94638972D02*
X128858800Y-94677067D01*
X128858800Y-94677067D02*
X128896895Y-94753258D01*
X128896895Y-94753258D02*
X128896895Y-94829448D01*
X128896895Y-94829448D02*
X128858800Y-94905639D01*
X128858800Y-94905639D02*
X128820704Y-94943734D01*
X128820704Y-94943734D02*
X128744514Y-94981829D01*
X128744514Y-94981829D02*
X128592133Y-95019925D01*
X128592133Y-95019925D02*
X128401657Y-95019925D01*
X128401657Y-95019925D02*
X128249276Y-94981829D01*
X128249276Y-94981829D02*
X128173085Y-94943734D01*
X128173085Y-94943734D02*
X128134990Y-94905639D01*
X128134990Y-94905639D02*
X128096895Y-94829448D01*
X128096895Y-94067543D02*
X128096895Y-93991353D01*
X128096895Y-93991353D02*
X128134990Y-93915162D01*
X128134990Y-93915162D02*
X128173085Y-93877067D01*
X128173085Y-93877067D02*
X128249276Y-93838972D01*
X128249276Y-93838972D02*
X128401657Y-93800877D01*
X128401657Y-93800877D02*
X128592133Y-93800877D01*
X128592133Y-93800877D02*
X128744514Y-93838972D01*
X128744514Y-93838972D02*
X128820704Y-93877067D01*
X128820704Y-93877067D02*
X128858800Y-93915162D01*
X128858800Y-93915162D02*
X128896895Y-93991353D01*
X128896895Y-93991353D02*
X128896895Y-94067543D01*
X128896895Y-94067543D02*
X128858800Y-94143734D01*
X128858800Y-94143734D02*
X128820704Y-94181829D01*
X128820704Y-94181829D02*
X128744514Y-94219924D01*
X128744514Y-94219924D02*
X128592133Y-94258020D01*
X128592133Y-94258020D02*
X128401657Y-94258020D01*
X128401657Y-94258020D02*
X128249276Y-94219924D01*
X128249276Y-94219924D02*
X128173085Y-94181829D01*
X128173085Y-94181829D02*
X128134990Y-94143734D01*
X128134990Y-94143734D02*
X128096895Y-94067543D01*
X128896895Y-93458019D02*
X128096895Y-93458019D01*
X128896895Y-93000876D02*
X128439752Y-93343734D01*
X128096895Y-93000876D02*
X128554038Y-93458019D01*
X128896895Y-92696115D02*
X128896895Y-92505638D01*
X128896895Y-92505638D02*
X128744514Y-92505638D01*
X128744514Y-92505638D02*
X128706419Y-92581829D01*
X128706419Y-92581829D02*
X128630228Y-92658019D01*
X128630228Y-92658019D02*
X128515942Y-92696115D01*
X128515942Y-92696115D02*
X128325466Y-92696115D01*
X128325466Y-92696115D02*
X128211180Y-92658019D01*
X128211180Y-92658019D02*
X128134990Y-92581829D01*
X128134990Y-92581829D02*
X128096895Y-92467543D01*
X128096895Y-92467543D02*
X128096895Y-92315162D01*
X128096895Y-92315162D02*
X128134990Y-92200876D01*
X128134990Y-92200876D02*
X128211180Y-92124686D01*
X128211180Y-92124686D02*
X128325466Y-92086591D01*
X128325466Y-92086591D02*
X128515942Y-92086591D01*
X128515942Y-92086591D02*
X128630228Y-92124686D01*
X128630228Y-92124686D02*
X128706419Y-92200876D01*
X128706419Y-92200876D02*
X128744514Y-92277067D01*
X128744514Y-92277067D02*
X128896895Y-92277067D01*
X128896895Y-92277067D02*
X128896895Y-92086591D01*
X129896895Y-56324687D02*
X129896895Y-56781830D01*
X129896895Y-56553258D02*
X129096895Y-56553258D01*
X129096895Y-56553258D02*
X129211180Y-56629449D01*
X129211180Y-56629449D02*
X129287371Y-56705639D01*
X129287371Y-56705639D02*
X129325466Y-56781830D01*
X129096895Y-55829448D02*
X129096895Y-55753258D01*
X129096895Y-55753258D02*
X129134990Y-55677067D01*
X129134990Y-55677067D02*
X129173085Y-55638972D01*
X129173085Y-55638972D02*
X129249276Y-55600877D01*
X129249276Y-55600877D02*
X129401657Y-55562782D01*
X129401657Y-55562782D02*
X129592133Y-55562782D01*
X129592133Y-55562782D02*
X129744514Y-55600877D01*
X129744514Y-55600877D02*
X129820704Y-55638972D01*
X129820704Y-55638972D02*
X129858800Y-55677067D01*
X129858800Y-55677067D02*
X129896895Y-55753258D01*
X129896895Y-55753258D02*
X129896895Y-55829448D01*
X129896895Y-55829448D02*
X129858800Y-55905639D01*
X129858800Y-55905639D02*
X129820704Y-55943734D01*
X129820704Y-55943734D02*
X129744514Y-55981829D01*
X129744514Y-55981829D02*
X129592133Y-56019925D01*
X129592133Y-56019925D02*
X129401657Y-56019925D01*
X129401657Y-56019925D02*
X129249276Y-55981829D01*
X129249276Y-55981829D02*
X129173085Y-55943734D01*
X129173085Y-55943734D02*
X129134990Y-55905639D01*
X129134990Y-55905639D02*
X129096895Y-55829448D01*
X129896895Y-55219924D02*
X129096895Y-55219924D01*
X129896895Y-54762781D02*
X129439752Y-55105639D01*
X129096895Y-54762781D02*
X129554038Y-55219924D01*
X129896895Y-54458020D02*
X129896895Y-54267543D01*
X129896895Y-54267543D02*
X129744514Y-54267543D01*
X129744514Y-54267543D02*
X129706419Y-54343734D01*
X129706419Y-54343734D02*
X129630228Y-54419924D01*
X129630228Y-54419924D02*
X129515942Y-54458020D01*
X129515942Y-54458020D02*
X129325466Y-54458020D01*
X129325466Y-54458020D02*
X129211180Y-54419924D01*
X129211180Y-54419924D02*
X129134990Y-54343734D01*
X129134990Y-54343734D02*
X129096895Y-54229448D01*
X129096895Y-54229448D02*
X129096895Y-54077067D01*
X129096895Y-54077067D02*
X129134990Y-53962781D01*
X129134990Y-53962781D02*
X129211180Y-53886591D01*
X129211180Y-53886591D02*
X129325466Y-53848496D01*
X129325466Y-53848496D02*
X129515942Y-53848496D01*
X129515942Y-53848496D02*
X129630228Y-53886591D01*
X129630228Y-53886591D02*
X129706419Y-53962781D01*
X129706419Y-53962781D02*
X129744514Y-54038972D01*
X129744514Y-54038972D02*
X129896895Y-54038972D01*
X129896895Y-54038972D02*
X129896895Y-53848496D01*
X129363561Y-60400877D02*
X129896895Y-60400877D01*
X129058800Y-60591353D02*
X129630228Y-60781830D01*
X129630228Y-60781830D02*
X129630228Y-60286591D01*
X129820704Y-59981829D02*
X129858800Y-59943734D01*
X129858800Y-59943734D02*
X129896895Y-59981829D01*
X129896895Y-59981829D02*
X129858800Y-60019925D01*
X129858800Y-60019925D02*
X129820704Y-59981829D01*
X129820704Y-59981829D02*
X129896895Y-59981829D01*
X129096895Y-59677068D02*
X129096895Y-59143734D01*
X129096895Y-59143734D02*
X129896895Y-59486592D01*
X129363561Y-58838972D02*
X129896895Y-58838972D01*
X129439752Y-58838972D02*
X129401657Y-58800877D01*
X129401657Y-58800877D02*
X129363561Y-58724687D01*
X129363561Y-58724687D02*
X129363561Y-58610401D01*
X129363561Y-58610401D02*
X129401657Y-58534210D01*
X129401657Y-58534210D02*
X129477847Y-58496115D01*
X129477847Y-58496115D02*
X129896895Y-58496115D01*
X129477847Y-57848496D02*
X129477847Y-58115162D01*
X129896895Y-58115162D02*
X129096895Y-58115162D01*
X129096895Y-58115162D02*
X129096895Y-57734210D01*
X129363561Y-64900877D02*
X129896895Y-64900877D01*
X129058800Y-65091353D02*
X129630228Y-65281830D01*
X129630228Y-65281830D02*
X129630228Y-64786591D01*
X129820704Y-64481829D02*
X129858800Y-64443734D01*
X129858800Y-64443734D02*
X129896895Y-64481829D01*
X129896895Y-64481829D02*
X129858800Y-64519925D01*
X129858800Y-64519925D02*
X129820704Y-64481829D01*
X129820704Y-64481829D02*
X129896895Y-64481829D01*
X129096895Y-64177068D02*
X129096895Y-63643734D01*
X129096895Y-63643734D02*
X129896895Y-63986592D01*
X129363561Y-63338972D02*
X129896895Y-63338972D01*
X129439752Y-63338972D02*
X129401657Y-63300877D01*
X129401657Y-63300877D02*
X129363561Y-63224687D01*
X129363561Y-63224687D02*
X129363561Y-63110401D01*
X129363561Y-63110401D02*
X129401657Y-63034210D01*
X129401657Y-63034210D02*
X129477847Y-62996115D01*
X129477847Y-62996115D02*
X129896895Y-62996115D01*
X129477847Y-62348496D02*
X129477847Y-62615162D01*
X129896895Y-62615162D02*
X129096895Y-62615162D01*
X129096895Y-62615162D02*
X129096895Y-62234210D01*
X129363561Y-69400877D02*
X129896895Y-69400877D01*
X129058800Y-69591353D02*
X129630228Y-69781830D01*
X129630228Y-69781830D02*
X129630228Y-69286591D01*
X129820704Y-68981829D02*
X129858800Y-68943734D01*
X129858800Y-68943734D02*
X129896895Y-68981829D01*
X129896895Y-68981829D02*
X129858800Y-69019925D01*
X129858800Y-69019925D02*
X129820704Y-68981829D01*
X129820704Y-68981829D02*
X129896895Y-68981829D01*
X129096895Y-68677068D02*
X129096895Y-68143734D01*
X129096895Y-68143734D02*
X129896895Y-68486592D01*
X129363561Y-67838972D02*
X129896895Y-67838972D01*
X129439752Y-67838972D02*
X129401657Y-67800877D01*
X129401657Y-67800877D02*
X129363561Y-67724687D01*
X129363561Y-67724687D02*
X129363561Y-67610401D01*
X129363561Y-67610401D02*
X129401657Y-67534210D01*
X129401657Y-67534210D02*
X129477847Y-67496115D01*
X129477847Y-67496115D02*
X129896895Y-67496115D01*
X129477847Y-66848496D02*
X129477847Y-67115162D01*
X129896895Y-67115162D02*
X129096895Y-67115162D01*
X129096895Y-67115162D02*
X129096895Y-66734210D01*
X129363561Y-73400877D02*
X129896895Y-73400877D01*
X129058800Y-73591353D02*
X129630228Y-73781830D01*
X129630228Y-73781830D02*
X129630228Y-73286591D01*
X129820704Y-72981829D02*
X129858800Y-72943734D01*
X129858800Y-72943734D02*
X129896895Y-72981829D01*
X129896895Y-72981829D02*
X129858800Y-73019925D01*
X129858800Y-73019925D02*
X129820704Y-72981829D01*
X129820704Y-72981829D02*
X129896895Y-72981829D01*
X129096895Y-72677068D02*
X129096895Y-72143734D01*
X129096895Y-72143734D02*
X129896895Y-72486592D01*
X129363561Y-71838972D02*
X129896895Y-71838972D01*
X129439752Y-71838972D02*
X129401657Y-71800877D01*
X129401657Y-71800877D02*
X129363561Y-71724687D01*
X129363561Y-71724687D02*
X129363561Y-71610401D01*
X129363561Y-71610401D02*
X129401657Y-71534210D01*
X129401657Y-71534210D02*
X129477847Y-71496115D01*
X129477847Y-71496115D02*
X129896895Y-71496115D01*
X129477847Y-70848496D02*
X129477847Y-71115162D01*
X129896895Y-71115162D02*
X129096895Y-71115162D01*
X129096895Y-71115162D02*
X129096895Y-70734210D01*
X129673085Y-85781830D02*
X129634990Y-85743734D01*
X129634990Y-85743734D02*
X129596895Y-85667544D01*
X129596895Y-85667544D02*
X129596895Y-85477068D01*
X129596895Y-85477068D02*
X129634990Y-85400877D01*
X129634990Y-85400877D02*
X129673085Y-85362782D01*
X129673085Y-85362782D02*
X129749276Y-85324687D01*
X129749276Y-85324687D02*
X129825466Y-85324687D01*
X129825466Y-85324687D02*
X129939752Y-85362782D01*
X129939752Y-85362782D02*
X130396895Y-85819925D01*
X130396895Y-85819925D02*
X130396895Y-85324687D01*
X129596895Y-84829448D02*
X129596895Y-84753258D01*
X129596895Y-84753258D02*
X129634990Y-84677067D01*
X129634990Y-84677067D02*
X129673085Y-84638972D01*
X129673085Y-84638972D02*
X129749276Y-84600877D01*
X129749276Y-84600877D02*
X129901657Y-84562782D01*
X129901657Y-84562782D02*
X130092133Y-84562782D01*
X130092133Y-84562782D02*
X130244514Y-84600877D01*
X130244514Y-84600877D02*
X130320704Y-84638972D01*
X130320704Y-84638972D02*
X130358800Y-84677067D01*
X130358800Y-84677067D02*
X130396895Y-84753258D01*
X130396895Y-84753258D02*
X130396895Y-84829448D01*
X130396895Y-84829448D02*
X130358800Y-84905639D01*
X130358800Y-84905639D02*
X130320704Y-84943734D01*
X130320704Y-84943734D02*
X130244514Y-84981829D01*
X130244514Y-84981829D02*
X130092133Y-85019925D01*
X130092133Y-85019925D02*
X129901657Y-85019925D01*
X129901657Y-85019925D02*
X129749276Y-84981829D01*
X129749276Y-84981829D02*
X129673085Y-84943734D01*
X129673085Y-84943734D02*
X129634990Y-84905639D01*
X129634990Y-84905639D02*
X129596895Y-84829448D01*
X130396895Y-84219924D02*
X129596895Y-84219924D01*
X130396895Y-83762781D02*
X129939752Y-84105639D01*
X129596895Y-83762781D02*
X130054038Y-84219924D01*
X130396895Y-83458020D02*
X130396895Y-83267543D01*
X130396895Y-83267543D02*
X130244514Y-83267543D01*
X130244514Y-83267543D02*
X130206419Y-83343734D01*
X130206419Y-83343734D02*
X130130228Y-83419924D01*
X130130228Y-83419924D02*
X130015942Y-83458020D01*
X130015942Y-83458020D02*
X129825466Y-83458020D01*
X129825466Y-83458020D02*
X129711180Y-83419924D01*
X129711180Y-83419924D02*
X129634990Y-83343734D01*
X129634990Y-83343734D02*
X129596895Y-83229448D01*
X129596895Y-83229448D02*
X129596895Y-83077067D01*
X129596895Y-83077067D02*
X129634990Y-82962781D01*
X129634990Y-82962781D02*
X129711180Y-82886591D01*
X129711180Y-82886591D02*
X129825466Y-82848496D01*
X129825466Y-82848496D02*
X130015942Y-82848496D01*
X130015942Y-82848496D02*
X130130228Y-82886591D01*
X130130228Y-82886591D02*
X130206419Y-82962781D01*
X130206419Y-82962781D02*
X130244514Y-83038972D01*
X130244514Y-83038972D02*
X130396895Y-83038972D01*
X130396895Y-83038972D02*
X130396895Y-82848496D01*
X129673085Y-95281830D02*
X129634990Y-95243734D01*
X129634990Y-95243734D02*
X129596895Y-95167544D01*
X129596895Y-95167544D02*
X129596895Y-94977068D01*
X129596895Y-94977068D02*
X129634990Y-94900877D01*
X129634990Y-94900877D02*
X129673085Y-94862782D01*
X129673085Y-94862782D02*
X129749276Y-94824687D01*
X129749276Y-94824687D02*
X129825466Y-94824687D01*
X129825466Y-94824687D02*
X129939752Y-94862782D01*
X129939752Y-94862782D02*
X130396895Y-95319925D01*
X130396895Y-95319925D02*
X130396895Y-94824687D01*
X129596895Y-94329448D02*
X129596895Y-94253258D01*
X129596895Y-94253258D02*
X129634990Y-94177067D01*
X129634990Y-94177067D02*
X129673085Y-94138972D01*
X129673085Y-94138972D02*
X129749276Y-94100877D01*
X129749276Y-94100877D02*
X129901657Y-94062782D01*
X129901657Y-94062782D02*
X130092133Y-94062782D01*
X130092133Y-94062782D02*
X130244514Y-94100877D01*
X130244514Y-94100877D02*
X130320704Y-94138972D01*
X130320704Y-94138972D02*
X130358800Y-94177067D01*
X130358800Y-94177067D02*
X130396895Y-94253258D01*
X130396895Y-94253258D02*
X130396895Y-94329448D01*
X130396895Y-94329448D02*
X130358800Y-94405639D01*
X130358800Y-94405639D02*
X130320704Y-94443734D01*
X130320704Y-94443734D02*
X130244514Y-94481829D01*
X130244514Y-94481829D02*
X130092133Y-94519925D01*
X130092133Y-94519925D02*
X129901657Y-94519925D01*
X129901657Y-94519925D02*
X129749276Y-94481829D01*
X129749276Y-94481829D02*
X129673085Y-94443734D01*
X129673085Y-94443734D02*
X129634990Y-94405639D01*
X129634990Y-94405639D02*
X129596895Y-94329448D01*
X130396895Y-93719924D02*
X129596895Y-93719924D01*
X130396895Y-93262781D02*
X129939752Y-93605639D01*
X129596895Y-93262781D02*
X130054038Y-93719924D01*
X130396895Y-92958020D02*
X130396895Y-92767543D01*
X130396895Y-92767543D02*
X130244514Y-92767543D01*
X130244514Y-92767543D02*
X130206419Y-92843734D01*
X130206419Y-92843734D02*
X130130228Y-92919924D01*
X130130228Y-92919924D02*
X130015942Y-92958020D01*
X130015942Y-92958020D02*
X129825466Y-92958020D01*
X129825466Y-92958020D02*
X129711180Y-92919924D01*
X129711180Y-92919924D02*
X129634990Y-92843734D01*
X129634990Y-92843734D02*
X129596895Y-92729448D01*
X129596895Y-92729448D02*
X129596895Y-92577067D01*
X129596895Y-92577067D02*
X129634990Y-92462781D01*
X129634990Y-92462781D02*
X129711180Y-92386591D01*
X129711180Y-92386591D02*
X129825466Y-92348496D01*
X129825466Y-92348496D02*
X130015942Y-92348496D01*
X130015942Y-92348496D02*
X130130228Y-92386591D01*
X130130228Y-92386591D02*
X130206419Y-92462781D01*
X130206419Y-92462781D02*
X130244514Y-92538972D01*
X130244514Y-92538972D02*
X130396895Y-92538972D01*
X130396895Y-92538972D02*
X130396895Y-92348496D01*
X133896895Y-69824687D02*
X133896895Y-70281830D01*
X133896895Y-70053258D02*
X133096895Y-70053258D01*
X133096895Y-70053258D02*
X133211180Y-70129449D01*
X133211180Y-70129449D02*
X133287371Y-70205639D01*
X133287371Y-70205639D02*
X133325466Y-70281830D01*
X133096895Y-69329448D02*
X133096895Y-69253258D01*
X133096895Y-69253258D02*
X133134990Y-69177067D01*
X133134990Y-69177067D02*
X133173085Y-69138972D01*
X133173085Y-69138972D02*
X133249276Y-69100877D01*
X133249276Y-69100877D02*
X133401657Y-69062782D01*
X133401657Y-69062782D02*
X133592133Y-69062782D01*
X133592133Y-69062782D02*
X133744514Y-69100877D01*
X133744514Y-69100877D02*
X133820704Y-69138972D01*
X133820704Y-69138972D02*
X133858800Y-69177067D01*
X133858800Y-69177067D02*
X133896895Y-69253258D01*
X133896895Y-69253258D02*
X133896895Y-69329448D01*
X133896895Y-69329448D02*
X133858800Y-69405639D01*
X133858800Y-69405639D02*
X133820704Y-69443734D01*
X133820704Y-69443734D02*
X133744514Y-69481829D01*
X133744514Y-69481829D02*
X133592133Y-69519925D01*
X133592133Y-69519925D02*
X133401657Y-69519925D01*
X133401657Y-69519925D02*
X133249276Y-69481829D01*
X133249276Y-69481829D02*
X133173085Y-69443734D01*
X133173085Y-69443734D02*
X133134990Y-69405639D01*
X133134990Y-69405639D02*
X133096895Y-69329448D01*
X133363561Y-68377067D02*
X133896895Y-68377067D01*
X133363561Y-68719924D02*
X133782609Y-68719924D01*
X133782609Y-68719924D02*
X133858800Y-68681829D01*
X133858800Y-68681829D02*
X133896895Y-68605639D01*
X133896895Y-68605639D02*
X133896895Y-68491353D01*
X133896895Y-68491353D02*
X133858800Y-68415162D01*
X133858800Y-68415162D02*
X133820704Y-68377067D01*
X133477847Y-67729448D02*
X133477847Y-67996114D01*
X133896895Y-67996114D02*
X133096895Y-67996114D01*
X133096895Y-67996114D02*
X133096895Y-67615162D01*
X134396895Y-62124687D02*
X134396895Y-62581830D01*
X134396895Y-62353258D02*
X133596895Y-62353258D01*
X133596895Y-62353258D02*
X133711180Y-62429449D01*
X133711180Y-62429449D02*
X133787371Y-62505639D01*
X133787371Y-62505639D02*
X133825466Y-62581830D01*
X133596895Y-61629448D02*
X133596895Y-61553258D01*
X133596895Y-61553258D02*
X133634990Y-61477067D01*
X133634990Y-61477067D02*
X133673085Y-61438972D01*
X133673085Y-61438972D02*
X133749276Y-61400877D01*
X133749276Y-61400877D02*
X133901657Y-61362782D01*
X133901657Y-61362782D02*
X134092133Y-61362782D01*
X134092133Y-61362782D02*
X134244514Y-61400877D01*
X134244514Y-61400877D02*
X134320704Y-61438972D01*
X134320704Y-61438972D02*
X134358800Y-61477067D01*
X134358800Y-61477067D02*
X134396895Y-61553258D01*
X134396895Y-61553258D02*
X134396895Y-61629448D01*
X134396895Y-61629448D02*
X134358800Y-61705639D01*
X134358800Y-61705639D02*
X134320704Y-61743734D01*
X134320704Y-61743734D02*
X134244514Y-61781829D01*
X134244514Y-61781829D02*
X134092133Y-61819925D01*
X134092133Y-61819925D02*
X133901657Y-61819925D01*
X133901657Y-61819925D02*
X133749276Y-61781829D01*
X133749276Y-61781829D02*
X133673085Y-61743734D01*
X133673085Y-61743734D02*
X133634990Y-61705639D01*
X133634990Y-61705639D02*
X133596895Y-61629448D01*
X133863561Y-60677067D02*
X134396895Y-60677067D01*
X133863561Y-61019924D02*
X134282609Y-61019924D01*
X134282609Y-61019924D02*
X134358800Y-60981829D01*
X134358800Y-60981829D02*
X134396895Y-60905639D01*
X134396895Y-60905639D02*
X134396895Y-60791353D01*
X134396895Y-60791353D02*
X134358800Y-60715162D01*
X134358800Y-60715162D02*
X134320704Y-60677067D01*
X133977847Y-60029448D02*
X133977847Y-60296114D01*
X134396895Y-60296114D02*
X133596895Y-60296114D01*
X133596895Y-60296114D02*
X133596895Y-59915162D01*
X136686895Y-69674687D02*
X136686895Y-70131830D01*
X136686895Y-69903258D02*
X135886895Y-69903258D01*
X135886895Y-69903258D02*
X136001180Y-69979449D01*
X136001180Y-69979449D02*
X136077371Y-70055639D01*
X136077371Y-70055639D02*
X136115466Y-70131830D01*
X136153561Y-68988972D02*
X136686895Y-68988972D01*
X136153561Y-69331829D02*
X136572609Y-69331829D01*
X136572609Y-69331829D02*
X136648800Y-69293734D01*
X136648800Y-69293734D02*
X136686895Y-69217544D01*
X136686895Y-69217544D02*
X136686895Y-69103258D01*
X136686895Y-69103258D02*
X136648800Y-69027067D01*
X136648800Y-69027067D02*
X136610704Y-68988972D01*
X136267847Y-68341353D02*
X136267847Y-68608019D01*
X136686895Y-68608019D02*
X135886895Y-68608019D01*
X135886895Y-68608019D02*
X135886895Y-68227067D01*
X136896895Y-62324687D02*
X136896895Y-62781830D01*
X136896895Y-62553258D02*
X136096895Y-62553258D01*
X136096895Y-62553258D02*
X136211180Y-62629449D01*
X136211180Y-62629449D02*
X136287371Y-62705639D01*
X136287371Y-62705639D02*
X136325466Y-62781830D01*
X136096895Y-61829448D02*
X136096895Y-61753258D01*
X136096895Y-61753258D02*
X136134990Y-61677067D01*
X136134990Y-61677067D02*
X136173085Y-61638972D01*
X136173085Y-61638972D02*
X136249276Y-61600877D01*
X136249276Y-61600877D02*
X136401657Y-61562782D01*
X136401657Y-61562782D02*
X136592133Y-61562782D01*
X136592133Y-61562782D02*
X136744514Y-61600877D01*
X136744514Y-61600877D02*
X136820704Y-61638972D01*
X136820704Y-61638972D02*
X136858800Y-61677067D01*
X136858800Y-61677067D02*
X136896895Y-61753258D01*
X136896895Y-61753258D02*
X136896895Y-61829448D01*
X136896895Y-61829448D02*
X136858800Y-61905639D01*
X136858800Y-61905639D02*
X136820704Y-61943734D01*
X136820704Y-61943734D02*
X136744514Y-61981829D01*
X136744514Y-61981829D02*
X136592133Y-62019925D01*
X136592133Y-62019925D02*
X136401657Y-62019925D01*
X136401657Y-62019925D02*
X136249276Y-61981829D01*
X136249276Y-61981829D02*
X136173085Y-61943734D01*
X136173085Y-61943734D02*
X136134990Y-61905639D01*
X136134990Y-61905639D02*
X136096895Y-61829448D01*
X136363561Y-60877067D02*
X136896895Y-60877067D01*
X136363561Y-61219924D02*
X136782609Y-61219924D01*
X136782609Y-61219924D02*
X136858800Y-61181829D01*
X136858800Y-61181829D02*
X136896895Y-61105639D01*
X136896895Y-61105639D02*
X136896895Y-60991353D01*
X136896895Y-60991353D02*
X136858800Y-60915162D01*
X136858800Y-60915162D02*
X136820704Y-60877067D01*
X136477847Y-60229448D02*
X136477847Y-60496114D01*
X136896895Y-60496114D02*
X136096895Y-60496114D01*
X136096895Y-60496114D02*
X136096895Y-60115162D01*
X138673561Y-72110877D02*
X139206895Y-72110877D01*
X138368800Y-72301353D02*
X138940228Y-72491830D01*
X138940228Y-72491830D02*
X138940228Y-71996591D01*
X139130704Y-71691829D02*
X139168800Y-71653734D01*
X139168800Y-71653734D02*
X139206895Y-71691829D01*
X139206895Y-71691829D02*
X139168800Y-71729925D01*
X139168800Y-71729925D02*
X139130704Y-71691829D01*
X139130704Y-71691829D02*
X139206895Y-71691829D01*
X138406895Y-71387068D02*
X138406895Y-70853734D01*
X138406895Y-70853734D02*
X139206895Y-71196592D01*
X138673561Y-70206115D02*
X139206895Y-70206115D01*
X138673561Y-70548972D02*
X139092609Y-70548972D01*
X139092609Y-70548972D02*
X139168800Y-70510877D01*
X139168800Y-70510877D02*
X139206895Y-70434687D01*
X139206895Y-70434687D02*
X139206895Y-70320401D01*
X139206895Y-70320401D02*
X139168800Y-70244210D01*
X139168800Y-70244210D02*
X139130704Y-70206115D01*
X138787847Y-69558496D02*
X138787847Y-69825162D01*
X139206895Y-69825162D02*
X138406895Y-69825162D01*
X138406895Y-69825162D02*
X138406895Y-69444210D01*
X139396895Y-62324687D02*
X139396895Y-62781830D01*
X139396895Y-62553258D02*
X138596895Y-62553258D01*
X138596895Y-62553258D02*
X138711180Y-62629449D01*
X138711180Y-62629449D02*
X138787371Y-62705639D01*
X138787371Y-62705639D02*
X138825466Y-62781830D01*
X138863561Y-61638972D02*
X139396895Y-61638972D01*
X138863561Y-61981829D02*
X139282609Y-61981829D01*
X139282609Y-61981829D02*
X139358800Y-61943734D01*
X139358800Y-61943734D02*
X139396895Y-61867544D01*
X139396895Y-61867544D02*
X139396895Y-61753258D01*
X139396895Y-61753258D02*
X139358800Y-61677067D01*
X139358800Y-61677067D02*
X139320704Y-61638972D01*
X138977847Y-60991353D02*
X138977847Y-61258019D01*
X139396895Y-61258019D02*
X138596895Y-61258019D01*
X138596895Y-61258019D02*
X138596895Y-60877067D01*
X140396895Y-71824687D02*
X140396895Y-72281830D01*
X140396895Y-72053258D02*
X139596895Y-72053258D01*
X139596895Y-72053258D02*
X139711180Y-72129449D01*
X139711180Y-72129449D02*
X139787371Y-72205639D01*
X139787371Y-72205639D02*
X139825466Y-72281830D01*
X139863561Y-71138972D02*
X140396895Y-71138972D01*
X139863561Y-71481829D02*
X140282609Y-71481829D01*
X140282609Y-71481829D02*
X140358800Y-71443734D01*
X140358800Y-71443734D02*
X140396895Y-71367544D01*
X140396895Y-71367544D02*
X140396895Y-71253258D01*
X140396895Y-71253258D02*
X140358800Y-71177067D01*
X140358800Y-71177067D02*
X140320704Y-71138972D01*
X139977847Y-70491353D02*
X139977847Y-70758019D01*
X140396895Y-70758019D02*
X139596895Y-70758019D01*
X139596895Y-70758019D02*
X139596895Y-70377067D01*
X142696895Y-80524687D02*
X142696895Y-80981830D01*
X142696895Y-80753258D02*
X141896895Y-80753258D01*
X141896895Y-80753258D02*
X142011180Y-80829449D01*
X142011180Y-80829449D02*
X142087371Y-80905639D01*
X142087371Y-80905639D02*
X142125466Y-80981830D01*
X141896895Y-80029448D02*
X141896895Y-79953258D01*
X141896895Y-79953258D02*
X141934990Y-79877067D01*
X141934990Y-79877067D02*
X141973085Y-79838972D01*
X141973085Y-79838972D02*
X142049276Y-79800877D01*
X142049276Y-79800877D02*
X142201657Y-79762782D01*
X142201657Y-79762782D02*
X142392133Y-79762782D01*
X142392133Y-79762782D02*
X142544514Y-79800877D01*
X142544514Y-79800877D02*
X142620704Y-79838972D01*
X142620704Y-79838972D02*
X142658800Y-79877067D01*
X142658800Y-79877067D02*
X142696895Y-79953258D01*
X142696895Y-79953258D02*
X142696895Y-80029448D01*
X142696895Y-80029448D02*
X142658800Y-80105639D01*
X142658800Y-80105639D02*
X142620704Y-80143734D01*
X142620704Y-80143734D02*
X142544514Y-80181829D01*
X142544514Y-80181829D02*
X142392133Y-80219925D01*
X142392133Y-80219925D02*
X142201657Y-80219925D01*
X142201657Y-80219925D02*
X142049276Y-80181829D01*
X142049276Y-80181829D02*
X141973085Y-80143734D01*
X141973085Y-80143734D02*
X141934990Y-80105639D01*
X141934990Y-80105639D02*
X141896895Y-80029448D01*
X142696895Y-79419924D02*
X141896895Y-79419924D01*
X142696895Y-78962781D02*
X142239752Y-79305639D01*
X141896895Y-78962781D02*
X142354038Y-79419924D01*
X142696895Y-78658020D02*
X142696895Y-78467543D01*
X142696895Y-78467543D02*
X142544514Y-78467543D01*
X142544514Y-78467543D02*
X142506419Y-78543734D01*
X142506419Y-78543734D02*
X142430228Y-78619924D01*
X142430228Y-78619924D02*
X142315942Y-78658020D01*
X142315942Y-78658020D02*
X142125466Y-78658020D01*
X142125466Y-78658020D02*
X142011180Y-78619924D01*
X142011180Y-78619924D02*
X141934990Y-78543734D01*
X141934990Y-78543734D02*
X141896895Y-78429448D01*
X141896895Y-78429448D02*
X141896895Y-78277067D01*
X141896895Y-78277067D02*
X141934990Y-78162781D01*
X141934990Y-78162781D02*
X142011180Y-78086591D01*
X142011180Y-78086591D02*
X142125466Y-78048496D01*
X142125466Y-78048496D02*
X142315942Y-78048496D01*
X142315942Y-78048496D02*
X142430228Y-78086591D01*
X142430228Y-78086591D02*
X142506419Y-78162781D01*
X142506419Y-78162781D02*
X142544514Y-78238972D01*
X142544514Y-78238972D02*
X142696895Y-78238972D01*
X142696895Y-78238972D02*
X142696895Y-78048496D01*
X143596895Y-85362782D02*
X143596895Y-85743734D01*
X143596895Y-85743734D02*
X143977847Y-85781830D01*
X143977847Y-85781830D02*
X143939752Y-85743734D01*
X143939752Y-85743734D02*
X143901657Y-85667544D01*
X143901657Y-85667544D02*
X143901657Y-85477068D01*
X143901657Y-85477068D02*
X143939752Y-85400877D01*
X143939752Y-85400877D02*
X143977847Y-85362782D01*
X143977847Y-85362782D02*
X144054038Y-85324687D01*
X144054038Y-85324687D02*
X144244514Y-85324687D01*
X144244514Y-85324687D02*
X144320704Y-85362782D01*
X144320704Y-85362782D02*
X144358800Y-85400877D01*
X144358800Y-85400877D02*
X144396895Y-85477068D01*
X144396895Y-85477068D02*
X144396895Y-85667544D01*
X144396895Y-85667544D02*
X144358800Y-85743734D01*
X144358800Y-85743734D02*
X144320704Y-85781830D01*
X144320704Y-84981829D02*
X144358800Y-84943734D01*
X144358800Y-84943734D02*
X144396895Y-84981829D01*
X144396895Y-84981829D02*
X144358800Y-85019925D01*
X144358800Y-85019925D02*
X144320704Y-84981829D01*
X144320704Y-84981829D02*
X144396895Y-84981829D01*
X144396895Y-84181830D02*
X144396895Y-84638973D01*
X144396895Y-84410401D02*
X143596895Y-84410401D01*
X143596895Y-84410401D02*
X143711180Y-84486592D01*
X143711180Y-84486592D02*
X143787371Y-84562782D01*
X143787371Y-84562782D02*
X143825466Y-84638973D01*
X144396895Y-83838972D02*
X143596895Y-83838972D01*
X144396895Y-83381829D02*
X143939752Y-83724687D01*
X143596895Y-83381829D02*
X144054038Y-83838972D01*
X144396895Y-83077068D02*
X144396895Y-82886591D01*
X144396895Y-82886591D02*
X144244514Y-82886591D01*
X144244514Y-82886591D02*
X144206419Y-82962782D01*
X144206419Y-82962782D02*
X144130228Y-83038972D01*
X144130228Y-83038972D02*
X144015942Y-83077068D01*
X144015942Y-83077068D02*
X143825466Y-83077068D01*
X143825466Y-83077068D02*
X143711180Y-83038972D01*
X143711180Y-83038972D02*
X143634990Y-82962782D01*
X143634990Y-82962782D02*
X143596895Y-82848496D01*
X143596895Y-82848496D02*
X143596895Y-82696115D01*
X143596895Y-82696115D02*
X143634990Y-82581829D01*
X143634990Y-82581829D02*
X143711180Y-82505639D01*
X143711180Y-82505639D02*
X143825466Y-82467544D01*
X143825466Y-82467544D02*
X144015942Y-82467544D01*
X144015942Y-82467544D02*
X144130228Y-82505639D01*
X144130228Y-82505639D02*
X144206419Y-82581829D01*
X144206419Y-82581829D02*
X144244514Y-82658020D01*
X144244514Y-82658020D02*
X144396895Y-82658020D01*
X144396895Y-82658020D02*
X144396895Y-82467544D01*
X145573815Y-80004301D02*
X145573815Y-80461444D01*
X145573815Y-80232872D02*
X144773815Y-80232872D01*
X144773815Y-80232872D02*
X144888100Y-80309063D01*
X144888100Y-80309063D02*
X144964291Y-80385253D01*
X144964291Y-80385253D02*
X145002386Y-80461444D01*
X145040481Y-79318586D02*
X145573815Y-79318586D01*
X145040481Y-79661443D02*
X145459529Y-79661443D01*
X145459529Y-79661443D02*
X145535720Y-79623348D01*
X145535720Y-79623348D02*
X145573815Y-79547158D01*
X145573815Y-79547158D02*
X145573815Y-79432872D01*
X145573815Y-79432872D02*
X145535720Y-79356681D01*
X145535720Y-79356681D02*
X145497624Y-79318586D01*
X145154767Y-78670967D02*
X145154767Y-78937633D01*
X145573815Y-78937633D02*
X144773815Y-78937633D01*
X144773815Y-78937633D02*
X144773815Y-78556681D01*
X146596895Y-85362782D02*
X146596895Y-85743734D01*
X146596895Y-85743734D02*
X146977847Y-85781830D01*
X146977847Y-85781830D02*
X146939752Y-85743734D01*
X146939752Y-85743734D02*
X146901657Y-85667544D01*
X146901657Y-85667544D02*
X146901657Y-85477068D01*
X146901657Y-85477068D02*
X146939752Y-85400877D01*
X146939752Y-85400877D02*
X146977847Y-85362782D01*
X146977847Y-85362782D02*
X147054038Y-85324687D01*
X147054038Y-85324687D02*
X147244514Y-85324687D01*
X147244514Y-85324687D02*
X147320704Y-85362782D01*
X147320704Y-85362782D02*
X147358800Y-85400877D01*
X147358800Y-85400877D02*
X147396895Y-85477068D01*
X147396895Y-85477068D02*
X147396895Y-85667544D01*
X147396895Y-85667544D02*
X147358800Y-85743734D01*
X147358800Y-85743734D02*
X147320704Y-85781830D01*
X147320704Y-84981829D02*
X147358800Y-84943734D01*
X147358800Y-84943734D02*
X147396895Y-84981829D01*
X147396895Y-84981829D02*
X147358800Y-85019925D01*
X147358800Y-85019925D02*
X147320704Y-84981829D01*
X147320704Y-84981829D02*
X147396895Y-84981829D01*
X147396895Y-84181830D02*
X147396895Y-84638973D01*
X147396895Y-84410401D02*
X146596895Y-84410401D01*
X146596895Y-84410401D02*
X146711180Y-84486592D01*
X146711180Y-84486592D02*
X146787371Y-84562782D01*
X146787371Y-84562782D02*
X146825466Y-84638973D01*
X147396895Y-83838972D02*
X146596895Y-83838972D01*
X147396895Y-83381829D02*
X146939752Y-83724687D01*
X146596895Y-83381829D02*
X147054038Y-83838972D01*
X147396895Y-83077068D02*
X147396895Y-82886591D01*
X147396895Y-82886591D02*
X147244514Y-82886591D01*
X147244514Y-82886591D02*
X147206419Y-82962782D01*
X147206419Y-82962782D02*
X147130228Y-83038972D01*
X147130228Y-83038972D02*
X147015942Y-83077068D01*
X147015942Y-83077068D02*
X146825466Y-83077068D01*
X146825466Y-83077068D02*
X146711180Y-83038972D01*
X146711180Y-83038972D02*
X146634990Y-82962782D01*
X146634990Y-82962782D02*
X146596895Y-82848496D01*
X146596895Y-82848496D02*
X146596895Y-82696115D01*
X146596895Y-82696115D02*
X146634990Y-82581829D01*
X146634990Y-82581829D02*
X146711180Y-82505639D01*
X146711180Y-82505639D02*
X146825466Y-82467544D01*
X146825466Y-82467544D02*
X147015942Y-82467544D01*
X147015942Y-82467544D02*
X147130228Y-82505639D01*
X147130228Y-82505639D02*
X147206419Y-82581829D01*
X147206419Y-82581829D02*
X147244514Y-82658020D01*
X147244514Y-82658020D02*
X147396895Y-82658020D01*
X147396895Y-82658020D02*
X147396895Y-82467544D01*
X148296895Y-80324687D02*
X148296895Y-80781830D01*
X148296895Y-80553258D02*
X147496895Y-80553258D01*
X147496895Y-80553258D02*
X147611180Y-80629449D01*
X147611180Y-80629449D02*
X147687371Y-80705639D01*
X147687371Y-80705639D02*
X147725466Y-80781830D01*
X147496895Y-79829448D02*
X147496895Y-79753258D01*
X147496895Y-79753258D02*
X147534990Y-79677067D01*
X147534990Y-79677067D02*
X147573085Y-79638972D01*
X147573085Y-79638972D02*
X147649276Y-79600877D01*
X147649276Y-79600877D02*
X147801657Y-79562782D01*
X147801657Y-79562782D02*
X147992133Y-79562782D01*
X147992133Y-79562782D02*
X148144514Y-79600877D01*
X148144514Y-79600877D02*
X148220704Y-79638972D01*
X148220704Y-79638972D02*
X148258800Y-79677067D01*
X148258800Y-79677067D02*
X148296895Y-79753258D01*
X148296895Y-79753258D02*
X148296895Y-79829448D01*
X148296895Y-79829448D02*
X148258800Y-79905639D01*
X148258800Y-79905639D02*
X148220704Y-79943734D01*
X148220704Y-79943734D02*
X148144514Y-79981829D01*
X148144514Y-79981829D02*
X147992133Y-80019925D01*
X147992133Y-80019925D02*
X147801657Y-80019925D01*
X147801657Y-80019925D02*
X147649276Y-79981829D01*
X147649276Y-79981829D02*
X147573085Y-79943734D01*
X147573085Y-79943734D02*
X147534990Y-79905639D01*
X147534990Y-79905639D02*
X147496895Y-79829448D01*
X148296895Y-79219924D02*
X147496895Y-79219924D01*
X148296895Y-78762781D02*
X147839752Y-79105639D01*
X147496895Y-78762781D02*
X147954038Y-79219924D01*
X148296895Y-78458020D02*
X148296895Y-78267543D01*
X148296895Y-78267543D02*
X148144514Y-78267543D01*
X148144514Y-78267543D02*
X148106419Y-78343734D01*
X148106419Y-78343734D02*
X148030228Y-78419924D01*
X148030228Y-78419924D02*
X147915942Y-78458020D01*
X147915942Y-78458020D02*
X147725466Y-78458020D01*
X147725466Y-78458020D02*
X147611180Y-78419924D01*
X147611180Y-78419924D02*
X147534990Y-78343734D01*
X147534990Y-78343734D02*
X147496895Y-78229448D01*
X147496895Y-78229448D02*
X147496895Y-78077067D01*
X147496895Y-78077067D02*
X147534990Y-77962781D01*
X147534990Y-77962781D02*
X147611180Y-77886591D01*
X147611180Y-77886591D02*
X147725466Y-77848496D01*
X147725466Y-77848496D02*
X147915942Y-77848496D01*
X147915942Y-77848496D02*
X148030228Y-77886591D01*
X148030228Y-77886591D02*
X148106419Y-77962781D01*
X148106419Y-77962781D02*
X148144514Y-78038972D01*
X148144514Y-78038972D02*
X148296895Y-78038972D01*
X148296895Y-78038972D02*
X148296895Y-77848496D01*
X148696895Y-52543734D02*
X149344514Y-52543734D01*
X149344514Y-52543734D02*
X149420704Y-52505639D01*
X149420704Y-52505639D02*
X149458800Y-52467544D01*
X149458800Y-52467544D02*
X149496895Y-52391353D01*
X149496895Y-52391353D02*
X149496895Y-52238972D01*
X149496895Y-52238972D02*
X149458800Y-52162782D01*
X149458800Y-52162782D02*
X149420704Y-52124687D01*
X149420704Y-52124687D02*
X149344514Y-52086591D01*
X149344514Y-52086591D02*
X148696895Y-52086591D01*
X149268323Y-51743735D02*
X149268323Y-51362782D01*
X149496895Y-51819925D02*
X148696895Y-51553258D01*
X148696895Y-51553258D02*
X149496895Y-51286592D01*
X149496895Y-50562782D02*
X149115942Y-50829449D01*
X149496895Y-51019925D02*
X148696895Y-51019925D01*
X148696895Y-51019925D02*
X148696895Y-50715163D01*
X148696895Y-50715163D02*
X148734990Y-50638973D01*
X148734990Y-50638973D02*
X148773085Y-50600878D01*
X148773085Y-50600878D02*
X148849276Y-50562782D01*
X148849276Y-50562782D02*
X148963561Y-50562782D01*
X148963561Y-50562782D02*
X149039752Y-50600878D01*
X149039752Y-50600878D02*
X149077847Y-50638973D01*
X149077847Y-50638973D02*
X149115942Y-50715163D01*
X149115942Y-50715163D02*
X149115942Y-51019925D01*
X148696895Y-50334211D02*
X148696895Y-49877068D01*
X149496895Y-50105640D02*
X148696895Y-50105640D01*
X149573085Y-49800878D02*
X149573085Y-49191354D01*
X149496895Y-49000877D02*
X148696895Y-49000877D01*
X148696895Y-49000877D02*
X148696895Y-48696115D01*
X148696895Y-48696115D02*
X148734990Y-48619925D01*
X148734990Y-48619925D02*
X148773085Y-48581830D01*
X148773085Y-48581830D02*
X148849276Y-48543734D01*
X148849276Y-48543734D02*
X148963561Y-48543734D01*
X148963561Y-48543734D02*
X149039752Y-48581830D01*
X149039752Y-48581830D02*
X149077847Y-48619925D01*
X149077847Y-48619925D02*
X149115942Y-48696115D01*
X149115942Y-48696115D02*
X149115942Y-49000877D01*
X149496895Y-47743734D02*
X149115942Y-48010401D01*
X149496895Y-48200877D02*
X148696895Y-48200877D01*
X148696895Y-48200877D02*
X148696895Y-47896115D01*
X148696895Y-47896115D02*
X148734990Y-47819925D01*
X148734990Y-47819925D02*
X148773085Y-47781830D01*
X148773085Y-47781830D02*
X148849276Y-47743734D01*
X148849276Y-47743734D02*
X148963561Y-47743734D01*
X148963561Y-47743734D02*
X149039752Y-47781830D01*
X149039752Y-47781830D02*
X149077847Y-47819925D01*
X149077847Y-47819925D02*
X149115942Y-47896115D01*
X149115942Y-47896115D02*
X149115942Y-48200877D01*
X148696895Y-47248496D02*
X148696895Y-47096115D01*
X148696895Y-47096115D02*
X148734990Y-47019925D01*
X148734990Y-47019925D02*
X148811180Y-46943734D01*
X148811180Y-46943734D02*
X148963561Y-46905639D01*
X148963561Y-46905639D02*
X149230228Y-46905639D01*
X149230228Y-46905639D02*
X149382609Y-46943734D01*
X149382609Y-46943734D02*
X149458800Y-47019925D01*
X149458800Y-47019925D02*
X149496895Y-47096115D01*
X149496895Y-47096115D02*
X149496895Y-47248496D01*
X149496895Y-47248496D02*
X149458800Y-47324687D01*
X149458800Y-47324687D02*
X149382609Y-47400877D01*
X149382609Y-47400877D02*
X149230228Y-47438973D01*
X149230228Y-47438973D02*
X148963561Y-47438973D01*
X148963561Y-47438973D02*
X148811180Y-47400877D01*
X148811180Y-47400877D02*
X148734990Y-47324687D01*
X148734990Y-47324687D02*
X148696895Y-47248496D01*
X148734990Y-46143735D02*
X148696895Y-46219925D01*
X148696895Y-46219925D02*
X148696895Y-46334211D01*
X148696895Y-46334211D02*
X148734990Y-46448497D01*
X148734990Y-46448497D02*
X148811180Y-46524687D01*
X148811180Y-46524687D02*
X148887371Y-46562782D01*
X148887371Y-46562782D02*
X149039752Y-46600878D01*
X149039752Y-46600878D02*
X149154038Y-46600878D01*
X149154038Y-46600878D02*
X149306419Y-46562782D01*
X149306419Y-46562782D02*
X149382609Y-46524687D01*
X149382609Y-46524687D02*
X149458800Y-46448497D01*
X149458800Y-46448497D02*
X149496895Y-46334211D01*
X149496895Y-46334211D02*
X149496895Y-46258020D01*
X149496895Y-46258020D02*
X149458800Y-46143735D01*
X149458800Y-46143735D02*
X149420704Y-46105639D01*
X149420704Y-46105639D02*
X149154038Y-46105639D01*
X149154038Y-46105639D02*
X149154038Y-46258020D01*
X149496895Y-45305639D02*
X149115942Y-45572306D01*
X149496895Y-45762782D02*
X148696895Y-45762782D01*
X148696895Y-45762782D02*
X148696895Y-45458020D01*
X148696895Y-45458020D02*
X148734990Y-45381830D01*
X148734990Y-45381830D02*
X148773085Y-45343735D01*
X148773085Y-45343735D02*
X148849276Y-45305639D01*
X148849276Y-45305639D02*
X148963561Y-45305639D01*
X148963561Y-45305639D02*
X149039752Y-45343735D01*
X149039752Y-45343735D02*
X149077847Y-45381830D01*
X149077847Y-45381830D02*
X149115942Y-45458020D01*
X149115942Y-45458020D02*
X149115942Y-45762782D01*
X149268323Y-45000878D02*
X149268323Y-44619925D01*
X149496895Y-45077068D02*
X148696895Y-44810401D01*
X148696895Y-44810401D02*
X149496895Y-44543735D01*
X149496895Y-44277068D02*
X148696895Y-44277068D01*
X148696895Y-44277068D02*
X149268323Y-44010402D01*
X149268323Y-44010402D02*
X148696895Y-43743735D01*
X148696895Y-43743735D02*
X149496895Y-43743735D01*
X149496895Y-43362782D02*
X148696895Y-43362782D01*
X148696895Y-43362782D02*
X149268323Y-43096116D01*
X149268323Y-43096116D02*
X148696895Y-42829449D01*
X148696895Y-42829449D02*
X149496895Y-42829449D01*
X149268323Y-42486592D02*
X149268323Y-42105639D01*
X149496895Y-42562782D02*
X148696895Y-42296115D01*
X148696895Y-42296115D02*
X149496895Y-42029449D01*
X149077847Y-41496116D02*
X149115942Y-41381830D01*
X149115942Y-41381830D02*
X149154038Y-41343735D01*
X149154038Y-41343735D02*
X149230228Y-41305639D01*
X149230228Y-41305639D02*
X149344514Y-41305639D01*
X149344514Y-41305639D02*
X149420704Y-41343735D01*
X149420704Y-41343735D02*
X149458800Y-41381830D01*
X149458800Y-41381830D02*
X149496895Y-41458020D01*
X149496895Y-41458020D02*
X149496895Y-41762782D01*
X149496895Y-41762782D02*
X148696895Y-41762782D01*
X148696895Y-41762782D02*
X148696895Y-41496116D01*
X148696895Y-41496116D02*
X148734990Y-41419925D01*
X148734990Y-41419925D02*
X148773085Y-41381830D01*
X148773085Y-41381830D02*
X148849276Y-41343735D01*
X148849276Y-41343735D02*
X148925466Y-41343735D01*
X148925466Y-41343735D02*
X149001657Y-41381830D01*
X149001657Y-41381830D02*
X149039752Y-41419925D01*
X149039752Y-41419925D02*
X149077847Y-41496116D01*
X149077847Y-41496116D02*
X149077847Y-41762782D01*
X149496895Y-40581830D02*
X149496895Y-40962782D01*
X149496895Y-40962782D02*
X148696895Y-40962782D01*
X149077847Y-40315163D02*
X149077847Y-40048497D01*
X149496895Y-39934211D02*
X149496895Y-40315163D01*
X149496895Y-40315163D02*
X148696895Y-40315163D01*
X148696895Y-40315163D02*
X148696895Y-39934211D01*
X149896895Y-63824687D02*
X149896895Y-64281830D01*
X149896895Y-64053258D02*
X149096895Y-64053258D01*
X149096895Y-64053258D02*
X149211180Y-64129449D01*
X149211180Y-64129449D02*
X149287371Y-64205639D01*
X149287371Y-64205639D02*
X149325466Y-64281830D01*
X149363561Y-63138972D02*
X149896895Y-63138972D01*
X149363561Y-63481829D02*
X149782609Y-63481829D01*
X149782609Y-63481829D02*
X149858800Y-63443734D01*
X149858800Y-63443734D02*
X149896895Y-63367544D01*
X149896895Y-63367544D02*
X149896895Y-63253258D01*
X149896895Y-63253258D02*
X149858800Y-63177067D01*
X149858800Y-63177067D02*
X149820704Y-63138972D01*
X149477847Y-62491353D02*
X149477847Y-62758019D01*
X149896895Y-62758019D02*
X149096895Y-62758019D01*
X149096895Y-62758019D02*
X149096895Y-62377067D01*
X149896895Y-67524687D02*
X149896895Y-67981830D01*
X149896895Y-67753258D02*
X149096895Y-67753258D01*
X149096895Y-67753258D02*
X149211180Y-67829449D01*
X149211180Y-67829449D02*
X149287371Y-67905639D01*
X149287371Y-67905639D02*
X149325466Y-67981830D01*
X149096895Y-67029448D02*
X149096895Y-66953258D01*
X149096895Y-66953258D02*
X149134990Y-66877067D01*
X149134990Y-66877067D02*
X149173085Y-66838972D01*
X149173085Y-66838972D02*
X149249276Y-66800877D01*
X149249276Y-66800877D02*
X149401657Y-66762782D01*
X149401657Y-66762782D02*
X149592133Y-66762782D01*
X149592133Y-66762782D02*
X149744514Y-66800877D01*
X149744514Y-66800877D02*
X149820704Y-66838972D01*
X149820704Y-66838972D02*
X149858800Y-66877067D01*
X149858800Y-66877067D02*
X149896895Y-66953258D01*
X149896895Y-66953258D02*
X149896895Y-67029448D01*
X149896895Y-67029448D02*
X149858800Y-67105639D01*
X149858800Y-67105639D02*
X149820704Y-67143734D01*
X149820704Y-67143734D02*
X149744514Y-67181829D01*
X149744514Y-67181829D02*
X149592133Y-67219925D01*
X149592133Y-67219925D02*
X149401657Y-67219925D01*
X149401657Y-67219925D02*
X149249276Y-67181829D01*
X149249276Y-67181829D02*
X149173085Y-67143734D01*
X149173085Y-67143734D02*
X149134990Y-67105639D01*
X149134990Y-67105639D02*
X149096895Y-67029448D01*
X149363561Y-66077067D02*
X149896895Y-66077067D01*
X149363561Y-66419924D02*
X149782609Y-66419924D01*
X149782609Y-66419924D02*
X149858800Y-66381829D01*
X149858800Y-66381829D02*
X149896895Y-66305639D01*
X149896895Y-66305639D02*
X149896895Y-66191353D01*
X149896895Y-66191353D02*
X149858800Y-66115162D01*
X149858800Y-66115162D02*
X149820704Y-66077067D01*
X149477847Y-65429448D02*
X149477847Y-65696114D01*
X149896895Y-65696114D02*
X149096895Y-65696114D01*
X149096895Y-65696114D02*
X149096895Y-65315162D01*
X150396895Y-60324687D02*
X150396895Y-60781830D01*
X150396895Y-60553258D02*
X149596895Y-60553258D01*
X149596895Y-60553258D02*
X149711180Y-60629449D01*
X149711180Y-60629449D02*
X149787371Y-60705639D01*
X149787371Y-60705639D02*
X149825466Y-60781830D01*
X149596895Y-59829448D02*
X149596895Y-59753258D01*
X149596895Y-59753258D02*
X149634990Y-59677067D01*
X149634990Y-59677067D02*
X149673085Y-59638972D01*
X149673085Y-59638972D02*
X149749276Y-59600877D01*
X149749276Y-59600877D02*
X149901657Y-59562782D01*
X149901657Y-59562782D02*
X150092133Y-59562782D01*
X150092133Y-59562782D02*
X150244514Y-59600877D01*
X150244514Y-59600877D02*
X150320704Y-59638972D01*
X150320704Y-59638972D02*
X150358800Y-59677067D01*
X150358800Y-59677067D02*
X150396895Y-59753258D01*
X150396895Y-59753258D02*
X150396895Y-59829448D01*
X150396895Y-59829448D02*
X150358800Y-59905639D01*
X150358800Y-59905639D02*
X150320704Y-59943734D01*
X150320704Y-59943734D02*
X150244514Y-59981829D01*
X150244514Y-59981829D02*
X150092133Y-60019925D01*
X150092133Y-60019925D02*
X149901657Y-60019925D01*
X149901657Y-60019925D02*
X149749276Y-59981829D01*
X149749276Y-59981829D02*
X149673085Y-59943734D01*
X149673085Y-59943734D02*
X149634990Y-59905639D01*
X149634990Y-59905639D02*
X149596895Y-59829448D01*
X149863561Y-58877067D02*
X150396895Y-58877067D01*
X149863561Y-59219924D02*
X150282609Y-59219924D01*
X150282609Y-59219924D02*
X150358800Y-59181829D01*
X150358800Y-59181829D02*
X150396895Y-59105639D01*
X150396895Y-59105639D02*
X150396895Y-58991353D01*
X150396895Y-58991353D02*
X150358800Y-58915162D01*
X150358800Y-58915162D02*
X150320704Y-58877067D01*
X149977847Y-58229448D02*
X149977847Y-58496114D01*
X150396895Y-58496114D02*
X149596895Y-58496114D01*
X149596895Y-58496114D02*
X149596895Y-58115162D01*
X150396895Y-71824687D02*
X150396895Y-72281830D01*
X150396895Y-72053258D02*
X149596895Y-72053258D01*
X149596895Y-72053258D02*
X149711180Y-72129449D01*
X149711180Y-72129449D02*
X149787371Y-72205639D01*
X149787371Y-72205639D02*
X149825466Y-72281830D01*
X149863561Y-71138972D02*
X150396895Y-71138972D01*
X149863561Y-71481829D02*
X150282609Y-71481829D01*
X150282609Y-71481829D02*
X150358800Y-71443734D01*
X150358800Y-71443734D02*
X150396895Y-71367544D01*
X150396895Y-71367544D02*
X150396895Y-71253258D01*
X150396895Y-71253258D02*
X150358800Y-71177067D01*
X150358800Y-71177067D02*
X150320704Y-71138972D01*
X149977847Y-70491353D02*
X149977847Y-70758019D01*
X150396895Y-70758019D02*
X149596895Y-70758019D01*
X149596895Y-70758019D02*
X149596895Y-70377067D01*
X153734990Y-42524687D02*
X153696895Y-42600877D01*
X153696895Y-42600877D02*
X153696895Y-42715163D01*
X153696895Y-42715163D02*
X153734990Y-42829449D01*
X153734990Y-42829449D02*
X153811180Y-42905639D01*
X153811180Y-42905639D02*
X153887371Y-42943734D01*
X153887371Y-42943734D02*
X154039752Y-42981830D01*
X154039752Y-42981830D02*
X154154038Y-42981830D01*
X154154038Y-42981830D02*
X154306419Y-42943734D01*
X154306419Y-42943734D02*
X154382609Y-42905639D01*
X154382609Y-42905639D02*
X154458800Y-42829449D01*
X154458800Y-42829449D02*
X154496895Y-42715163D01*
X154496895Y-42715163D02*
X154496895Y-42638972D01*
X154496895Y-42638972D02*
X154458800Y-42524687D01*
X154458800Y-42524687D02*
X154420704Y-42486591D01*
X154420704Y-42486591D02*
X154154038Y-42486591D01*
X154154038Y-42486591D02*
X154154038Y-42638972D01*
X154496895Y-42143734D02*
X153696895Y-42143734D01*
X153696895Y-42143734D02*
X154496895Y-41686591D01*
X154496895Y-41686591D02*
X153696895Y-41686591D01*
X154496895Y-41305639D02*
X153696895Y-41305639D01*
X153696895Y-41305639D02*
X153696895Y-41115163D01*
X153696895Y-41115163D02*
X153734990Y-41000877D01*
X153734990Y-41000877D02*
X153811180Y-40924687D01*
X153811180Y-40924687D02*
X153887371Y-40886592D01*
X153887371Y-40886592D02*
X154039752Y-40848496D01*
X154039752Y-40848496D02*
X154154038Y-40848496D01*
X154154038Y-40848496D02*
X154306419Y-40886592D01*
X154306419Y-40886592D02*
X154382609Y-40924687D01*
X154382609Y-40924687D02*
X154458800Y-41000877D01*
X154458800Y-41000877D02*
X154496895Y-41115163D01*
X154496895Y-41115163D02*
X154496895Y-41305639D01*
X154496895Y-44886591D02*
X154115942Y-45153258D01*
X154496895Y-45343734D02*
X153696895Y-45343734D01*
X153696895Y-45343734D02*
X153696895Y-45038972D01*
X153696895Y-45038972D02*
X153734990Y-44962782D01*
X153734990Y-44962782D02*
X153773085Y-44924687D01*
X153773085Y-44924687D02*
X153849276Y-44886591D01*
X153849276Y-44886591D02*
X153963561Y-44886591D01*
X153963561Y-44886591D02*
X154039752Y-44924687D01*
X154039752Y-44924687D02*
X154077847Y-44962782D01*
X154077847Y-44962782D02*
X154115942Y-45038972D01*
X154115942Y-45038972D02*
X154115942Y-45343734D01*
X153696895Y-44619925D02*
X154496895Y-44086591D01*
X153696895Y-44086591D02*
X154496895Y-44619925D01*
X153696895Y-47658020D02*
X153696895Y-47200877D01*
X154496895Y-47429449D02*
X153696895Y-47429449D01*
X153696895Y-47010401D02*
X154496895Y-46477067D01*
X153696895Y-46477067D02*
X154496895Y-47010401D01*
X153696895Y-49562782D02*
X153696895Y-49943734D01*
X153696895Y-49943734D02*
X154077847Y-49981830D01*
X154077847Y-49981830D02*
X154039752Y-49943734D01*
X154039752Y-49943734D02*
X154001657Y-49867544D01*
X154001657Y-49867544D02*
X154001657Y-49677068D01*
X154001657Y-49677068D02*
X154039752Y-49600877D01*
X154039752Y-49600877D02*
X154077847Y-49562782D01*
X154077847Y-49562782D02*
X154154038Y-49524687D01*
X154154038Y-49524687D02*
X154344514Y-49524687D01*
X154344514Y-49524687D02*
X154420704Y-49562782D01*
X154420704Y-49562782D02*
X154458800Y-49600877D01*
X154458800Y-49600877D02*
X154496895Y-49677068D01*
X154496895Y-49677068D02*
X154496895Y-49867544D01*
X154496895Y-49867544D02*
X154458800Y-49943734D01*
X154458800Y-49943734D02*
X154420704Y-49981830D01*
X153696895Y-49296115D02*
X154496895Y-49029448D01*
X154496895Y-49029448D02*
X153696895Y-48762782D01*
X154077847Y-52543734D02*
X154077847Y-52277068D01*
X154496895Y-52162782D02*
X154496895Y-52543734D01*
X154496895Y-52543734D02*
X153696895Y-52543734D01*
X153696895Y-52543734D02*
X153696895Y-52162782D01*
X154496895Y-51819924D02*
X153696895Y-51819924D01*
X153696895Y-51819924D02*
X154496895Y-51362781D01*
X154496895Y-51362781D02*
X153696895Y-51362781D01*
X154077847Y-55877068D02*
X154115942Y-55762782D01*
X154115942Y-55762782D02*
X154154038Y-55724687D01*
X154154038Y-55724687D02*
X154230228Y-55686591D01*
X154230228Y-55686591D02*
X154344514Y-55686591D01*
X154344514Y-55686591D02*
X154420704Y-55724687D01*
X154420704Y-55724687D02*
X154458800Y-55762782D01*
X154458800Y-55762782D02*
X154496895Y-55838972D01*
X154496895Y-55838972D02*
X154496895Y-56143734D01*
X154496895Y-56143734D02*
X153696895Y-56143734D01*
X153696895Y-56143734D02*
X153696895Y-55877068D01*
X153696895Y-55877068D02*
X153734990Y-55800877D01*
X153734990Y-55800877D02*
X153773085Y-55762782D01*
X153773085Y-55762782D02*
X153849276Y-55724687D01*
X153849276Y-55724687D02*
X153925466Y-55724687D01*
X153925466Y-55724687D02*
X154001657Y-55762782D01*
X154001657Y-55762782D02*
X154039752Y-55800877D01*
X154039752Y-55800877D02*
X154077847Y-55877068D01*
X154077847Y-55877068D02*
X154077847Y-56143734D01*
X153696895Y-55191353D02*
X153696895Y-55038972D01*
X153696895Y-55038972D02*
X153734990Y-54962782D01*
X153734990Y-54962782D02*
X153811180Y-54886591D01*
X153811180Y-54886591D02*
X153963561Y-54848496D01*
X153963561Y-54848496D02*
X154230228Y-54848496D01*
X154230228Y-54848496D02*
X154382609Y-54886591D01*
X154382609Y-54886591D02*
X154458800Y-54962782D01*
X154458800Y-54962782D02*
X154496895Y-55038972D01*
X154496895Y-55038972D02*
X154496895Y-55191353D01*
X154496895Y-55191353D02*
X154458800Y-55267544D01*
X154458800Y-55267544D02*
X154382609Y-55343734D01*
X154382609Y-55343734D02*
X154230228Y-55381830D01*
X154230228Y-55381830D02*
X153963561Y-55381830D01*
X153963561Y-55381830D02*
X153811180Y-55343734D01*
X153811180Y-55343734D02*
X153734990Y-55267544D01*
X153734990Y-55267544D02*
X153696895Y-55191353D01*
X153696895Y-54353258D02*
X153696895Y-54200877D01*
X153696895Y-54200877D02*
X153734990Y-54124687D01*
X153734990Y-54124687D02*
X153811180Y-54048496D01*
X153811180Y-54048496D02*
X153963561Y-54010401D01*
X153963561Y-54010401D02*
X154230228Y-54010401D01*
X154230228Y-54010401D02*
X154382609Y-54048496D01*
X154382609Y-54048496D02*
X154458800Y-54124687D01*
X154458800Y-54124687D02*
X154496895Y-54200877D01*
X154496895Y-54200877D02*
X154496895Y-54353258D01*
X154496895Y-54353258D02*
X154458800Y-54429449D01*
X154458800Y-54429449D02*
X154382609Y-54505639D01*
X154382609Y-54505639D02*
X154230228Y-54543735D01*
X154230228Y-54543735D02*
X153963561Y-54543735D01*
X153963561Y-54543735D02*
X153811180Y-54505639D01*
X153811180Y-54505639D02*
X153734990Y-54429449D01*
X153734990Y-54429449D02*
X153696895Y-54353258D01*
X153696895Y-53781830D02*
X153696895Y-53324687D01*
X154496895Y-53553259D02*
X153696895Y-53553259D01*
X159696895Y-50343734D02*
X158896895Y-50343734D01*
X158896895Y-49810401D02*
X158896895Y-49658020D01*
X158896895Y-49658020D02*
X158934990Y-49581830D01*
X158934990Y-49581830D02*
X159011180Y-49505639D01*
X159011180Y-49505639D02*
X159163561Y-49467544D01*
X159163561Y-49467544D02*
X159430228Y-49467544D01*
X159430228Y-49467544D02*
X159582609Y-49505639D01*
X159582609Y-49505639D02*
X159658800Y-49581830D01*
X159658800Y-49581830D02*
X159696895Y-49658020D01*
X159696895Y-49658020D02*
X159696895Y-49810401D01*
X159696895Y-49810401D02*
X159658800Y-49886592D01*
X159658800Y-49886592D02*
X159582609Y-49962782D01*
X159582609Y-49962782D02*
X159430228Y-50000878D01*
X159430228Y-50000878D02*
X159163561Y-50000878D01*
X159163561Y-50000878D02*
X159011180Y-49962782D01*
X159011180Y-49962782D02*
X158934990Y-49886592D01*
X158934990Y-49886592D02*
X158896895Y-49810401D01*
X158896895Y-48972306D02*
X158896895Y-48896116D01*
X158896895Y-48896116D02*
X158934990Y-48819925D01*
X158934990Y-48819925D02*
X158973085Y-48781830D01*
X158973085Y-48781830D02*
X159049276Y-48743735D01*
X159049276Y-48743735D02*
X159201657Y-48705640D01*
X159201657Y-48705640D02*
X159392133Y-48705640D01*
X159392133Y-48705640D02*
X159544514Y-48743735D01*
X159544514Y-48743735D02*
X159620704Y-48781830D01*
X159620704Y-48781830D02*
X159658800Y-48819925D01*
X159658800Y-48819925D02*
X159696895Y-48896116D01*
X159696895Y-48896116D02*
X159696895Y-48972306D01*
X159696895Y-48972306D02*
X159658800Y-49048497D01*
X159658800Y-49048497D02*
X159620704Y-49086592D01*
X159620704Y-49086592D02*
X159544514Y-49124687D01*
X159544514Y-49124687D02*
X159392133Y-49162783D01*
X159392133Y-49162783D02*
X159201657Y-49162783D01*
X159201657Y-49162783D02*
X159049276Y-49124687D01*
X159049276Y-49124687D02*
X158973085Y-49086592D01*
X158973085Y-49086592D02*
X158934990Y-49048497D01*
X158934990Y-49048497D02*
X158896895Y-48972306D01*
X159696895Y-52743734D02*
X158896895Y-52743734D01*
X158896895Y-52210401D02*
X158896895Y-52058020D01*
X158896895Y-52058020D02*
X158934990Y-51981830D01*
X158934990Y-51981830D02*
X159011180Y-51905639D01*
X159011180Y-51905639D02*
X159163561Y-51867544D01*
X159163561Y-51867544D02*
X159430228Y-51867544D01*
X159430228Y-51867544D02*
X159582609Y-51905639D01*
X159582609Y-51905639D02*
X159658800Y-51981830D01*
X159658800Y-51981830D02*
X159696895Y-52058020D01*
X159696895Y-52058020D02*
X159696895Y-52210401D01*
X159696895Y-52210401D02*
X159658800Y-52286592D01*
X159658800Y-52286592D02*
X159582609Y-52362782D01*
X159582609Y-52362782D02*
X159430228Y-52400878D01*
X159430228Y-52400878D02*
X159163561Y-52400878D01*
X159163561Y-52400878D02*
X159011180Y-52362782D01*
X159011180Y-52362782D02*
X158934990Y-52286592D01*
X158934990Y-52286592D02*
X158896895Y-52210401D01*
X159696895Y-51105640D02*
X159696895Y-51562783D01*
X159696895Y-51334211D02*
X158896895Y-51334211D01*
X158896895Y-51334211D02*
X159011180Y-51410402D01*
X159011180Y-51410402D02*
X159087371Y-51486592D01*
X159087371Y-51486592D02*
X159125466Y-51562783D01*
X159696895Y-56143734D02*
X158896895Y-56143734D01*
X158896895Y-55610401D02*
X158896895Y-55458020D01*
X158896895Y-55458020D02*
X158934990Y-55381830D01*
X158934990Y-55381830D02*
X159011180Y-55305639D01*
X159011180Y-55305639D02*
X159163561Y-55267544D01*
X159163561Y-55267544D02*
X159430228Y-55267544D01*
X159430228Y-55267544D02*
X159582609Y-55305639D01*
X159582609Y-55305639D02*
X159658800Y-55381830D01*
X159658800Y-55381830D02*
X159696895Y-55458020D01*
X159696895Y-55458020D02*
X159696895Y-55610401D01*
X159696895Y-55610401D02*
X159658800Y-55686592D01*
X159658800Y-55686592D02*
X159582609Y-55762782D01*
X159582609Y-55762782D02*
X159430228Y-55800878D01*
X159430228Y-55800878D02*
X159163561Y-55800878D01*
X159163561Y-55800878D02*
X159011180Y-55762782D01*
X159011180Y-55762782D02*
X158934990Y-55686592D01*
X158934990Y-55686592D02*
X158896895Y-55610401D01*
X159696895Y-54505640D02*
X159696895Y-54962783D01*
X159696895Y-54734211D02*
X158896895Y-54734211D01*
X158896895Y-54734211D02*
X159011180Y-54810402D01*
X159011180Y-54810402D02*
X159087371Y-54886592D01*
X159087371Y-54886592D02*
X159125466Y-54962783D01*
X158896895Y-54010401D02*
X158896895Y-53934211D01*
X158896895Y-53934211D02*
X158934990Y-53858020D01*
X158934990Y-53858020D02*
X158973085Y-53819925D01*
X158973085Y-53819925D02*
X159049276Y-53781830D01*
X159049276Y-53781830D02*
X159201657Y-53743735D01*
X159201657Y-53743735D02*
X159392133Y-53743735D01*
X159392133Y-53743735D02*
X159544514Y-53781830D01*
X159544514Y-53781830D02*
X159620704Y-53819925D01*
X159620704Y-53819925D02*
X159658800Y-53858020D01*
X159658800Y-53858020D02*
X159696895Y-53934211D01*
X159696895Y-53934211D02*
X159696895Y-54010401D01*
X159696895Y-54010401D02*
X159658800Y-54086592D01*
X159658800Y-54086592D02*
X159620704Y-54124687D01*
X159620704Y-54124687D02*
X159544514Y-54162782D01*
X159544514Y-54162782D02*
X159392133Y-54200878D01*
X159392133Y-54200878D02*
X159201657Y-54200878D01*
X159201657Y-54200878D02*
X159049276Y-54162782D01*
X159049276Y-54162782D02*
X158973085Y-54124687D01*
X158973085Y-54124687D02*
X158934990Y-54086592D01*
X158934990Y-54086592D02*
X158896895Y-54010401D01*
X167977847Y-56477068D02*
X168015942Y-56362782D01*
X168015942Y-56362782D02*
X168054038Y-56324687D01*
X168054038Y-56324687D02*
X168130228Y-56286591D01*
X168130228Y-56286591D02*
X168244514Y-56286591D01*
X168244514Y-56286591D02*
X168320704Y-56324687D01*
X168320704Y-56324687D02*
X168358800Y-56362782D01*
X168358800Y-56362782D02*
X168396895Y-56438972D01*
X168396895Y-56438972D02*
X168396895Y-56743734D01*
X168396895Y-56743734D02*
X167596895Y-56743734D01*
X167596895Y-56743734D02*
X167596895Y-56477068D01*
X167596895Y-56477068D02*
X167634990Y-56400877D01*
X167634990Y-56400877D02*
X167673085Y-56362782D01*
X167673085Y-56362782D02*
X167749276Y-56324687D01*
X167749276Y-56324687D02*
X167825466Y-56324687D01*
X167825466Y-56324687D02*
X167901657Y-56362782D01*
X167901657Y-56362782D02*
X167939752Y-56400877D01*
X167939752Y-56400877D02*
X167977847Y-56477068D01*
X167977847Y-56477068D02*
X167977847Y-56743734D01*
X167673085Y-55981830D02*
X167634990Y-55943734D01*
X167634990Y-55943734D02*
X167596895Y-55867544D01*
X167596895Y-55867544D02*
X167596895Y-55677068D01*
X167596895Y-55677068D02*
X167634990Y-55600877D01*
X167634990Y-55600877D02*
X167673085Y-55562782D01*
X167673085Y-55562782D02*
X167749276Y-55524687D01*
X167749276Y-55524687D02*
X167825466Y-55524687D01*
X167825466Y-55524687D02*
X167939752Y-55562782D01*
X167939752Y-55562782D02*
X168396895Y-56019925D01*
X168396895Y-56019925D02*
X168396895Y-55524687D01*
X168473085Y-55372306D02*
X168473085Y-54762782D01*
X168396895Y-54572305D02*
X167596895Y-54572305D01*
X167596895Y-54572305D02*
X168396895Y-54115162D01*
X168396895Y-54115162D02*
X167596895Y-54115162D01*
X167977847Y-53734210D02*
X167977847Y-53467544D01*
X168396895Y-53353258D02*
X168396895Y-53734210D01*
X168396895Y-53734210D02*
X167596895Y-53734210D01*
X167596895Y-53734210D02*
X167596895Y-53353258D01*
X167596895Y-53124686D02*
X167596895Y-52667543D01*
X168396895Y-52896115D02*
X167596895Y-52896115D01*
X167558800Y-51829448D02*
X168587371Y-52515162D01*
X167977847Y-51296115D02*
X168015942Y-51181829D01*
X168015942Y-51181829D02*
X168054038Y-51143734D01*
X168054038Y-51143734D02*
X168130228Y-51105638D01*
X168130228Y-51105638D02*
X168244514Y-51105638D01*
X168244514Y-51105638D02*
X168320704Y-51143734D01*
X168320704Y-51143734D02*
X168358800Y-51181829D01*
X168358800Y-51181829D02*
X168396895Y-51258019D01*
X168396895Y-51258019D02*
X168396895Y-51562781D01*
X168396895Y-51562781D02*
X167596895Y-51562781D01*
X167596895Y-51562781D02*
X167596895Y-51296115D01*
X167596895Y-51296115D02*
X167634990Y-51219924D01*
X167634990Y-51219924D02*
X167673085Y-51181829D01*
X167673085Y-51181829D02*
X167749276Y-51143734D01*
X167749276Y-51143734D02*
X167825466Y-51143734D01*
X167825466Y-51143734D02*
X167901657Y-51181829D01*
X167901657Y-51181829D02*
X167939752Y-51219924D01*
X167939752Y-51219924D02*
X167977847Y-51296115D01*
X167977847Y-51296115D02*
X167977847Y-51562781D01*
X167673085Y-50800877D02*
X167634990Y-50762781D01*
X167634990Y-50762781D02*
X167596895Y-50686591D01*
X167596895Y-50686591D02*
X167596895Y-50496115D01*
X167596895Y-50496115D02*
X167634990Y-50419924D01*
X167634990Y-50419924D02*
X167673085Y-50381829D01*
X167673085Y-50381829D02*
X167749276Y-50343734D01*
X167749276Y-50343734D02*
X167825466Y-50343734D01*
X167825466Y-50343734D02*
X167939752Y-50381829D01*
X167939752Y-50381829D02*
X168396895Y-50838972D01*
X168396895Y-50838972D02*
X168396895Y-50343734D01*
X168473085Y-50191353D02*
X168473085Y-49581829D01*
X167596895Y-49238971D02*
X167596895Y-49086590D01*
X167596895Y-49086590D02*
X167634990Y-49010400D01*
X167634990Y-49010400D02*
X167711180Y-48934209D01*
X167711180Y-48934209D02*
X167863561Y-48896114D01*
X167863561Y-48896114D02*
X168130228Y-48896114D01*
X168130228Y-48896114D02*
X168282609Y-48934209D01*
X168282609Y-48934209D02*
X168358800Y-49010400D01*
X168358800Y-49010400D02*
X168396895Y-49086590D01*
X168396895Y-49086590D02*
X168396895Y-49238971D01*
X168396895Y-49238971D02*
X168358800Y-49315162D01*
X168358800Y-49315162D02*
X168282609Y-49391352D01*
X168282609Y-49391352D02*
X168130228Y-49429448D01*
X168130228Y-49429448D02*
X167863561Y-49429448D01*
X167863561Y-49429448D02*
X167711180Y-49391352D01*
X167711180Y-49391352D02*
X167634990Y-49315162D01*
X167634990Y-49315162D02*
X167596895Y-49238971D01*
X167596895Y-48553257D02*
X168244514Y-48553257D01*
X168244514Y-48553257D02*
X168320704Y-48515162D01*
X168320704Y-48515162D02*
X168358800Y-48477067D01*
X168358800Y-48477067D02*
X168396895Y-48400876D01*
X168396895Y-48400876D02*
X168396895Y-48248495D01*
X168396895Y-48248495D02*
X168358800Y-48172305D01*
X168358800Y-48172305D02*
X168320704Y-48134210D01*
X168320704Y-48134210D02*
X168244514Y-48096114D01*
X168244514Y-48096114D02*
X167596895Y-48096114D01*
X167596895Y-47829448D02*
X167596895Y-47372305D01*
X168396895Y-47600877D02*
X167596895Y-47600877D01*
X167977847Y-65977068D02*
X168015942Y-65862782D01*
X168015942Y-65862782D02*
X168054038Y-65824687D01*
X168054038Y-65824687D02*
X168130228Y-65786591D01*
X168130228Y-65786591D02*
X168244514Y-65786591D01*
X168244514Y-65786591D02*
X168320704Y-65824687D01*
X168320704Y-65824687D02*
X168358800Y-65862782D01*
X168358800Y-65862782D02*
X168396895Y-65938972D01*
X168396895Y-65938972D02*
X168396895Y-66243734D01*
X168396895Y-66243734D02*
X167596895Y-66243734D01*
X167596895Y-66243734D02*
X167596895Y-65977068D01*
X167596895Y-65977068D02*
X167634990Y-65900877D01*
X167634990Y-65900877D02*
X167673085Y-65862782D01*
X167673085Y-65862782D02*
X167749276Y-65824687D01*
X167749276Y-65824687D02*
X167825466Y-65824687D01*
X167825466Y-65824687D02*
X167901657Y-65862782D01*
X167901657Y-65862782D02*
X167939752Y-65900877D01*
X167939752Y-65900877D02*
X167977847Y-65977068D01*
X167977847Y-65977068D02*
X167977847Y-66243734D01*
X168396895Y-65024687D02*
X168396895Y-65481830D01*
X168396895Y-65253258D02*
X167596895Y-65253258D01*
X167596895Y-65253258D02*
X167711180Y-65329449D01*
X167711180Y-65329449D02*
X167787371Y-65405639D01*
X167787371Y-65405639D02*
X167825466Y-65481830D01*
X168473085Y-64872306D02*
X168473085Y-64262782D01*
X168396895Y-64072305D02*
X167596895Y-64072305D01*
X167596895Y-64072305D02*
X168396895Y-63615162D01*
X168396895Y-63615162D02*
X167596895Y-63615162D01*
X167977847Y-63234210D02*
X167977847Y-62967544D01*
X168396895Y-62853258D02*
X168396895Y-63234210D01*
X168396895Y-63234210D02*
X167596895Y-63234210D01*
X167596895Y-63234210D02*
X167596895Y-62853258D01*
X167596895Y-62624686D02*
X167596895Y-62167543D01*
X168396895Y-62396115D02*
X167596895Y-62396115D01*
X167558800Y-61329448D02*
X168587371Y-62015162D01*
X167977847Y-60796115D02*
X168015942Y-60681829D01*
X168015942Y-60681829D02*
X168054038Y-60643734D01*
X168054038Y-60643734D02*
X168130228Y-60605638D01*
X168130228Y-60605638D02*
X168244514Y-60605638D01*
X168244514Y-60605638D02*
X168320704Y-60643734D01*
X168320704Y-60643734D02*
X168358800Y-60681829D01*
X168358800Y-60681829D02*
X168396895Y-60758019D01*
X168396895Y-60758019D02*
X168396895Y-61062781D01*
X168396895Y-61062781D02*
X167596895Y-61062781D01*
X167596895Y-61062781D02*
X167596895Y-60796115D01*
X167596895Y-60796115D02*
X167634990Y-60719924D01*
X167634990Y-60719924D02*
X167673085Y-60681829D01*
X167673085Y-60681829D02*
X167749276Y-60643734D01*
X167749276Y-60643734D02*
X167825466Y-60643734D01*
X167825466Y-60643734D02*
X167901657Y-60681829D01*
X167901657Y-60681829D02*
X167939752Y-60719924D01*
X167939752Y-60719924D02*
X167977847Y-60796115D01*
X167977847Y-60796115D02*
X167977847Y-61062781D01*
X167673085Y-60300877D02*
X167634990Y-60262781D01*
X167634990Y-60262781D02*
X167596895Y-60186591D01*
X167596895Y-60186591D02*
X167596895Y-59996115D01*
X167596895Y-59996115D02*
X167634990Y-59919924D01*
X167634990Y-59919924D02*
X167673085Y-59881829D01*
X167673085Y-59881829D02*
X167749276Y-59843734D01*
X167749276Y-59843734D02*
X167825466Y-59843734D01*
X167825466Y-59843734D02*
X167939752Y-59881829D01*
X167939752Y-59881829D02*
X168396895Y-60338972D01*
X168396895Y-60338972D02*
X168396895Y-59843734D01*
X168473085Y-59691353D02*
X168473085Y-59081829D01*
X168396895Y-58891352D02*
X167596895Y-58891352D01*
X168396895Y-58510400D02*
X167596895Y-58510400D01*
X167596895Y-58510400D02*
X168396895Y-58053257D01*
X168396895Y-58053257D02*
X167596895Y-58053257D01*
X168396895Y-75862782D02*
X168396895Y-76243734D01*
X168396895Y-76243734D02*
X167596895Y-76243734D01*
X167596895Y-75443734D02*
X167596895Y-75291353D01*
X167596895Y-75291353D02*
X167634990Y-75215163D01*
X167634990Y-75215163D02*
X167711180Y-75138972D01*
X167711180Y-75138972D02*
X167863561Y-75100877D01*
X167863561Y-75100877D02*
X168130228Y-75100877D01*
X168130228Y-75100877D02*
X168282609Y-75138972D01*
X168282609Y-75138972D02*
X168358800Y-75215163D01*
X168358800Y-75215163D02*
X168396895Y-75291353D01*
X168396895Y-75291353D02*
X168396895Y-75443734D01*
X168396895Y-75443734D02*
X168358800Y-75519925D01*
X168358800Y-75519925D02*
X168282609Y-75596115D01*
X168282609Y-75596115D02*
X168130228Y-75634211D01*
X168130228Y-75634211D02*
X167863561Y-75634211D01*
X167863561Y-75634211D02*
X167711180Y-75596115D01*
X167711180Y-75596115D02*
X167634990Y-75519925D01*
X167634990Y-75519925D02*
X167596895Y-75443734D01*
X168168323Y-74796116D02*
X168168323Y-74415163D01*
X168396895Y-74872306D02*
X167596895Y-74605639D01*
X167596895Y-74605639D02*
X168396895Y-74338973D01*
X168396895Y-74072306D02*
X167596895Y-74072306D01*
X167596895Y-74072306D02*
X167596895Y-73881830D01*
X167596895Y-73881830D02*
X167634990Y-73767544D01*
X167634990Y-73767544D02*
X167711180Y-73691354D01*
X167711180Y-73691354D02*
X167787371Y-73653259D01*
X167787371Y-73653259D02*
X167939752Y-73615163D01*
X167939752Y-73615163D02*
X168054038Y-73615163D01*
X168054038Y-73615163D02*
X168206419Y-73653259D01*
X168206419Y-73653259D02*
X168282609Y-73691354D01*
X168282609Y-73691354D02*
X168358800Y-73767544D01*
X168358800Y-73767544D02*
X168396895Y-73881830D01*
X168396895Y-73881830D02*
X168396895Y-74072306D01*
X168473085Y-73462783D02*
X168473085Y-72853259D01*
X168396895Y-72662782D02*
X167596895Y-72662782D01*
X167558800Y-71710402D02*
X168587371Y-72396116D01*
X167977847Y-71177069D02*
X168015942Y-71062783D01*
X168015942Y-71062783D02*
X168054038Y-71024688D01*
X168054038Y-71024688D02*
X168130228Y-70986592D01*
X168130228Y-70986592D02*
X168244514Y-70986592D01*
X168244514Y-70986592D02*
X168320704Y-71024688D01*
X168320704Y-71024688D02*
X168358800Y-71062783D01*
X168358800Y-71062783D02*
X168396895Y-71138973D01*
X168396895Y-71138973D02*
X168396895Y-71443735D01*
X168396895Y-71443735D02*
X167596895Y-71443735D01*
X167596895Y-71443735D02*
X167596895Y-71177069D01*
X167596895Y-71177069D02*
X167634990Y-71100878D01*
X167634990Y-71100878D02*
X167673085Y-71062783D01*
X167673085Y-71062783D02*
X167749276Y-71024688D01*
X167749276Y-71024688D02*
X167825466Y-71024688D01*
X167825466Y-71024688D02*
X167901657Y-71062783D01*
X167901657Y-71062783D02*
X167939752Y-71100878D01*
X167939752Y-71100878D02*
X167977847Y-71177069D01*
X167977847Y-71177069D02*
X167977847Y-71443735D01*
X168396895Y-70224688D02*
X168396895Y-70681831D01*
X168396895Y-70453259D02*
X167596895Y-70453259D01*
X167596895Y-70453259D02*
X167711180Y-70529450D01*
X167711180Y-70529450D02*
X167787371Y-70605640D01*
X167787371Y-70605640D02*
X167825466Y-70681831D01*
X168473085Y-70072307D02*
X168473085Y-69462783D01*
X167596895Y-69119925D02*
X167596895Y-68967544D01*
X167596895Y-68967544D02*
X167634990Y-68891354D01*
X167634990Y-68891354D02*
X167711180Y-68815163D01*
X167711180Y-68815163D02*
X167863561Y-68777068D01*
X167863561Y-68777068D02*
X168130228Y-68777068D01*
X168130228Y-68777068D02*
X168282609Y-68815163D01*
X168282609Y-68815163D02*
X168358800Y-68891354D01*
X168358800Y-68891354D02*
X168396895Y-68967544D01*
X168396895Y-68967544D02*
X168396895Y-69119925D01*
X168396895Y-69119925D02*
X168358800Y-69196116D01*
X168358800Y-69196116D02*
X168282609Y-69272306D01*
X168282609Y-69272306D02*
X168130228Y-69310402D01*
X168130228Y-69310402D02*
X167863561Y-69310402D01*
X167863561Y-69310402D02*
X167711180Y-69272306D01*
X167711180Y-69272306D02*
X167634990Y-69196116D01*
X167634990Y-69196116D02*
X167596895Y-69119925D01*
X167596895Y-68434211D02*
X168244514Y-68434211D01*
X168244514Y-68434211D02*
X168320704Y-68396116D01*
X168320704Y-68396116D02*
X168358800Y-68358021D01*
X168358800Y-68358021D02*
X168396895Y-68281830D01*
X168396895Y-68281830D02*
X168396895Y-68129449D01*
X168396895Y-68129449D02*
X168358800Y-68053259D01*
X168358800Y-68053259D02*
X168320704Y-68015164D01*
X168320704Y-68015164D02*
X168244514Y-67977068D01*
X168244514Y-67977068D02*
X167596895Y-67977068D01*
X167596895Y-67710402D02*
X167596895Y-67253259D01*
X168396895Y-67481831D02*
X167596895Y-67481831D01*
X168396895Y-85743734D02*
X167596895Y-85743734D01*
X167596895Y-85743734D02*
X168168323Y-85477068D01*
X168168323Y-85477068D02*
X167596895Y-85210401D01*
X167596895Y-85210401D02*
X168396895Y-85210401D01*
X168396895Y-84829448D02*
X167596895Y-84829448D01*
X167596895Y-84829448D02*
X167596895Y-84524686D01*
X167596895Y-84524686D02*
X167634990Y-84448496D01*
X167634990Y-84448496D02*
X167673085Y-84410401D01*
X167673085Y-84410401D02*
X167749276Y-84372305D01*
X167749276Y-84372305D02*
X167863561Y-84372305D01*
X167863561Y-84372305D02*
X167939752Y-84410401D01*
X167939752Y-84410401D02*
X167977847Y-84448496D01*
X167977847Y-84448496D02*
X168015942Y-84524686D01*
X168015942Y-84524686D02*
X168015942Y-84829448D01*
X168396895Y-84029448D02*
X167596895Y-84029448D01*
X167596895Y-84029448D02*
X167596895Y-83724686D01*
X167596895Y-83724686D02*
X167634990Y-83648496D01*
X167634990Y-83648496D02*
X167673085Y-83610401D01*
X167673085Y-83610401D02*
X167749276Y-83572305D01*
X167749276Y-83572305D02*
X167863561Y-83572305D01*
X167863561Y-83572305D02*
X167939752Y-83610401D01*
X167939752Y-83610401D02*
X167977847Y-83648496D01*
X167977847Y-83648496D02*
X168015942Y-83724686D01*
X168015942Y-83724686D02*
X168015942Y-84029448D01*
X167596895Y-83343734D02*
X167596895Y-82886591D01*
X168396895Y-83115163D02*
X167596895Y-83115163D01*
X168473085Y-82810401D02*
X168473085Y-82200877D01*
X167596895Y-81858019D02*
X167596895Y-81705638D01*
X167596895Y-81705638D02*
X167634990Y-81629448D01*
X167634990Y-81629448D02*
X167711180Y-81553257D01*
X167711180Y-81553257D02*
X167863561Y-81515162D01*
X167863561Y-81515162D02*
X168130228Y-81515162D01*
X168130228Y-81515162D02*
X168282609Y-81553257D01*
X168282609Y-81553257D02*
X168358800Y-81629448D01*
X168358800Y-81629448D02*
X168396895Y-81705638D01*
X168396895Y-81705638D02*
X168396895Y-81858019D01*
X168396895Y-81858019D02*
X168358800Y-81934210D01*
X168358800Y-81934210D02*
X168282609Y-82010400D01*
X168282609Y-82010400D02*
X168130228Y-82048496D01*
X168130228Y-82048496D02*
X167863561Y-82048496D01*
X167863561Y-82048496D02*
X167711180Y-82010400D01*
X167711180Y-82010400D02*
X167634990Y-81934210D01*
X167634990Y-81934210D02*
X167596895Y-81858019D01*
X167558800Y-80600877D02*
X168587371Y-81286591D01*
X167977847Y-80067544D02*
X168015942Y-79953258D01*
X168015942Y-79953258D02*
X168054038Y-79915163D01*
X168054038Y-79915163D02*
X168130228Y-79877067D01*
X168130228Y-79877067D02*
X168244514Y-79877067D01*
X168244514Y-79877067D02*
X168320704Y-79915163D01*
X168320704Y-79915163D02*
X168358800Y-79953258D01*
X168358800Y-79953258D02*
X168396895Y-80029448D01*
X168396895Y-80029448D02*
X168396895Y-80334210D01*
X168396895Y-80334210D02*
X167596895Y-80334210D01*
X167596895Y-80334210D02*
X167596895Y-80067544D01*
X167596895Y-80067544D02*
X167634990Y-79991353D01*
X167634990Y-79991353D02*
X167673085Y-79953258D01*
X167673085Y-79953258D02*
X167749276Y-79915163D01*
X167749276Y-79915163D02*
X167825466Y-79915163D01*
X167825466Y-79915163D02*
X167901657Y-79953258D01*
X167901657Y-79953258D02*
X167939752Y-79991353D01*
X167939752Y-79991353D02*
X167977847Y-80067544D01*
X167977847Y-80067544D02*
X167977847Y-80334210D01*
X168396895Y-79115163D02*
X168396895Y-79572306D01*
X168396895Y-79343734D02*
X167596895Y-79343734D01*
X167596895Y-79343734D02*
X167711180Y-79419925D01*
X167711180Y-79419925D02*
X167787371Y-79496115D01*
X167787371Y-79496115D02*
X167825466Y-79572306D01*
X168473085Y-78962782D02*
X168473085Y-78353258D01*
X168396895Y-78162781D02*
X167596895Y-78162781D01*
X168396895Y-77781829D02*
X167596895Y-77781829D01*
X167596895Y-77781829D02*
X168396895Y-77324686D01*
X168396895Y-77324686D02*
X167596895Y-77324686D01*
X167596895Y-91362782D02*
X167596895Y-91743734D01*
X167596895Y-91743734D02*
X167977847Y-91781830D01*
X167977847Y-91781830D02*
X167939752Y-91743734D01*
X167939752Y-91743734D02*
X167901657Y-91667544D01*
X167901657Y-91667544D02*
X167901657Y-91477068D01*
X167901657Y-91477068D02*
X167939752Y-91400877D01*
X167939752Y-91400877D02*
X167977847Y-91362782D01*
X167977847Y-91362782D02*
X168054038Y-91324687D01*
X168054038Y-91324687D02*
X168244514Y-91324687D01*
X168244514Y-91324687D02*
X168320704Y-91362782D01*
X168320704Y-91362782D02*
X168358800Y-91400877D01*
X168358800Y-91400877D02*
X168396895Y-91477068D01*
X168396895Y-91477068D02*
X168396895Y-91667544D01*
X168396895Y-91667544D02*
X168358800Y-91743734D01*
X168358800Y-91743734D02*
X168320704Y-91781830D01*
X167596895Y-91096115D02*
X168396895Y-90829448D01*
X168396895Y-90829448D02*
X167596895Y-90562782D01*
X168473085Y-90486592D02*
X168473085Y-89877068D01*
X168396895Y-89686591D02*
X167596895Y-89686591D01*
X168396895Y-89305639D02*
X167596895Y-89305639D01*
X167596895Y-89305639D02*
X168396895Y-88848496D01*
X168396895Y-88848496D02*
X167596895Y-88848496D01*
X154863561Y-59846741D02*
X155396895Y-59846741D01*
X154558800Y-60037217D02*
X155130228Y-60227694D01*
X155130228Y-60227694D02*
X155130228Y-59732455D01*
X155320704Y-59427693D02*
X155358800Y-59389598D01*
X155358800Y-59389598D02*
X155396895Y-59427693D01*
X155396895Y-59427693D02*
X155358800Y-59465789D01*
X155358800Y-59465789D02*
X155320704Y-59427693D01*
X155320704Y-59427693D02*
X155396895Y-59427693D01*
X154596895Y-59122932D02*
X154596895Y-58589598D01*
X154596895Y-58589598D02*
X155396895Y-58932456D01*
X154863561Y-58284836D02*
X155396895Y-58284836D01*
X154939752Y-58284836D02*
X154901657Y-58246741D01*
X154901657Y-58246741D02*
X154863561Y-58170551D01*
X154863561Y-58170551D02*
X154863561Y-58056265D01*
X154863561Y-58056265D02*
X154901657Y-57980074D01*
X154901657Y-57980074D02*
X154977847Y-57941979D01*
X154977847Y-57941979D02*
X155396895Y-57941979D01*
X154977847Y-57294360D02*
X154977847Y-57561026D01*
X155396895Y-57561026D02*
X154596895Y-57561026D01*
X154596895Y-57561026D02*
X154596895Y-57180074D01*
X154863561Y-63846741D02*
X155396895Y-63846741D01*
X154558800Y-64037217D02*
X155130228Y-64227694D01*
X155130228Y-64227694D02*
X155130228Y-63732455D01*
X155320704Y-63427693D02*
X155358800Y-63389598D01*
X155358800Y-63389598D02*
X155396895Y-63427693D01*
X155396895Y-63427693D02*
X155358800Y-63465789D01*
X155358800Y-63465789D02*
X155320704Y-63427693D01*
X155320704Y-63427693D02*
X155396895Y-63427693D01*
X154596895Y-63122932D02*
X154596895Y-62589598D01*
X154596895Y-62589598D02*
X155396895Y-62932456D01*
X154863561Y-62284836D02*
X155396895Y-62284836D01*
X154939752Y-62284836D02*
X154901657Y-62246741D01*
X154901657Y-62246741D02*
X154863561Y-62170551D01*
X154863561Y-62170551D02*
X154863561Y-62056265D01*
X154863561Y-62056265D02*
X154901657Y-61980074D01*
X154901657Y-61980074D02*
X154977847Y-61941979D01*
X154977847Y-61941979D02*
X155396895Y-61941979D01*
X154977847Y-61294360D02*
X154977847Y-61561026D01*
X155396895Y-61561026D02*
X154596895Y-61561026D01*
X154596895Y-61561026D02*
X154596895Y-61180074D01*
X154863561Y-67846741D02*
X155396895Y-67846741D01*
X154558800Y-68037217D02*
X155130228Y-68227694D01*
X155130228Y-68227694D02*
X155130228Y-67732455D01*
X155320704Y-67427693D02*
X155358800Y-67389598D01*
X155358800Y-67389598D02*
X155396895Y-67427693D01*
X155396895Y-67427693D02*
X155358800Y-67465789D01*
X155358800Y-67465789D02*
X155320704Y-67427693D01*
X155320704Y-67427693D02*
X155396895Y-67427693D01*
X154596895Y-67122932D02*
X154596895Y-66589598D01*
X154596895Y-66589598D02*
X155396895Y-66932456D01*
X154863561Y-66284836D02*
X155396895Y-66284836D01*
X154939752Y-66284836D02*
X154901657Y-66246741D01*
X154901657Y-66246741D02*
X154863561Y-66170551D01*
X154863561Y-66170551D02*
X154863561Y-66056265D01*
X154863561Y-66056265D02*
X154901657Y-65980074D01*
X154901657Y-65980074D02*
X154977847Y-65941979D01*
X154977847Y-65941979D02*
X155396895Y-65941979D01*
X154977847Y-65294360D02*
X154977847Y-65561026D01*
X155396895Y-65561026D02*
X154596895Y-65561026D01*
X154596895Y-65561026D02*
X154596895Y-65180074D01*
X154863561Y-71846741D02*
X155396895Y-71846741D01*
X154558800Y-72037217D02*
X155130228Y-72227694D01*
X155130228Y-72227694D02*
X155130228Y-71732455D01*
X155320704Y-71427693D02*
X155358800Y-71389598D01*
X155358800Y-71389598D02*
X155396895Y-71427693D01*
X155396895Y-71427693D02*
X155358800Y-71465789D01*
X155358800Y-71465789D02*
X155320704Y-71427693D01*
X155320704Y-71427693D02*
X155396895Y-71427693D01*
X154596895Y-71122932D02*
X154596895Y-70589598D01*
X154596895Y-70589598D02*
X155396895Y-70932456D01*
X154863561Y-70284836D02*
X155396895Y-70284836D01*
X154939752Y-70284836D02*
X154901657Y-70246741D01*
X154901657Y-70246741D02*
X154863561Y-70170551D01*
X154863561Y-70170551D02*
X154863561Y-70056265D01*
X154863561Y-70056265D02*
X154901657Y-69980074D01*
X154901657Y-69980074D02*
X154977847Y-69941979D01*
X154977847Y-69941979D02*
X155396895Y-69941979D01*
X154977847Y-69294360D02*
X154977847Y-69561026D01*
X155396895Y-69561026D02*
X154596895Y-69561026D01*
X154596895Y-69561026D02*
X154596895Y-69180074D01*
X158396895Y-59432456D02*
X158396895Y-59889599D01*
X158396895Y-59661027D02*
X157596895Y-59661027D01*
X157596895Y-59661027D02*
X157711180Y-59737218D01*
X157711180Y-59737218D02*
X157787371Y-59813408D01*
X157787371Y-59813408D02*
X157825466Y-59889599D01*
X158396895Y-59089598D02*
X157596895Y-59089598D01*
X158396895Y-58632455D02*
X157939752Y-58975313D01*
X157596895Y-58632455D02*
X158054038Y-59089598D01*
X158396895Y-58327694D02*
X158396895Y-58137217D01*
X158396895Y-58137217D02*
X158244514Y-58137217D01*
X158244514Y-58137217D02*
X158206419Y-58213408D01*
X158206419Y-58213408D02*
X158130228Y-58289598D01*
X158130228Y-58289598D02*
X158015942Y-58327694D01*
X158015942Y-58327694D02*
X157825466Y-58327694D01*
X157825466Y-58327694D02*
X157711180Y-58289598D01*
X157711180Y-58289598D02*
X157634990Y-58213408D01*
X157634990Y-58213408D02*
X157596895Y-58099122D01*
X157596895Y-58099122D02*
X157596895Y-57946741D01*
X157596895Y-57946741D02*
X157634990Y-57832455D01*
X157634990Y-57832455D02*
X157711180Y-57756265D01*
X157711180Y-57756265D02*
X157825466Y-57718170D01*
X157825466Y-57718170D02*
X158015942Y-57718170D01*
X158015942Y-57718170D02*
X158130228Y-57756265D01*
X158130228Y-57756265D02*
X158206419Y-57832455D01*
X158206419Y-57832455D02*
X158244514Y-57908646D01*
X158244514Y-57908646D02*
X158396895Y-57908646D01*
X158396895Y-57908646D02*
X158396895Y-57718170D01*
X158396895Y-63432456D02*
X158396895Y-63889599D01*
X158396895Y-63661027D02*
X157596895Y-63661027D01*
X157596895Y-63661027D02*
X157711180Y-63737218D01*
X157711180Y-63737218D02*
X157787371Y-63813408D01*
X157787371Y-63813408D02*
X157825466Y-63889599D01*
X158396895Y-63089598D02*
X157596895Y-63089598D01*
X158396895Y-62632455D02*
X157939752Y-62975313D01*
X157596895Y-62632455D02*
X158054038Y-63089598D01*
X158396895Y-62327694D02*
X158396895Y-62137217D01*
X158396895Y-62137217D02*
X158244514Y-62137217D01*
X158244514Y-62137217D02*
X158206419Y-62213408D01*
X158206419Y-62213408D02*
X158130228Y-62289598D01*
X158130228Y-62289598D02*
X158015942Y-62327694D01*
X158015942Y-62327694D02*
X157825466Y-62327694D01*
X157825466Y-62327694D02*
X157711180Y-62289598D01*
X157711180Y-62289598D02*
X157634990Y-62213408D01*
X157634990Y-62213408D02*
X157596895Y-62099122D01*
X157596895Y-62099122D02*
X157596895Y-61946741D01*
X157596895Y-61946741D02*
X157634990Y-61832455D01*
X157634990Y-61832455D02*
X157711180Y-61756265D01*
X157711180Y-61756265D02*
X157825466Y-61718170D01*
X157825466Y-61718170D02*
X158015942Y-61718170D01*
X158015942Y-61718170D02*
X158130228Y-61756265D01*
X158130228Y-61756265D02*
X158206419Y-61832455D01*
X158206419Y-61832455D02*
X158244514Y-61908646D01*
X158244514Y-61908646D02*
X158396895Y-61908646D01*
X158396895Y-61908646D02*
X158396895Y-61718170D01*
X158396895Y-67432456D02*
X158396895Y-67889599D01*
X158396895Y-67661027D02*
X157596895Y-67661027D01*
X157596895Y-67661027D02*
X157711180Y-67737218D01*
X157711180Y-67737218D02*
X157787371Y-67813408D01*
X157787371Y-67813408D02*
X157825466Y-67889599D01*
X158396895Y-67089598D02*
X157596895Y-67089598D01*
X158396895Y-66632455D02*
X157939752Y-66975313D01*
X157596895Y-66632455D02*
X158054038Y-67089598D01*
X158396895Y-66327694D02*
X158396895Y-66137217D01*
X158396895Y-66137217D02*
X158244514Y-66137217D01*
X158244514Y-66137217D02*
X158206419Y-66213408D01*
X158206419Y-66213408D02*
X158130228Y-66289598D01*
X158130228Y-66289598D02*
X158015942Y-66327694D01*
X158015942Y-66327694D02*
X157825466Y-66327694D01*
X157825466Y-66327694D02*
X157711180Y-66289598D01*
X157711180Y-66289598D02*
X157634990Y-66213408D01*
X157634990Y-66213408D02*
X157596895Y-66099122D01*
X157596895Y-66099122D02*
X157596895Y-65946741D01*
X157596895Y-65946741D02*
X157634990Y-65832455D01*
X157634990Y-65832455D02*
X157711180Y-65756265D01*
X157711180Y-65756265D02*
X157825466Y-65718170D01*
X157825466Y-65718170D02*
X158015942Y-65718170D01*
X158015942Y-65718170D02*
X158130228Y-65756265D01*
X158130228Y-65756265D02*
X158206419Y-65832455D01*
X158206419Y-65832455D02*
X158244514Y-65908646D01*
X158244514Y-65908646D02*
X158396895Y-65908646D01*
X158396895Y-65908646D02*
X158396895Y-65718170D01*
X158396895Y-71432456D02*
X158396895Y-71889599D01*
X158396895Y-71661027D02*
X157596895Y-71661027D01*
X157596895Y-71661027D02*
X157711180Y-71737218D01*
X157711180Y-71737218D02*
X157787371Y-71813408D01*
X157787371Y-71813408D02*
X157825466Y-71889599D01*
X158396895Y-71089598D02*
X157596895Y-71089598D01*
X158396895Y-70632455D02*
X157939752Y-70975313D01*
X157596895Y-70632455D02*
X158054038Y-71089598D01*
X158396895Y-70327694D02*
X158396895Y-70137217D01*
X158396895Y-70137217D02*
X158244514Y-70137217D01*
X158244514Y-70137217D02*
X158206419Y-70213408D01*
X158206419Y-70213408D02*
X158130228Y-70289598D01*
X158130228Y-70289598D02*
X158015942Y-70327694D01*
X158015942Y-70327694D02*
X157825466Y-70327694D01*
X157825466Y-70327694D02*
X157711180Y-70289598D01*
X157711180Y-70289598D02*
X157634990Y-70213408D01*
X157634990Y-70213408D02*
X157596895Y-70099122D01*
X157596895Y-70099122D02*
X157596895Y-69946741D01*
X157596895Y-69946741D02*
X157634990Y-69832455D01*
X157634990Y-69832455D02*
X157711180Y-69756265D01*
X157711180Y-69756265D02*
X157825466Y-69718170D01*
X157825466Y-69718170D02*
X158015942Y-69718170D01*
X158015942Y-69718170D02*
X158130228Y-69756265D01*
X158130228Y-69756265D02*
X158206419Y-69832455D01*
X158206419Y-69832455D02*
X158244514Y-69908646D01*
X158244514Y-69908646D02*
X158396895Y-69908646D01*
X158396895Y-69908646D02*
X158396895Y-69718170D01*
D11*
X123245863Y-51091695D02*
X123741101Y-51091695D01*
X123741101Y-51091695D02*
X123474435Y-51396457D01*
X123474435Y-51396457D02*
X123588720Y-51396457D01*
X123588720Y-51396457D02*
X123664911Y-51434552D01*
X123664911Y-51434552D02*
X123703006Y-51472647D01*
X123703006Y-51472647D02*
X123741101Y-51548838D01*
X123741101Y-51548838D02*
X123741101Y-51739314D01*
X123741101Y-51739314D02*
X123703006Y-51815504D01*
X123703006Y-51815504D02*
X123664911Y-51853600D01*
X123664911Y-51853600D02*
X123588720Y-51891695D01*
X123588720Y-51891695D02*
X123360149Y-51891695D01*
X123360149Y-51891695D02*
X123283958Y-51853600D01*
X123283958Y-51853600D02*
X123245863Y-51815504D01*
X124083959Y-51815504D02*
X124122054Y-51853600D01*
X124122054Y-51853600D02*
X124083959Y-51891695D01*
X124083959Y-51891695D02*
X124045863Y-51853600D01*
X124045863Y-51853600D02*
X124083959Y-51815504D01*
X124083959Y-51815504D02*
X124083959Y-51891695D01*
X124388720Y-51091695D02*
X124883958Y-51091695D01*
X124883958Y-51091695D02*
X124617292Y-51396457D01*
X124617292Y-51396457D02*
X124731577Y-51396457D01*
X124731577Y-51396457D02*
X124807768Y-51434552D01*
X124807768Y-51434552D02*
X124845863Y-51472647D01*
X124845863Y-51472647D02*
X124883958Y-51548838D01*
X124883958Y-51548838D02*
X124883958Y-51739314D01*
X124883958Y-51739314D02*
X124845863Y-51815504D01*
X124845863Y-51815504D02*
X124807768Y-51853600D01*
X124807768Y-51853600D02*
X124731577Y-51891695D01*
X124731577Y-51891695D02*
X124503006Y-51891695D01*
X124503006Y-51891695D02*
X124426815Y-51853600D01*
X124426815Y-51853600D02*
X124388720Y-51815504D01*
X125112530Y-51091695D02*
X125379197Y-51891695D01*
X125379197Y-51891695D02*
X125645863Y-51091695D01*
X123741101Y-53859790D02*
X123664911Y-53821695D01*
X123664911Y-53821695D02*
X123550625Y-53821695D01*
X123550625Y-53821695D02*
X123436339Y-53859790D01*
X123436339Y-53859790D02*
X123360149Y-53935980D01*
X123360149Y-53935980D02*
X123322054Y-54012171D01*
X123322054Y-54012171D02*
X123283958Y-54164552D01*
X123283958Y-54164552D02*
X123283958Y-54278838D01*
X123283958Y-54278838D02*
X123322054Y-54431219D01*
X123322054Y-54431219D02*
X123360149Y-54507409D01*
X123360149Y-54507409D02*
X123436339Y-54583600D01*
X123436339Y-54583600D02*
X123550625Y-54621695D01*
X123550625Y-54621695D02*
X123626816Y-54621695D01*
X123626816Y-54621695D02*
X123741101Y-54583600D01*
X123741101Y-54583600D02*
X123779197Y-54545504D01*
X123779197Y-54545504D02*
X123779197Y-54278838D01*
X123779197Y-54278838D02*
X123626816Y-54278838D01*
X124122054Y-54621695D02*
X124122054Y-53821695D01*
X124122054Y-53821695D02*
X124579197Y-54621695D01*
X124579197Y-54621695D02*
X124579197Y-53821695D01*
X124960149Y-54621695D02*
X124960149Y-53821695D01*
X124960149Y-53821695D02*
X125150625Y-53821695D01*
X125150625Y-53821695D02*
X125264911Y-53859790D01*
X125264911Y-53859790D02*
X125341101Y-53935980D01*
X125341101Y-53935980D02*
X125379196Y-54012171D01*
X125379196Y-54012171D02*
X125417292Y-54164552D01*
X125417292Y-54164552D02*
X125417292Y-54278838D01*
X125417292Y-54278838D02*
X125379196Y-54431219D01*
X125379196Y-54431219D02*
X125341101Y-54507409D01*
X125341101Y-54507409D02*
X125264911Y-54583600D01*
X125264911Y-54583600D02*
X125150625Y-54621695D01*
X125150625Y-54621695D02*
X124960149Y-54621695D01*
D10*
X118413295Y-60756265D02*
X118413295Y-61232455D01*
X118127580Y-60661027D02*
X119127580Y-60994360D01*
X119127580Y-60994360D02*
X118127580Y-61327693D01*
X118127580Y-61661027D02*
X119127580Y-61661027D01*
X118127580Y-62137217D02*
X119127580Y-62137217D01*
X119127580Y-62137217D02*
X118127580Y-62708645D01*
X118127580Y-62708645D02*
X119127580Y-62708645D01*
X118032342Y-62946741D02*
X118032342Y-63708645D01*
X119127580Y-64422931D02*
X119127580Y-63946741D01*
X119127580Y-63946741D02*
X118651390Y-63899122D01*
X118651390Y-63899122D02*
X118699009Y-63946741D01*
X118699009Y-63946741D02*
X118746628Y-64041979D01*
X118746628Y-64041979D02*
X118746628Y-64280074D01*
X118746628Y-64280074D02*
X118699009Y-64375312D01*
X118699009Y-64375312D02*
X118651390Y-64422931D01*
X118651390Y-64422931D02*
X118556152Y-64470550D01*
X118556152Y-64470550D02*
X118318057Y-64470550D01*
X118318057Y-64470550D02*
X118222819Y-64422931D01*
X118222819Y-64422931D02*
X118175200Y-64375312D01*
X118175200Y-64375312D02*
X118127580Y-64280074D01*
X118127580Y-64280074D02*
X118127580Y-64041979D01*
X118127580Y-64041979D02*
X118175200Y-63946741D01*
X118175200Y-63946741D02*
X118222819Y-63899122D01*
X118413295Y-70256265D02*
X118413295Y-70732455D01*
X118127580Y-70161027D02*
X119127580Y-70494360D01*
X119127580Y-70494360D02*
X118127580Y-70827693D01*
X118127580Y-71161027D02*
X119127580Y-71161027D01*
X118127580Y-71637217D02*
X119127580Y-71637217D01*
X119127580Y-71637217D02*
X118127580Y-72208645D01*
X118127580Y-72208645D02*
X119127580Y-72208645D01*
X118032342Y-72446741D02*
X118032342Y-73208645D01*
X118794247Y-73875312D02*
X118127580Y-73875312D01*
X119175200Y-73637217D02*
X118460914Y-73399122D01*
X118460914Y-73399122D02*
X118460914Y-74018169D01*
X118651390Y-80137217D02*
X118603771Y-80280074D01*
X118603771Y-80280074D02*
X118556152Y-80327693D01*
X118556152Y-80327693D02*
X118460914Y-80375312D01*
X118460914Y-80375312D02*
X118318057Y-80375312D01*
X118318057Y-80375312D02*
X118222819Y-80327693D01*
X118222819Y-80327693D02*
X118175200Y-80280074D01*
X118175200Y-80280074D02*
X118127580Y-80184836D01*
X118127580Y-80184836D02*
X118127580Y-79803884D01*
X118127580Y-79803884D02*
X119127580Y-79803884D01*
X119127580Y-79803884D02*
X119127580Y-80137217D01*
X119127580Y-80137217D02*
X119079961Y-80232455D01*
X119079961Y-80232455D02*
X119032342Y-80280074D01*
X119032342Y-80280074D02*
X118937104Y-80327693D01*
X118937104Y-80327693D02*
X118841866Y-80327693D01*
X118841866Y-80327693D02*
X118746628Y-80280074D01*
X118746628Y-80280074D02*
X118699009Y-80232455D01*
X118699009Y-80232455D02*
X118651390Y-80137217D01*
X118651390Y-80137217D02*
X118651390Y-79803884D01*
X119032342Y-80756265D02*
X119079961Y-80803884D01*
X119079961Y-80803884D02*
X119127580Y-80899122D01*
X119127580Y-80899122D02*
X119127580Y-81137217D01*
X119127580Y-81137217D02*
X119079961Y-81232455D01*
X119079961Y-81232455D02*
X119032342Y-81280074D01*
X119032342Y-81280074D02*
X118937104Y-81327693D01*
X118937104Y-81327693D02*
X118841866Y-81327693D01*
X118841866Y-81327693D02*
X118699009Y-81280074D01*
X118699009Y-81280074D02*
X118127580Y-80708646D01*
X118127580Y-80708646D02*
X118127580Y-81327693D01*
X118032342Y-81518170D02*
X118032342Y-82280074D01*
X119127580Y-82375313D02*
X118127580Y-82708646D01*
X118127580Y-82708646D02*
X119127580Y-83041979D01*
X118651390Y-89637217D02*
X118603771Y-89780074D01*
X118603771Y-89780074D02*
X118556152Y-89827693D01*
X118556152Y-89827693D02*
X118460914Y-89875312D01*
X118460914Y-89875312D02*
X118318057Y-89875312D01*
X118318057Y-89875312D02*
X118222819Y-89827693D01*
X118222819Y-89827693D02*
X118175200Y-89780074D01*
X118175200Y-89780074D02*
X118127580Y-89684836D01*
X118127580Y-89684836D02*
X118127580Y-89303884D01*
X118127580Y-89303884D02*
X119127580Y-89303884D01*
X119127580Y-89303884D02*
X119127580Y-89637217D01*
X119127580Y-89637217D02*
X119079961Y-89732455D01*
X119079961Y-89732455D02*
X119032342Y-89780074D01*
X119032342Y-89780074D02*
X118937104Y-89827693D01*
X118937104Y-89827693D02*
X118841866Y-89827693D01*
X118841866Y-89827693D02*
X118746628Y-89780074D01*
X118746628Y-89780074D02*
X118699009Y-89732455D01*
X118699009Y-89732455D02*
X118651390Y-89637217D01*
X118651390Y-89637217D02*
X118651390Y-89303884D01*
X118127580Y-90827693D02*
X118127580Y-90256265D01*
X118127580Y-90541979D02*
X119127580Y-90541979D01*
X119127580Y-90541979D02*
X118984723Y-90446741D01*
X118984723Y-90446741D02*
X118889485Y-90351503D01*
X118889485Y-90351503D02*
X118841866Y-90256265D01*
X118032342Y-91018170D02*
X118032342Y-91780074D01*
X119127580Y-91875313D02*
X118127580Y-92208646D01*
X118127580Y-92208646D02*
X119127580Y-92541979D01*
D11*
X152905387Y-96007275D02*
X152905387Y-96721560D01*
X152905387Y-96721560D02*
X152857768Y-96864417D01*
X152857768Y-96864417D02*
X152762530Y-96959656D01*
X152762530Y-96959656D02*
X152619673Y-97007275D01*
X152619673Y-97007275D02*
X152524435Y-97007275D01*
X153333959Y-96959656D02*
X153476816Y-97007275D01*
X153476816Y-97007275D02*
X153714911Y-97007275D01*
X153714911Y-97007275D02*
X153810149Y-96959656D01*
X153810149Y-96959656D02*
X153857768Y-96912036D01*
X153857768Y-96912036D02*
X153905387Y-96816798D01*
X153905387Y-96816798D02*
X153905387Y-96721560D01*
X153905387Y-96721560D02*
X153857768Y-96626322D01*
X153857768Y-96626322D02*
X153810149Y-96578703D01*
X153810149Y-96578703D02*
X153714911Y-96531084D01*
X153714911Y-96531084D02*
X153524435Y-96483465D01*
X153524435Y-96483465D02*
X153429197Y-96435846D01*
X153429197Y-96435846D02*
X153381578Y-96388227D01*
X153381578Y-96388227D02*
X153333959Y-96292989D01*
X153333959Y-96292989D02*
X153333959Y-96197751D01*
X153333959Y-96197751D02*
X153381578Y-96102513D01*
X153381578Y-96102513D02*
X153429197Y-96054894D01*
X153429197Y-96054894D02*
X153524435Y-96007275D01*
X153524435Y-96007275D02*
X153762530Y-96007275D01*
X153762530Y-96007275D02*
X153905387Y-96054894D01*
X154191102Y-96007275D02*
X154762530Y-96007275D01*
X154476816Y-97007275D02*
X154476816Y-96007275D01*
X154857769Y-97102513D02*
X155619673Y-97102513D01*
X155762531Y-96007275D02*
X156429197Y-97007275D01*
X156429197Y-96007275D02*
X155762531Y-97007275D01*
X156810150Y-97007275D02*
X156810150Y-96007275D01*
X156810150Y-96483465D02*
X157381578Y-96483465D01*
X157381578Y-97007275D02*
X157381578Y-96007275D01*
X152619673Y-98236266D02*
X153381578Y-98236266D01*
X153000625Y-98617219D02*
X153000625Y-97855314D01*
X156905388Y-98236266D02*
X157667293Y-98236266D01*
X141436339Y-70154980D02*
X142064911Y-70154980D01*
X141750625Y-71254980D02*
X141750625Y-70154980D01*
X142955387Y-71254980D02*
X142431577Y-71254980D01*
X142431577Y-71254980D02*
X142431577Y-70154980D01*
X143164910Y-70154980D02*
X143531577Y-71254980D01*
X143531577Y-71254980D02*
X143898244Y-70154980D01*
X144160148Y-70154980D02*
X144893482Y-70154980D01*
X144893482Y-70154980D02*
X144422053Y-71254980D01*
X145783958Y-70154980D02*
X145574434Y-70154980D01*
X145574434Y-70154980D02*
X145469672Y-70207361D01*
X145469672Y-70207361D02*
X145417291Y-70259742D01*
X145417291Y-70259742D02*
X145312529Y-70416885D01*
X145312529Y-70416885D02*
X145260148Y-70626409D01*
X145260148Y-70626409D02*
X145260148Y-71045457D01*
X145260148Y-71045457D02*
X145312529Y-71150219D01*
X145312529Y-71150219D02*
X145364910Y-71202600D01*
X145364910Y-71202600D02*
X145469672Y-71254980D01*
X145469672Y-71254980D02*
X145679196Y-71254980D01*
X145679196Y-71254980D02*
X145783958Y-71202600D01*
X145783958Y-71202600D02*
X145836339Y-71150219D01*
X145836339Y-71150219D02*
X145888720Y-71045457D01*
X145888720Y-71045457D02*
X145888720Y-70783552D01*
X145888720Y-70783552D02*
X145836339Y-70678790D01*
X145836339Y-70678790D02*
X145783958Y-70626409D01*
X145783958Y-70626409D02*
X145679196Y-70574028D01*
X145679196Y-70574028D02*
X145469672Y-70574028D01*
X145469672Y-70574028D02*
X145364910Y-70626409D01*
X145364910Y-70626409D02*
X145312529Y-70678790D01*
X145312529Y-70678790D02*
X145260148Y-70783552D01*
X146255386Y-70154980D02*
X146988720Y-70154980D01*
X146988720Y-70154980D02*
X146517291Y-71254980D01*
X147303005Y-70154980D02*
X147983958Y-70154980D01*
X147983958Y-70154980D02*
X147617291Y-70574028D01*
X147617291Y-70574028D02*
X147774434Y-70574028D01*
X147774434Y-70574028D02*
X147879196Y-70626409D01*
X147879196Y-70626409D02*
X147931577Y-70678790D01*
X147931577Y-70678790D02*
X147983958Y-70783552D01*
X147983958Y-70783552D02*
X147983958Y-71045457D01*
X147983958Y-71045457D02*
X147931577Y-71150219D01*
X147931577Y-71150219D02*
X147879196Y-71202600D01*
X147879196Y-71202600D02*
X147774434Y-71254980D01*
X147774434Y-71254980D02*
X147460148Y-71254980D01*
X147460148Y-71254980D02*
X147355386Y-71202600D01*
X147355386Y-71202600D02*
X147303005Y-71150219D01*
X148350624Y-70154980D02*
X149031577Y-70154980D01*
X149031577Y-70154980D02*
X148664910Y-70574028D01*
X148664910Y-70574028D02*
X148822053Y-70574028D01*
X148822053Y-70574028D02*
X148926815Y-70626409D01*
X148926815Y-70626409D02*
X148979196Y-70678790D01*
X148979196Y-70678790D02*
X149031577Y-70783552D01*
X149031577Y-70783552D02*
X149031577Y-71045457D01*
X149031577Y-71045457D02*
X148979196Y-71150219D01*
X148979196Y-71150219D02*
X148926815Y-71202600D01*
X148926815Y-71202600D02*
X148822053Y-71254980D01*
X148822053Y-71254980D02*
X148507767Y-71254980D01*
X148507767Y-71254980D02*
X148403005Y-71202600D01*
X148403005Y-71202600D02*
X148350624Y-71150219D01*
X141360149Y-57499885D02*
X141931578Y-57499885D01*
X141245863Y-57842742D02*
X141645863Y-56642742D01*
X141645863Y-56642742D02*
X142045863Y-57842742D01*
X142445863Y-57842742D02*
X142445863Y-56642742D01*
X142445863Y-56642742D02*
X142731577Y-56642742D01*
X142731577Y-56642742D02*
X142903006Y-56699885D01*
X142903006Y-56699885D02*
X143017291Y-56814171D01*
X143017291Y-56814171D02*
X143074434Y-56928457D01*
X143074434Y-56928457D02*
X143131577Y-57157028D01*
X143131577Y-57157028D02*
X143131577Y-57328457D01*
X143131577Y-57328457D02*
X143074434Y-57557028D01*
X143074434Y-57557028D02*
X143017291Y-57671314D01*
X143017291Y-57671314D02*
X142903006Y-57785600D01*
X142903006Y-57785600D02*
X142731577Y-57842742D01*
X142731577Y-57842742D02*
X142445863Y-57842742D01*
X143588720Y-57785600D02*
X143760149Y-57842742D01*
X143760149Y-57842742D02*
X144045863Y-57842742D01*
X144045863Y-57842742D02*
X144160149Y-57785600D01*
X144160149Y-57785600D02*
X144217291Y-57728457D01*
X144217291Y-57728457D02*
X144274434Y-57614171D01*
X144274434Y-57614171D02*
X144274434Y-57499885D01*
X144274434Y-57499885D02*
X144217291Y-57385600D01*
X144217291Y-57385600D02*
X144160149Y-57328457D01*
X144160149Y-57328457D02*
X144045863Y-57271314D01*
X144045863Y-57271314D02*
X143817291Y-57214171D01*
X143817291Y-57214171D02*
X143703006Y-57157028D01*
X143703006Y-57157028D02*
X143645863Y-57099885D01*
X143645863Y-57099885D02*
X143588720Y-56985600D01*
X143588720Y-56985600D02*
X143588720Y-56871314D01*
X143588720Y-56871314D02*
X143645863Y-56757028D01*
X143645863Y-56757028D02*
X143703006Y-56699885D01*
X143703006Y-56699885D02*
X143817291Y-56642742D01*
X143817291Y-56642742D02*
X144103006Y-56642742D01*
X144103006Y-56642742D02*
X144274434Y-56699885D01*
X144960148Y-57157028D02*
X144845863Y-57099885D01*
X144845863Y-57099885D02*
X144788720Y-57042742D01*
X144788720Y-57042742D02*
X144731577Y-56928457D01*
X144731577Y-56928457D02*
X144731577Y-56871314D01*
X144731577Y-56871314D02*
X144788720Y-56757028D01*
X144788720Y-56757028D02*
X144845863Y-56699885D01*
X144845863Y-56699885D02*
X144960148Y-56642742D01*
X144960148Y-56642742D02*
X145188720Y-56642742D01*
X145188720Y-56642742D02*
X145303006Y-56699885D01*
X145303006Y-56699885D02*
X145360148Y-56757028D01*
X145360148Y-56757028D02*
X145417291Y-56871314D01*
X145417291Y-56871314D02*
X145417291Y-56928457D01*
X145417291Y-56928457D02*
X145360148Y-57042742D01*
X145360148Y-57042742D02*
X145303006Y-57099885D01*
X145303006Y-57099885D02*
X145188720Y-57157028D01*
X145188720Y-57157028D02*
X144960148Y-57157028D01*
X144960148Y-57157028D02*
X144845863Y-57214171D01*
X144845863Y-57214171D02*
X144788720Y-57271314D01*
X144788720Y-57271314D02*
X144731577Y-57385600D01*
X144731577Y-57385600D02*
X144731577Y-57614171D01*
X144731577Y-57614171D02*
X144788720Y-57728457D01*
X144788720Y-57728457D02*
X144845863Y-57785600D01*
X144845863Y-57785600D02*
X144960148Y-57842742D01*
X144960148Y-57842742D02*
X145188720Y-57842742D01*
X145188720Y-57842742D02*
X145303006Y-57785600D01*
X145303006Y-57785600D02*
X145360148Y-57728457D01*
X145360148Y-57728457D02*
X145417291Y-57614171D01*
X145417291Y-57614171D02*
X145417291Y-57385600D01*
X145417291Y-57385600D02*
X145360148Y-57271314D01*
X145360148Y-57271314D02*
X145303006Y-57214171D01*
X145303006Y-57214171D02*
X145188720Y-57157028D01*
X146445863Y-56642742D02*
X146217291Y-56642742D01*
X146217291Y-56642742D02*
X146103005Y-56699885D01*
X146103005Y-56699885D02*
X146045863Y-56757028D01*
X146045863Y-56757028D02*
X145931577Y-56928457D01*
X145931577Y-56928457D02*
X145874434Y-57157028D01*
X145874434Y-57157028D02*
X145874434Y-57614171D01*
X145874434Y-57614171D02*
X145931577Y-57728457D01*
X145931577Y-57728457D02*
X145988720Y-57785600D01*
X145988720Y-57785600D02*
X146103005Y-57842742D01*
X146103005Y-57842742D02*
X146331577Y-57842742D01*
X146331577Y-57842742D02*
X146445863Y-57785600D01*
X146445863Y-57785600D02*
X146503005Y-57728457D01*
X146503005Y-57728457D02*
X146560148Y-57614171D01*
X146560148Y-57614171D02*
X146560148Y-57328457D01*
X146560148Y-57328457D02*
X146503005Y-57214171D01*
X146503005Y-57214171D02*
X146445863Y-57157028D01*
X146445863Y-57157028D02*
X146331577Y-57099885D01*
X146331577Y-57099885D02*
X146103005Y-57099885D01*
X146103005Y-57099885D02*
X145988720Y-57157028D01*
X145988720Y-57157028D02*
X145931577Y-57214171D01*
X145931577Y-57214171D02*
X145874434Y-57328457D01*
X147245862Y-57157028D02*
X147131577Y-57099885D01*
X147131577Y-57099885D02*
X147074434Y-57042742D01*
X147074434Y-57042742D02*
X147017291Y-56928457D01*
X147017291Y-56928457D02*
X147017291Y-56871314D01*
X147017291Y-56871314D02*
X147074434Y-56757028D01*
X147074434Y-56757028D02*
X147131577Y-56699885D01*
X147131577Y-56699885D02*
X147245862Y-56642742D01*
X147245862Y-56642742D02*
X147474434Y-56642742D01*
X147474434Y-56642742D02*
X147588720Y-56699885D01*
X147588720Y-56699885D02*
X147645862Y-56757028D01*
X147645862Y-56757028D02*
X147703005Y-56871314D01*
X147703005Y-56871314D02*
X147703005Y-56928457D01*
X147703005Y-56928457D02*
X147645862Y-57042742D01*
X147645862Y-57042742D02*
X147588720Y-57099885D01*
X147588720Y-57099885D02*
X147474434Y-57157028D01*
X147474434Y-57157028D02*
X147245862Y-57157028D01*
X147245862Y-57157028D02*
X147131577Y-57214171D01*
X147131577Y-57214171D02*
X147074434Y-57271314D01*
X147074434Y-57271314D02*
X147017291Y-57385600D01*
X147017291Y-57385600D02*
X147017291Y-57614171D01*
X147017291Y-57614171D02*
X147074434Y-57728457D01*
X147074434Y-57728457D02*
X147131577Y-57785600D01*
X147131577Y-57785600D02*
X147245862Y-57842742D01*
X147245862Y-57842742D02*
X147474434Y-57842742D01*
X147474434Y-57842742D02*
X147588720Y-57785600D01*
X147588720Y-57785600D02*
X147645862Y-57728457D01*
X147645862Y-57728457D02*
X147703005Y-57614171D01*
X147703005Y-57614171D02*
X147703005Y-57385600D01*
X147703005Y-57385600D02*
X147645862Y-57271314D01*
X147645862Y-57271314D02*
X147588720Y-57214171D01*
X147588720Y-57214171D02*
X147474434Y-57157028D01*
X148388719Y-57157028D02*
X148274434Y-57099885D01*
X148274434Y-57099885D02*
X148217291Y-57042742D01*
X148217291Y-57042742D02*
X148160148Y-56928457D01*
X148160148Y-56928457D02*
X148160148Y-56871314D01*
X148160148Y-56871314D02*
X148217291Y-56757028D01*
X148217291Y-56757028D02*
X148274434Y-56699885D01*
X148274434Y-56699885D02*
X148388719Y-56642742D01*
X148388719Y-56642742D02*
X148617291Y-56642742D01*
X148617291Y-56642742D02*
X148731577Y-56699885D01*
X148731577Y-56699885D02*
X148788719Y-56757028D01*
X148788719Y-56757028D02*
X148845862Y-56871314D01*
X148845862Y-56871314D02*
X148845862Y-56928457D01*
X148845862Y-56928457D02*
X148788719Y-57042742D01*
X148788719Y-57042742D02*
X148731577Y-57099885D01*
X148731577Y-57099885D02*
X148617291Y-57157028D01*
X148617291Y-57157028D02*
X148388719Y-57157028D01*
X148388719Y-57157028D02*
X148274434Y-57214171D01*
X148274434Y-57214171D02*
X148217291Y-57271314D01*
X148217291Y-57271314D02*
X148160148Y-57385600D01*
X148160148Y-57385600D02*
X148160148Y-57614171D01*
X148160148Y-57614171D02*
X148217291Y-57728457D01*
X148217291Y-57728457D02*
X148274434Y-57785600D01*
X148274434Y-57785600D02*
X148388719Y-57842742D01*
X148388719Y-57842742D02*
X148617291Y-57842742D01*
X148617291Y-57842742D02*
X148731577Y-57785600D01*
X148731577Y-57785600D02*
X148788719Y-57728457D01*
X148788719Y-57728457D02*
X148845862Y-57614171D01*
X148845862Y-57614171D02*
X148845862Y-57385600D01*
X148845862Y-57385600D02*
X148788719Y-57271314D01*
X148788719Y-57271314D02*
X148731577Y-57214171D01*
X148731577Y-57214171D02*
X148617291Y-57157028D01*
X135845863Y-87806028D02*
X135345863Y-87091742D01*
X134988720Y-87806028D02*
X134988720Y-86306028D01*
X134988720Y-86306028D02*
X135560149Y-86306028D01*
X135560149Y-86306028D02*
X135703006Y-86377457D01*
X135703006Y-86377457D02*
X135774435Y-86448885D01*
X135774435Y-86448885D02*
X135845863Y-86591742D01*
X135845863Y-86591742D02*
X135845863Y-86806028D01*
X135845863Y-86806028D02*
X135774435Y-86948885D01*
X135774435Y-86948885D02*
X135703006Y-87020314D01*
X135703006Y-87020314D02*
X135560149Y-87091742D01*
X135560149Y-87091742D02*
X134988720Y-87091742D01*
X136417292Y-87734600D02*
X136631578Y-87806028D01*
X136631578Y-87806028D02*
X136988720Y-87806028D01*
X136988720Y-87806028D02*
X137131578Y-87734600D01*
X137131578Y-87734600D02*
X137203006Y-87663171D01*
X137203006Y-87663171D02*
X137274435Y-87520314D01*
X137274435Y-87520314D02*
X137274435Y-87377457D01*
X137274435Y-87377457D02*
X137203006Y-87234600D01*
X137203006Y-87234600D02*
X137131578Y-87163171D01*
X137131578Y-87163171D02*
X136988720Y-87091742D01*
X136988720Y-87091742D02*
X136703006Y-87020314D01*
X136703006Y-87020314D02*
X136560149Y-86948885D01*
X136560149Y-86948885D02*
X136488720Y-86877457D01*
X136488720Y-86877457D02*
X136417292Y-86734600D01*
X136417292Y-86734600D02*
X136417292Y-86591742D01*
X136417292Y-86591742D02*
X136488720Y-86448885D01*
X136488720Y-86448885D02*
X136560149Y-86377457D01*
X136560149Y-86377457D02*
X136703006Y-86306028D01*
X136703006Y-86306028D02*
X137060149Y-86306028D01*
X137060149Y-86306028D02*
X137274435Y-86377457D01*
X137703006Y-86306028D02*
X138560149Y-86306028D01*
X138131577Y-87806028D02*
X138131577Y-86306028D01*
X153488720Y-87020314D02*
X153703006Y-87091742D01*
X153703006Y-87091742D02*
X153774435Y-87163171D01*
X153774435Y-87163171D02*
X153845863Y-87306028D01*
X153845863Y-87306028D02*
X153845863Y-87520314D01*
X153845863Y-87520314D02*
X153774435Y-87663171D01*
X153774435Y-87663171D02*
X153703006Y-87734600D01*
X153703006Y-87734600D02*
X153560149Y-87806028D01*
X153560149Y-87806028D02*
X152988720Y-87806028D01*
X152988720Y-87806028D02*
X152988720Y-86306028D01*
X152988720Y-86306028D02*
X153488720Y-86306028D01*
X153488720Y-86306028D02*
X153631578Y-86377457D01*
X153631578Y-86377457D02*
X153703006Y-86448885D01*
X153703006Y-86448885D02*
X153774435Y-86591742D01*
X153774435Y-86591742D02*
X153774435Y-86734600D01*
X153774435Y-86734600D02*
X153703006Y-86877457D01*
X153703006Y-86877457D02*
X153631578Y-86948885D01*
X153631578Y-86948885D02*
X153488720Y-87020314D01*
X153488720Y-87020314D02*
X152988720Y-87020314D01*
X154774435Y-86306028D02*
X155060149Y-86306028D01*
X155060149Y-86306028D02*
X155203006Y-86377457D01*
X155203006Y-86377457D02*
X155345863Y-86520314D01*
X155345863Y-86520314D02*
X155417292Y-86806028D01*
X155417292Y-86806028D02*
X155417292Y-87306028D01*
X155417292Y-87306028D02*
X155345863Y-87591742D01*
X155345863Y-87591742D02*
X155203006Y-87734600D01*
X155203006Y-87734600D02*
X155060149Y-87806028D01*
X155060149Y-87806028D02*
X154774435Y-87806028D01*
X154774435Y-87806028D02*
X154631578Y-87734600D01*
X154631578Y-87734600D02*
X154488720Y-87591742D01*
X154488720Y-87591742D02*
X154417292Y-87306028D01*
X154417292Y-87306028D02*
X154417292Y-86806028D01*
X154417292Y-86806028D02*
X154488720Y-86520314D01*
X154488720Y-86520314D02*
X154631578Y-86377457D01*
X154631578Y-86377457D02*
X154774435Y-86306028D01*
X156345864Y-86306028D02*
X156631578Y-86306028D01*
X156631578Y-86306028D02*
X156774435Y-86377457D01*
X156774435Y-86377457D02*
X156917292Y-86520314D01*
X156917292Y-86520314D02*
X156988721Y-86806028D01*
X156988721Y-86806028D02*
X156988721Y-87306028D01*
X156988721Y-87306028D02*
X156917292Y-87591742D01*
X156917292Y-87591742D02*
X156774435Y-87734600D01*
X156774435Y-87734600D02*
X156631578Y-87806028D01*
X156631578Y-87806028D02*
X156345864Y-87806028D01*
X156345864Y-87806028D02*
X156203007Y-87734600D01*
X156203007Y-87734600D02*
X156060149Y-87591742D01*
X156060149Y-87591742D02*
X155988721Y-87306028D01*
X155988721Y-87306028D02*
X155988721Y-86806028D01*
X155988721Y-86806028D02*
X156060149Y-86520314D01*
X156060149Y-86520314D02*
X156203007Y-86377457D01*
X156203007Y-86377457D02*
X156345864Y-86306028D01*
X157417293Y-86306028D02*
X158274436Y-86306028D01*
X157845864Y-87806028D02*
X157845864Y-86306028D01*
D12*
X136234147Y-90944076D02*
X135600813Y-90039314D01*
X135148432Y-90944076D02*
X135148432Y-89044076D01*
X135148432Y-89044076D02*
X135872242Y-89044076D01*
X135872242Y-89044076D02*
X136053194Y-89134552D01*
X136053194Y-89134552D02*
X136143671Y-89225028D01*
X136143671Y-89225028D02*
X136234147Y-89405980D01*
X136234147Y-89405980D02*
X136234147Y-89677409D01*
X136234147Y-89677409D02*
X136143671Y-89858361D01*
X136143671Y-89858361D02*
X136053194Y-89948838D01*
X136053194Y-89948838D02*
X135872242Y-90039314D01*
X135872242Y-90039314D02*
X135148432Y-90039314D01*
X137319861Y-90944076D02*
X137138909Y-90853600D01*
X137138909Y-90853600D02*
X137048432Y-90763123D01*
X137048432Y-90763123D02*
X136957956Y-90582171D01*
X136957956Y-90582171D02*
X136957956Y-90039314D01*
X136957956Y-90039314D02*
X137048432Y-89858361D01*
X137048432Y-89858361D02*
X137138909Y-89767885D01*
X137138909Y-89767885D02*
X137319861Y-89677409D01*
X137319861Y-89677409D02*
X137591290Y-89677409D01*
X137591290Y-89677409D02*
X137772242Y-89767885D01*
X137772242Y-89767885D02*
X137862718Y-89858361D01*
X137862718Y-89858361D02*
X137953194Y-90039314D01*
X137953194Y-90039314D02*
X137953194Y-90582171D01*
X137953194Y-90582171D02*
X137862718Y-90763123D01*
X137862718Y-90763123D02*
X137772242Y-90853600D01*
X137772242Y-90853600D02*
X137591290Y-90944076D01*
X137591290Y-90944076D02*
X137319861Y-90944076D01*
X138496052Y-89677409D02*
X139219861Y-89677409D01*
X138767480Y-89044076D02*
X138767480Y-90672647D01*
X138767480Y-90672647D02*
X138857957Y-90853600D01*
X138857957Y-90853600D02*
X139038909Y-90944076D01*
X139038909Y-90944076D02*
X139219861Y-90944076D01*
X139853194Y-90944076D02*
X139853194Y-89677409D01*
X139853194Y-89044076D02*
X139762718Y-89134552D01*
X139762718Y-89134552D02*
X139853194Y-89225028D01*
X139853194Y-89225028D02*
X139943671Y-89134552D01*
X139943671Y-89134552D02*
X139853194Y-89044076D01*
X139853194Y-89044076D02*
X139853194Y-89225028D01*
X142205575Y-90944076D02*
X142205575Y-89044076D01*
X142205575Y-89044076D02*
X142929385Y-89044076D01*
X142929385Y-89044076D02*
X143110337Y-89134552D01*
X143110337Y-89134552D02*
X143200814Y-89225028D01*
X143200814Y-89225028D02*
X143291290Y-89405980D01*
X143291290Y-89405980D02*
X143291290Y-89677409D01*
X143291290Y-89677409D02*
X143200814Y-89858361D01*
X143200814Y-89858361D02*
X143110337Y-89948838D01*
X143110337Y-89948838D02*
X142929385Y-90039314D01*
X142929385Y-90039314D02*
X142205575Y-90039314D01*
X144105575Y-90944076D02*
X144105575Y-89677409D01*
X144105575Y-90039314D02*
X144196052Y-89858361D01*
X144196052Y-89858361D02*
X144286528Y-89767885D01*
X144286528Y-89767885D02*
X144467480Y-89677409D01*
X144467480Y-89677409D02*
X144648433Y-89677409D01*
X145553194Y-90944076D02*
X145372242Y-90853600D01*
X145372242Y-90853600D02*
X145281765Y-90763123D01*
X145281765Y-90763123D02*
X145191289Y-90582171D01*
X145191289Y-90582171D02*
X145191289Y-90039314D01*
X145191289Y-90039314D02*
X145281765Y-89858361D01*
X145281765Y-89858361D02*
X145372242Y-89767885D01*
X145372242Y-89767885D02*
X145553194Y-89677409D01*
X145553194Y-89677409D02*
X145824623Y-89677409D01*
X145824623Y-89677409D02*
X146005575Y-89767885D01*
X146005575Y-89767885D02*
X146096051Y-89858361D01*
X146096051Y-89858361D02*
X146186527Y-90039314D01*
X146186527Y-90039314D02*
X146186527Y-90582171D01*
X146186527Y-90582171D02*
X146096051Y-90763123D01*
X146096051Y-90763123D02*
X146005575Y-90853600D01*
X146005575Y-90853600D02*
X145824623Y-90944076D01*
X145824623Y-90944076D02*
X145553194Y-90944076D01*
X147815099Y-90944076D02*
X147815099Y-89948838D01*
X147815099Y-89948838D02*
X147724623Y-89767885D01*
X147724623Y-89767885D02*
X147543671Y-89677409D01*
X147543671Y-89677409D02*
X147181766Y-89677409D01*
X147181766Y-89677409D02*
X147000813Y-89767885D01*
X147815099Y-90853600D02*
X147634147Y-90944076D01*
X147634147Y-90944076D02*
X147181766Y-90944076D01*
X147181766Y-90944076D02*
X147000813Y-90853600D01*
X147000813Y-90853600D02*
X146910337Y-90672647D01*
X146910337Y-90672647D02*
X146910337Y-90491695D01*
X146910337Y-90491695D02*
X147000813Y-90310742D01*
X147000813Y-90310742D02*
X147181766Y-90220266D01*
X147181766Y-90220266D02*
X147634147Y-90220266D01*
X147634147Y-90220266D02*
X147815099Y-90129790D01*
X150167480Y-90944076D02*
X150167480Y-89044076D01*
X151072242Y-90944076D02*
X151072242Y-89044076D01*
D13*
X150738095Y-70506819D02*
X151309523Y-70506819D01*
X151023809Y-71506819D02*
X151023809Y-70506819D01*
X151642857Y-71506819D02*
X151642857Y-70506819D01*
X151642857Y-70506819D02*
X152023809Y-70506819D01*
X152023809Y-70506819D02*
X152119047Y-70554438D01*
X152119047Y-70554438D02*
X152166666Y-70602057D01*
X152166666Y-70602057D02*
X152214285Y-70697295D01*
X152214285Y-70697295D02*
X152214285Y-70840152D01*
X152214285Y-70840152D02*
X152166666Y-70935390D01*
X152166666Y-70935390D02*
X152119047Y-70983009D01*
X152119047Y-70983009D02*
X152023809Y-71030628D01*
X152023809Y-71030628D02*
X151642857Y-71030628D01*
X152547619Y-70506819D02*
X153166666Y-70506819D01*
X153166666Y-70506819D02*
X152833333Y-70887771D01*
X152833333Y-70887771D02*
X152976190Y-70887771D01*
X152976190Y-70887771D02*
X153071428Y-70935390D01*
X153071428Y-70935390D02*
X153119047Y-70983009D01*
X153119047Y-70983009D02*
X153166666Y-71078247D01*
X153166666Y-71078247D02*
X153166666Y-71316342D01*
X153166666Y-71316342D02*
X153119047Y-71411580D01*
X153119047Y-71411580D02*
X153071428Y-71459200D01*
X153071428Y-71459200D02*
X152976190Y-71506819D01*
X152976190Y-71506819D02*
X152690476Y-71506819D01*
X152690476Y-71506819D02*
X152595238Y-71459200D01*
X152595238Y-71459200D02*
X152547619Y-71411580D01*
%TO.C,C16*%
D14*
X130490000Y-72508767D02*
X130490000Y-72216233D01*
X131510000Y-72508767D02*
X131510000Y-72216233D01*
%TO.C,R8*%
X158977500Y-71167224D02*
X158977500Y-70657776D01*
X160022500Y-71167224D02*
X160022500Y-70657776D01*
%TO.C,TP2*%
X135700000Y-75500000D02*
G75*
G02*
X134300000Y-75500000I-700000J0D01*
G01*
X134300000Y-75500000D02*
G75*
G02*
X135700000Y-75500000I700000J0D01*
G01*
%TO.C,C11*%
X151265000Y-59276248D02*
X151265000Y-59798752D01*
X152735000Y-59276248D02*
X152735000Y-59798752D01*
%TO.C,TP3*%
X152700000Y-72500000D02*
G75*
G02*
X151300000Y-72500000I-700000J0D01*
G01*
X151300000Y-72500000D02*
G75*
G02*
X152700000Y-72500000I700000J0D01*
G01*
%TO.C,R16*%
X127977500Y-90167224D02*
X127977500Y-89657776D01*
X129022500Y-90167224D02*
X129022500Y-89657776D01*
%TO.C,R6*%
X127477500Y-55342224D02*
X127477500Y-54832776D01*
X128522500Y-55342224D02*
X128522500Y-54832776D01*
%TO.C,R17*%
X129477500Y-89657776D02*
X129477500Y-90167224D01*
X130522500Y-89657776D02*
X130522500Y-90167224D01*
%TO.C,TP1*%
X135700000Y-73000000D02*
G75*
G02*
X134300000Y-73000000I-700000J0D01*
G01*
X134300000Y-73000000D02*
G75*
G02*
X135700000Y-73000000I700000J0D01*
G01*
%TO.C,C18*%
X155990000Y-59508767D02*
X155990000Y-59216233D01*
X157010000Y-59508767D02*
X157010000Y-59216233D01*
%TO.C,R5*%
X130477500Y-55342224D02*
X130477500Y-54832776D01*
X131522500Y-55342224D02*
X131522500Y-54832776D01*
%TO.C,R15*%
X127477500Y-72667224D02*
X127477500Y-72157776D01*
X128522500Y-72667224D02*
X128522500Y-72157776D01*
%TO.C,C4*%
X145990000Y-79216233D02*
X145990000Y-79508767D01*
X147010000Y-79216233D02*
X147010000Y-79508767D01*
%TO.C,U3*%
D11*
X140825000Y-58500000D02*
X142300000Y-58500000D01*
X142650000Y-58650000D02*
X146350000Y-58650000D01*
X142650000Y-68350000D02*
X142650000Y-58650000D01*
X146350000Y-58650000D02*
X146350000Y-68350000D01*
X146350000Y-68350000D02*
X142650000Y-68350000D01*
%TO.C,C5*%
D14*
X133490000Y-64216233D02*
X133490000Y-64508767D01*
X134510000Y-64216233D02*
X134510000Y-64508767D01*
%TO.C,IC1*%
D11*
X142100000Y-72450000D02*
X143500000Y-72450000D01*
%TO.C,J13*%
D14*
X119250000Y-74600000D02*
X119250000Y-75850000D01*
X119250000Y-75850000D02*
X120500000Y-75850000D01*
X121800000Y-67950000D02*
X121800000Y-68700000D01*
X121800000Y-68700000D02*
X124750000Y-68700000D01*
X121800000Y-74800000D02*
X124750000Y-74800000D01*
X121800000Y-75550000D02*
X121800000Y-74800000D01*
X124750000Y-68700000D02*
X124750000Y-71750000D01*
X124750000Y-74800000D02*
X124750000Y-71750000D01*
X119540000Y-67940000D02*
X125510000Y-67940000D01*
X125510000Y-75560000D01*
X119540000Y-75560000D01*
X119540000Y-67940000D01*
X119550000Y-67950000D02*
X120300000Y-67950000D01*
X120300000Y-69750000D01*
X119550000Y-69750000D01*
X119550000Y-67950000D01*
X119550000Y-71250000D02*
X120300000Y-71250000D01*
X120300000Y-72250000D01*
X119550000Y-72250000D01*
X119550000Y-71250000D01*
X119550000Y-73750000D02*
X120300000Y-73750000D01*
X120300000Y-75550000D01*
X119550000Y-75550000D01*
X119550000Y-73750000D01*
%TO.C,R3*%
X143477500Y-79157776D02*
X143477500Y-79667224D01*
X144522500Y-79157776D02*
X144522500Y-79667224D01*
%TO.C,R13*%
X127477500Y-59842224D02*
X127477500Y-59332776D01*
X128522500Y-59842224D02*
X128522500Y-59332776D01*
%TO.C,J6*%
X150220000Y-40600000D02*
X151600000Y-40600000D01*
X150220000Y-41980000D02*
X150220000Y-40600000D01*
X150220000Y-43250000D02*
X150220000Y-56060000D01*
X150220000Y-43250000D02*
X152980000Y-43250000D01*
X150220000Y-56060000D02*
X152980000Y-56060000D01*
X152980000Y-43250000D02*
X152980000Y-56060000D01*
%TO.C,TP8*%
X152700000Y-75800000D02*
G75*
G02*
X151300000Y-75800000I-700000J0D01*
G01*
X151300000Y-75800000D02*
G75*
G02*
X152700000Y-75800000I700000J0D01*
G01*
%TO.C,SW2*%
D10*
D15*
X132250000Y-79500000D02*
X132249999Y-79500000D01*
X132249999Y-79500000D01*
X132249999Y-79500000D01*
X132249999Y-79500000D01*
X132249999Y-79500000D01*
X132249999Y-79500000D01*
X132249999Y-79500000D01*
X132249999Y-79499999D01*
X132249999Y-79499999D01*
X132249999Y-79499999D01*
X132249999Y-79499999D01*
X132249999Y-79499999D01*
X132250000Y-79499999D01*
X132250000Y-79499999D01*
X132250000Y-79499999D01*
X132250000Y-79499999D01*
X132250000Y-79499999D01*
X132250000Y-79499999D01*
X132250000Y-79499999D01*
X132250000Y-79499999D01*
X132250000Y-79499999D01*
X132250000Y-79499999D01*
X132250000Y-79499999D01*
X132250000Y-79499999D01*
X132250001Y-79499999D01*
X132250001Y-79499999D01*
X132250001Y-79499999D01*
X132250001Y-79499999D01*
X132250001Y-79499999D01*
X132250001Y-79499999D01*
X132250001Y-79500000D01*
X132250001Y-79500000D01*
X132250001Y-79500000D01*
X132250001Y-79500000D01*
X132250001Y-79500000D01*
X132250001Y-79500000D01*
X132250001Y-79500000D01*
X132250000Y-79500000D01*
X132250000Y-79500000D02*
X132250001Y-79500000D01*
X132250001Y-79500000D01*
X132250001Y-79500000D01*
X132250001Y-79500000D01*
X132250001Y-79500000D01*
X132250001Y-79500000D01*
X132250001Y-79500001D01*
X132250001Y-79500001D01*
X132250001Y-79500001D01*
X132250001Y-79500001D01*
X132250001Y-79500001D01*
X132250001Y-79500001D01*
X132250001Y-79500001D01*
X132250000Y-79500001D01*
X132250000Y-79500001D01*
X132250000Y-79500001D01*
X132250000Y-79500001D01*
X132250000Y-79500001D01*
X132250000Y-79500001D01*
X132250000Y-79500001D01*
X132250000Y-79500001D01*
X132250000Y-79500001D01*
X132250000Y-79500001D01*
X132250000Y-79500001D01*
X132250000Y-79500001D01*
X132249999Y-79500001D01*
X132249999Y-79500001D01*
X132249999Y-79500001D01*
X132249999Y-79500001D01*
X132249999Y-79500001D01*
X132249999Y-79500001D01*
X132249999Y-79500000D01*
X132249999Y-79500000D01*
X132249999Y-79500000D01*
X132249999Y-79500000D01*
X132249999Y-79500000D01*
X132249999Y-79500000D01*
X132250000Y-79500000D01*
D10*
D15*
X132350000Y-79500000D02*
X132349999Y-79500000D01*
X132349999Y-79500000D01*
X132349999Y-79500000D01*
X132349999Y-79500000D01*
X132349999Y-79500000D01*
X132349999Y-79500000D01*
X132349999Y-79500000D01*
X132349999Y-79499999D01*
X132349999Y-79499999D01*
X132349999Y-79499999D01*
X132349999Y-79499999D01*
X132349999Y-79499999D01*
X132350000Y-79499999D01*
X132350000Y-79499999D01*
X132350000Y-79499999D01*
X132350000Y-79499999D01*
X132350000Y-79499999D01*
X132350000Y-79499999D01*
X132350000Y-79499999D01*
X132350000Y-79499999D01*
X132350000Y-79499999D01*
X132350000Y-79499999D01*
X132350000Y-79499999D01*
X132350000Y-79499999D01*
X132350001Y-79499999D01*
X132350001Y-79499999D01*
X132350001Y-79499999D01*
X132350001Y-79499999D01*
X132350001Y-79499999D01*
X132350001Y-79499999D01*
X132350001Y-79500000D01*
X132350001Y-79500000D01*
X132350001Y-79500000D01*
X132350001Y-79500000D01*
X132350001Y-79500000D01*
X132350001Y-79500000D01*
X132350001Y-79500000D01*
X132350000Y-79500000D01*
X132350000Y-79500000D02*
X132350001Y-79500000D01*
X132350001Y-79500000D01*
X132350001Y-79500000D01*
X132350001Y-79500000D01*
X132350001Y-79500000D01*
X132350001Y-79500000D01*
X132350001Y-79500001D01*
X132350001Y-79500001D01*
X132350001Y-79500001D01*
X132350001Y-79500001D01*
X132350001Y-79500001D01*
X132350001Y-79500001D01*
X132350001Y-79500001D01*
X132350000Y-79500001D01*
X132350000Y-79500001D01*
X132350000Y-79500001D01*
X132350000Y-79500001D01*
X132350000Y-79500001D01*
X132350000Y-79500001D01*
X132350000Y-79500001D01*
X132350000Y-79500001D01*
X132350000Y-79500001D01*
X132350000Y-79500001D01*
X132350000Y-79500001D01*
X132350000Y-79500001D01*
X132349999Y-79500001D01*
X132349999Y-79500001D01*
X132349999Y-79500001D01*
X132349999Y-79500001D01*
X132349999Y-79500001D01*
X132349999Y-79500001D01*
X132349999Y-79500000D01*
X132349999Y-79500000D01*
X132349999Y-79500000D01*
X132349999Y-79500000D01*
X132349999Y-79500000D01*
X132349999Y-79500000D01*
X132350000Y-79500000D01*
D11*
X133750000Y-80550000D02*
X133750000Y-82950000D01*
X134750000Y-78750000D02*
X139150000Y-78750000D01*
X139150000Y-84750000D02*
X134350000Y-84750000D01*
X139750000Y-80550000D02*
X139750000Y-82950000D01*
D10*
X132250000Y-79500000D02*
G75*
G02*
X132350000Y-79500000I50000J0D01*
G01*
X132350000Y-79500000D02*
G75*
G02*
X132250000Y-79500000I-50000J0D01*
G01*
%TO.C,SW1*%
D15*
X150750000Y-79500000D02*
X150749999Y-79500000D01*
X150749999Y-79500000D01*
X150749999Y-79500000D01*
X150749999Y-79500000D01*
X150749999Y-79500000D01*
X150749999Y-79500000D01*
X150749999Y-79500000D01*
X150749999Y-79499999D01*
X150749999Y-79499999D01*
X150749999Y-79499999D01*
X150749999Y-79499999D01*
X150749999Y-79499999D01*
X150750000Y-79499999D01*
X150750000Y-79499999D01*
X150750000Y-79499999D01*
X150750000Y-79499999D01*
X150750000Y-79499999D01*
X150750000Y-79499999D01*
X150750000Y-79499999D01*
X150750000Y-79499999D01*
X150750000Y-79499999D01*
X150750000Y-79499999D01*
X150750000Y-79499999D01*
X150750000Y-79499999D01*
X150750001Y-79499999D01*
X150750001Y-79499999D01*
X150750001Y-79499999D01*
X150750001Y-79499999D01*
X150750001Y-79499999D01*
X150750001Y-79499999D01*
X150750001Y-79500000D01*
X150750001Y-79500000D01*
X150750001Y-79500000D01*
X150750001Y-79500000D01*
X150750001Y-79500000D01*
X150750001Y-79500000D01*
X150750001Y-79500000D01*
X150750000Y-79500000D01*
X150750000Y-79500000D02*
X150750001Y-79500000D01*
X150750001Y-79500000D01*
X150750001Y-79500000D01*
X150750001Y-79500000D01*
X150750001Y-79500000D01*
X150750001Y-79500000D01*
X150750001Y-79500001D01*
X150750001Y-79500001D01*
X150750001Y-79500001D01*
X150750001Y-79500001D01*
X150750001Y-79500001D01*
X150750001Y-79500001D01*
X150750001Y-79500001D01*
X150750000Y-79500001D01*
X150750000Y-79500001D01*
X150750000Y-79500001D01*
X150750000Y-79500001D01*
X150750000Y-79500001D01*
X150750000Y-79500001D01*
X150750000Y-79500001D01*
X150750000Y-79500001D01*
X150750000Y-79500001D01*
X150750000Y-79500001D01*
X150750000Y-79500001D01*
X150750000Y-79500001D01*
X150749999Y-79500001D01*
X150749999Y-79500001D01*
X150749999Y-79500001D01*
X150749999Y-79500001D01*
X150749999Y-79500001D01*
X150749999Y-79500001D01*
X150749999Y-79500000D01*
X150749999Y-79500000D01*
X150749999Y-79500000D01*
X150749999Y-79500000D01*
X150749999Y-79500000D01*
X150749999Y-79500000D01*
X150750000Y-79500000D01*
D10*
D15*
X150850000Y-79500000D02*
X150849999Y-79500000D01*
X150849999Y-79500000D01*
X150849999Y-79500000D01*
X150849999Y-79500000D01*
X150849999Y-79500000D01*
X150849999Y-79500000D01*
X150849999Y-79500000D01*
X150849999Y-79499999D01*
X150849999Y-79499999D01*
X150849999Y-79499999D01*
X150849999Y-79499999D01*
X150849999Y-79499999D01*
X150850000Y-79499999D01*
X150850000Y-79499999D01*
X150850000Y-79499999D01*
X150850000Y-79499999D01*
X150850000Y-79499999D01*
X150850000Y-79499999D01*
X150850000Y-79499999D01*
X150850000Y-79499999D01*
X150850000Y-79499999D01*
X150850000Y-79499999D01*
X150850000Y-79499999D01*
X150850000Y-79499999D01*
X150850001Y-79499999D01*
X150850001Y-79499999D01*
X150850001Y-79499999D01*
X150850001Y-79499999D01*
X150850001Y-79499999D01*
X150850001Y-79499999D01*
X150850001Y-79500000D01*
X150850001Y-79500000D01*
X150850001Y-79500000D01*
X150850001Y-79500000D01*
X150850001Y-79500000D01*
X150850001Y-79500000D01*
X150850001Y-79500000D01*
X150850000Y-79500000D01*
X150850000Y-79500000D02*
X150850001Y-79500000D01*
X150850001Y-79500000D01*
X150850001Y-79500000D01*
X150850001Y-79500000D01*
X150850001Y-79500000D01*
X150850001Y-79500000D01*
X150850001Y-79500001D01*
X150850001Y-79500001D01*
X150850001Y-79500001D01*
X150850001Y-79500001D01*
X150850001Y-79500001D01*
X150850001Y-79500001D01*
X150850001Y-79500001D01*
X150850000Y-79500001D01*
X150850000Y-79500001D01*
X150850000Y-79500001D01*
X150850000Y-79500001D01*
X150850000Y-79500001D01*
X150850000Y-79500001D01*
X150850000Y-79500001D01*
X150850000Y-79500001D01*
X150850000Y-79500001D01*
X150850000Y-79500001D01*
X150850000Y-79500001D01*
X150850000Y-79500001D01*
X150849999Y-79500001D01*
X150849999Y-79500001D01*
X150849999Y-79500001D01*
X150849999Y-79500001D01*
X150849999Y-79500001D01*
X150849999Y-79500001D01*
X150849999Y-79500000D01*
X150849999Y-79500000D01*
X150849999Y-79500000D01*
X150849999Y-79500000D01*
X150849999Y-79500000D01*
X150849999Y-79500000D01*
X150850000Y-79500000D01*
D11*
X152250000Y-80550000D02*
X152250000Y-82950000D01*
X153250000Y-78750000D02*
X157650000Y-78750000D01*
X157650000Y-84750000D02*
X152850000Y-84750000D01*
X158250000Y-80550000D02*
X158250000Y-82950000D01*
D10*
X150750000Y-79500000D02*
G75*
G02*
X150850000Y-79500000I50000J0D01*
G01*
X150850000Y-79500000D02*
G75*
G02*
X150750000Y-79500000I-50000J0D01*
G01*
%TO.C,IC2*%
D15*
X126750000Y-39000000D02*
X126749999Y-39000000D01*
X126749999Y-39000000D01*
X126749999Y-39000000D01*
X126749999Y-39000000D01*
X126749999Y-39000000D01*
X126749999Y-39000000D01*
X126749999Y-39000000D01*
X126749999Y-38999999D01*
X126749999Y-38999999D01*
X126749999Y-38999999D01*
X126749999Y-38999999D01*
X126749999Y-38999999D01*
X126750000Y-38999999D01*
X126750000Y-38999999D01*
X126750000Y-38999999D01*
X126750000Y-38999999D01*
X126750000Y-38999999D01*
X126750000Y-38999999D01*
X126750000Y-38999999D01*
X126750000Y-38999999D01*
X126750000Y-38999999D01*
X126750000Y-38999999D01*
X126750000Y-38999999D01*
X126750000Y-38999999D01*
X126750001Y-38999999D01*
X126750001Y-38999999D01*
X126750001Y-38999999D01*
X126750001Y-38999999D01*
X126750001Y-38999999D01*
X126750001Y-38999999D01*
X126750001Y-39000000D01*
X126750001Y-39000000D01*
X126750001Y-39000000D01*
X126750001Y-39000000D01*
X126750001Y-39000000D01*
X126750001Y-39000000D01*
X126750001Y-39000000D01*
X126750000Y-39000000D01*
X126750000Y-39000000D02*
X126750001Y-39000000D01*
X126750001Y-39000000D01*
X126750001Y-39000000D01*
X126750001Y-39000000D01*
X126750001Y-39000000D01*
X126750001Y-39000000D01*
X126750001Y-39000001D01*
X126750001Y-39000001D01*
X126750001Y-39000001D01*
X126750001Y-39000001D01*
X126750001Y-39000001D01*
X126750001Y-39000001D01*
X126750001Y-39000001D01*
X126750000Y-39000001D01*
X126750000Y-39000001D01*
X126750000Y-39000001D01*
X126750000Y-39000001D01*
X126750000Y-39000001D01*
X126750000Y-39000001D01*
X126750000Y-39000001D01*
X126750000Y-39000001D01*
X126750000Y-39000001D01*
X126750000Y-39000001D01*
X126750000Y-39000001D01*
X126750000Y-39000001D01*
X126749999Y-39000001D01*
X126749999Y-39000001D01*
X126749999Y-39000001D01*
X126749999Y-39000001D01*
X126749999Y-39000001D01*
X126749999Y-39000001D01*
X126749999Y-39000000D01*
X126749999Y-39000000D01*
X126749999Y-39000000D01*
X126749999Y-39000000D01*
X126749999Y-39000000D01*
X126749999Y-39000000D01*
X126750000Y-39000000D01*
D10*
D15*
X126750000Y-39100000D02*
X126749999Y-39100000D01*
X126749999Y-39100000D01*
X126749999Y-39100000D01*
X126749999Y-39100000D01*
X126749999Y-39100000D01*
X126749999Y-39100000D01*
X126749999Y-39100000D01*
X126749999Y-39099999D01*
X126749999Y-39099999D01*
X126749999Y-39099999D01*
X126749999Y-39099999D01*
X126749999Y-39099999D01*
X126750000Y-39099999D01*
X126750000Y-39099999D01*
X126750000Y-39099999D01*
X126750000Y-39099999D01*
X126750000Y-39099999D01*
X126750000Y-39099999D01*
X126750000Y-39099999D01*
X126750000Y-39099999D01*
X126750000Y-39099999D01*
X126750000Y-39099999D01*
X126750000Y-39099999D01*
X126750000Y-39099999D01*
X126750001Y-39099999D01*
X126750001Y-39099999D01*
X126750001Y-39099999D01*
X126750001Y-39099999D01*
X126750001Y-39099999D01*
X126750001Y-39099999D01*
X126750001Y-39100000D01*
X126750001Y-39100000D01*
X126750001Y-39100000D01*
X126750001Y-39100000D01*
X126750001Y-39100000D01*
X126750001Y-39100000D01*
X126750001Y-39100000D01*
X126750000Y-39100000D01*
X126750000Y-39100000D02*
X126750001Y-39100000D01*
X126750001Y-39100000D01*
X126750001Y-39100000D01*
X126750001Y-39100000D01*
X126750001Y-39100000D01*
X126750001Y-39100000D01*
X126750001Y-39100001D01*
X126750001Y-39100001D01*
X126750001Y-39100001D01*
X126750001Y-39100001D01*
X126750001Y-39100001D01*
X126750001Y-39100001D01*
X126750001Y-39100001D01*
X126750000Y-39100001D01*
X126750000Y-39100001D01*
X126750000Y-39100001D01*
X126750000Y-39100001D01*
X126750000Y-39100001D01*
X126750000Y-39100001D01*
X126750000Y-39100001D01*
X126750000Y-39100001D01*
X126750000Y-39100001D01*
X126750000Y-39100001D01*
X126750000Y-39100001D01*
X126750000Y-39100001D01*
X126749999Y-39100001D01*
X126749999Y-39100001D01*
X126749999Y-39100001D01*
X126749999Y-39100001D01*
X126749999Y-39100001D01*
X126749999Y-39100001D01*
X126749999Y-39100000D01*
X126749999Y-39100000D01*
X126749999Y-39100000D01*
X126749999Y-39100000D01*
X126749999Y-39100000D01*
X126749999Y-39100000D01*
X126750000Y-39100000D01*
D11*
X127750000Y-31900000D02*
X145750000Y-31900000D01*
X127750000Y-37900000D02*
X127750000Y-31900000D01*
X129750000Y-51900000D02*
X143750000Y-51900000D01*
X145750000Y-31900000D02*
X145750000Y-37900000D01*
D10*
X126750000Y-39000000D02*
G75*
G02*
X126750000Y-39100000I0J-50000D01*
G01*
X126750000Y-39100000D02*
G75*
G02*
X126750000Y-39000000I0J50000D01*
G01*
%TO.C,R10*%
D14*
X158977500Y-63342224D02*
X158977500Y-62832776D01*
X160022500Y-63342224D02*
X160022500Y-62832776D01*
%TO.C,C6*%
X123990000Y-46216233D02*
X123990000Y-46508767D01*
X125010000Y-46216233D02*
X125010000Y-46508767D01*
%TO.C,J10*%
X161750000Y-68700000D02*
X161750000Y-71750000D01*
X161750000Y-74800000D02*
X161750000Y-71750000D01*
X164700000Y-67950000D02*
X164700000Y-68700000D01*
X164700000Y-68700000D02*
X161750000Y-68700000D01*
X164700000Y-74800000D02*
X161750000Y-74800000D01*
X164700000Y-75550000D02*
X164700000Y-74800000D01*
X167250000Y-67650000D02*
X166000000Y-67650000D01*
X167250000Y-68900000D02*
X167250000Y-67650000D01*
X166200000Y-67950000D02*
X166950000Y-67950000D01*
X166950000Y-69750000D01*
X166200000Y-69750000D01*
X166200000Y-67950000D01*
X166200000Y-71250000D02*
X166950000Y-71250000D01*
X166950000Y-72250000D01*
X166200000Y-72250000D01*
X166200000Y-71250000D01*
X166200000Y-73750000D02*
X166950000Y-73750000D01*
X166950000Y-75550000D01*
X166200000Y-75550000D01*
X166200000Y-73750000D01*
X160990000Y-67940000D02*
X166960000Y-67940000D01*
X166960000Y-75560000D01*
X160990000Y-75560000D01*
X160990000Y-67940000D01*
%TO.C,J1*%
X137715000Y-95325000D02*
X137715000Y-97245000D01*
X137715000Y-100960000D02*
X137715000Y-99255000D01*
X146875000Y-97245000D02*
X146875000Y-95325000D01*
X146875000Y-99255000D02*
X146875000Y-100960000D01*
X146875000Y-100960000D02*
X137715000Y-100960000D01*
%TO.C,R12*%
X127477500Y-64254724D02*
X127477500Y-63745276D01*
X128522500Y-64254724D02*
X128522500Y-63745276D01*
%TO.C,C15*%
X130490000Y-68508767D02*
X130490000Y-68216233D01*
X131510000Y-68508767D02*
X131510000Y-68216233D01*
%TO.C,R11*%
X158977500Y-59667224D02*
X158977500Y-59157776D01*
X160022500Y-59667224D02*
X160022500Y-59157776D01*
%TO.C,C23*%
X121490000Y-46216233D02*
X121490000Y-46508767D01*
X122510000Y-46216233D02*
X122510000Y-46508767D01*
%TO.C,C19*%
X130490000Y-64176267D02*
X130490000Y-63883733D01*
X131510000Y-64176267D02*
X131510000Y-63883733D01*
%TO.C,TP4*%
X138700000Y-55000000D02*
G75*
G02*
X137300000Y-55000000I-700000J0D01*
G01*
X137300000Y-55000000D02*
G75*
G02*
X138700000Y-55000000I700000J0D01*
G01*
%TO.C,R18*%
X127977500Y-80667224D02*
X127977500Y-80157776D01*
X129022500Y-80667224D02*
X129022500Y-80157776D01*
%TO.C,TP7*%
X148200000Y-55000000D02*
G75*
G02*
X146800000Y-55000000I-700000J0D01*
G01*
X146800000Y-55000000D02*
G75*
G02*
X148200000Y-55000000I700000J0D01*
G01*
%TO.C,R9*%
X158977500Y-67167224D02*
X158977500Y-66657776D01*
X160022500Y-67167224D02*
X160022500Y-66657776D01*
%TO.C,R19*%
X129477500Y-80157776D02*
X129477500Y-80667224D01*
X130522500Y-80157776D02*
X130522500Y-80667224D01*
%TO.C,J9*%
X161750000Y-78200000D02*
X161750000Y-81250000D01*
X161750000Y-84300000D02*
X161750000Y-81250000D01*
X164700000Y-77450000D02*
X164700000Y-78200000D01*
X164700000Y-78200000D02*
X161750000Y-78200000D01*
X164700000Y-84300000D02*
X161750000Y-84300000D01*
X164700000Y-85050000D02*
X164700000Y-84300000D01*
X167250000Y-77150000D02*
X166000000Y-77150000D01*
X167250000Y-78400000D02*
X167250000Y-77150000D01*
X166200000Y-77450000D02*
X166950000Y-77450000D01*
X166950000Y-79250000D01*
X166200000Y-79250000D01*
X166200000Y-77450000D01*
X166200000Y-80750000D02*
X166950000Y-80750000D01*
X166950000Y-81750000D01*
X166200000Y-81750000D01*
X166200000Y-80750000D01*
X166200000Y-83250000D02*
X166950000Y-83250000D01*
X166950000Y-85050000D01*
X166200000Y-85050000D01*
X166200000Y-83250000D01*
X160990000Y-77440000D02*
X166960000Y-77440000D01*
X166960000Y-85060000D01*
X160990000Y-85060000D01*
X160990000Y-77440000D01*
%TO.C,J15*%
X161775000Y-87575000D02*
X161775000Y-90625000D01*
X161775000Y-93675000D02*
X161775000Y-90625000D01*
X164725000Y-86825000D02*
X164725000Y-87575000D01*
X164725000Y-87575000D02*
X161775000Y-87575000D01*
X164725000Y-93675000D02*
X161775000Y-93675000D01*
X164725000Y-94425000D02*
X164725000Y-93675000D01*
X167275000Y-86525000D02*
X166025000Y-86525000D01*
X167275000Y-87775000D02*
X167275000Y-86525000D01*
X166225000Y-86825000D02*
X166975000Y-86825000D01*
X166975000Y-88625000D01*
X166225000Y-88625000D01*
X166225000Y-86825000D01*
X166225000Y-90125000D02*
X166975000Y-90125000D01*
X166975000Y-91125000D01*
X166225000Y-91125000D01*
X166225000Y-90125000D01*
X166225000Y-92625000D02*
X166975000Y-92625000D01*
X166975000Y-94425000D01*
X166225000Y-94425000D01*
X166225000Y-92625000D01*
X161015000Y-86815000D02*
X166985000Y-86815000D01*
X166985000Y-94435000D01*
X161015000Y-94435000D01*
X161015000Y-86815000D01*
%TO.C,C10*%
X136990000Y-68991233D02*
X136990000Y-69283767D01*
X138010000Y-68991233D02*
X138010000Y-69283767D01*
%TO.C,J2*%
X155415000Y-48215000D02*
X156795000Y-48215000D01*
X155415000Y-49595000D02*
X155415000Y-48215000D01*
X155415000Y-50865000D02*
X155415000Y-56055000D01*
X155415000Y-50865000D02*
X158175000Y-50865000D01*
X155415000Y-56055000D02*
X158175000Y-56055000D01*
X158175000Y-50865000D02*
X158175000Y-56055000D01*
%TO.C,C12*%
X151491233Y-65490000D02*
X151783767Y-65490000D01*
X151491233Y-66510000D02*
X151783767Y-66510000D01*
%TO.C,R4*%
X148677500Y-79145276D02*
X148677500Y-79654724D01*
X149722500Y-79145276D02*
X149722500Y-79654724D01*
%TO.C,C21*%
X155990000Y-71008767D02*
X155990000Y-70716233D01*
X157010000Y-71008767D02*
X157010000Y-70716233D01*
%TO.C,C22*%
X155990000Y-67058767D02*
X155990000Y-66766233D01*
X157010000Y-67058767D02*
X157010000Y-66766233D01*
%TO.C,J8*%
X119250000Y-84100000D02*
X119250000Y-85350000D01*
X119250000Y-85350000D02*
X120500000Y-85350000D01*
X121800000Y-77450000D02*
X121800000Y-78200000D01*
X121800000Y-78200000D02*
X124750000Y-78200000D01*
X121800000Y-84300000D02*
X124750000Y-84300000D01*
X121800000Y-85050000D02*
X121800000Y-84300000D01*
X124750000Y-78200000D02*
X124750000Y-81250000D01*
X124750000Y-84300000D02*
X124750000Y-81250000D01*
X119540000Y-77440000D02*
X125510000Y-77440000D01*
X125510000Y-85060000D01*
X119540000Y-85060000D01*
X119540000Y-77440000D01*
X119550000Y-77450000D02*
X120300000Y-77450000D01*
X120300000Y-79250000D01*
X119550000Y-79250000D01*
X119550000Y-77450000D01*
X119550000Y-80750000D02*
X120300000Y-80750000D01*
X120300000Y-81750000D01*
X119550000Y-81750000D01*
X119550000Y-80750000D01*
X119550000Y-83250000D02*
X120300000Y-83250000D01*
X120300000Y-85050000D01*
X119550000Y-85050000D01*
X119550000Y-83250000D01*
%TO.C,C8*%
X135990000Y-64591233D02*
X135990000Y-64883767D01*
X137010000Y-64591233D02*
X137010000Y-64883767D01*
%TO.C,J7*%
X119250000Y-93600000D02*
X119250000Y-94850000D01*
X119250000Y-94850000D02*
X120500000Y-94850000D01*
X121800000Y-86950000D02*
X121800000Y-87700000D01*
X121800000Y-87700000D02*
X124750000Y-87700000D01*
X121800000Y-93800000D02*
X124750000Y-93800000D01*
X121800000Y-94550000D02*
X121800000Y-93800000D01*
X124750000Y-87700000D02*
X124750000Y-90750000D01*
X124750000Y-93800000D02*
X124750000Y-90750000D01*
X119540000Y-86940000D02*
X125510000Y-86940000D01*
X125510000Y-94560000D01*
X119540000Y-94560000D01*
X119540000Y-86940000D01*
X119550000Y-86950000D02*
X120300000Y-86950000D01*
X120300000Y-88750000D01*
X119550000Y-88750000D01*
X119550000Y-86950000D01*
X119550000Y-90250000D02*
X120300000Y-90250000D01*
X120300000Y-91250000D01*
X119550000Y-91250000D01*
X119550000Y-90250000D01*
X119550000Y-92750000D02*
X120300000Y-92750000D01*
X120300000Y-94550000D01*
X119550000Y-94550000D01*
X119550000Y-92750000D01*
%TO.C,J11*%
X161750000Y-59200000D02*
X161750000Y-62250000D01*
X161750000Y-65300000D02*
X161750000Y-62250000D01*
X164700000Y-58450000D02*
X164700000Y-59200000D01*
X164700000Y-59200000D02*
X161750000Y-59200000D01*
X164700000Y-65300000D02*
X161750000Y-65300000D01*
X164700000Y-66050000D02*
X164700000Y-65300000D01*
X167250000Y-58150000D02*
X166000000Y-58150000D01*
X167250000Y-59400000D02*
X167250000Y-58150000D01*
X166200000Y-58450000D02*
X166950000Y-58450000D01*
X166950000Y-60250000D01*
X166200000Y-60250000D01*
X166200000Y-58450000D01*
X166200000Y-61750000D02*
X166950000Y-61750000D01*
X166950000Y-62750000D01*
X166200000Y-62750000D01*
X166200000Y-61750000D01*
X166200000Y-64250000D02*
X166950000Y-64250000D01*
X166950000Y-66050000D01*
X166200000Y-66050000D01*
X166200000Y-64250000D01*
X160990000Y-58440000D02*
X166960000Y-58440000D01*
X166960000Y-66060000D01*
X160990000Y-66060000D01*
X160990000Y-58440000D01*
%TO.C,C14*%
X130490000Y-59646267D02*
X130490000Y-59353733D01*
X131510000Y-59646267D02*
X131510000Y-59353733D01*
%TO.C,R2*%
X144927500Y-83782776D02*
X144927500Y-84292224D01*
X145972500Y-83782776D02*
X145972500Y-84292224D01*
%TO.C,C7*%
X138290000Y-64591233D02*
X138290000Y-64883767D01*
X139310000Y-64591233D02*
X139310000Y-64883767D01*
%TO.C,C9*%
X151491233Y-62990000D02*
X151783767Y-62990000D01*
X151491233Y-64010000D02*
X151783767Y-64010000D01*
%TO.C,J12*%
X161750000Y-49700000D02*
X161750000Y-52750000D01*
X161750000Y-55800000D02*
X161750000Y-52750000D01*
X164700000Y-48950000D02*
X164700000Y-49700000D01*
X164700000Y-49700000D02*
X161750000Y-49700000D01*
X164700000Y-55800000D02*
X161750000Y-55800000D01*
X164700000Y-56550000D02*
X164700000Y-55800000D01*
X167250000Y-48650000D02*
X166000000Y-48650000D01*
X167250000Y-49900000D02*
X167250000Y-48650000D01*
X166200000Y-48950000D02*
X166950000Y-48950000D01*
X166950000Y-50750000D01*
X166200000Y-50750000D01*
X166200000Y-48950000D01*
X166200000Y-52250000D02*
X166950000Y-52250000D01*
X166950000Y-53250000D01*
X166200000Y-53250000D01*
X166200000Y-52250000D01*
X166200000Y-54750000D02*
X166950000Y-54750000D01*
X166950000Y-56550000D01*
X166200000Y-56550000D01*
X166200000Y-54750000D01*
X160990000Y-48940000D02*
X166960000Y-48940000D01*
X166960000Y-56560000D01*
X160990000Y-56560000D01*
X160990000Y-48940000D01*
%TO.C,C2*%
X149490000Y-73853733D02*
X149490000Y-74146267D01*
X150510000Y-73853733D02*
X150510000Y-74146267D01*
%TO.C,R14*%
X127477500Y-68667224D02*
X127477500Y-68157776D01*
X128522500Y-68667224D02*
X128522500Y-68157776D01*
%TO.C,C17*%
X155990000Y-63283767D02*
X155990000Y-62991233D01*
X157010000Y-63283767D02*
X157010000Y-62991233D01*
%TO.C,C3*%
X136990000Y-73991233D02*
X136990000Y-74283767D01*
X138010000Y-73991233D02*
X138010000Y-74283767D01*
%TO.C,C13*%
X139490000Y-73991233D02*
X139490000Y-74283767D01*
X140510000Y-73991233D02*
X140510000Y-74283767D01*
%TO.C,J14*%
X119250000Y-65100000D02*
X119250000Y-66350000D01*
X119250000Y-66350000D02*
X120500000Y-66350000D01*
X121800000Y-58450000D02*
X121800000Y-59200000D01*
X121800000Y-59200000D02*
X124750000Y-59200000D01*
X121800000Y-65300000D02*
X124750000Y-65300000D01*
X121800000Y-66050000D02*
X121800000Y-65300000D01*
X124750000Y-59200000D02*
X124750000Y-62250000D01*
X124750000Y-65300000D02*
X124750000Y-62250000D01*
X119540000Y-58440000D02*
X125510000Y-58440000D01*
X125510000Y-66060000D01*
X119540000Y-66060000D01*
X119540000Y-58440000D01*
X119550000Y-58450000D02*
X120300000Y-58450000D01*
X120300000Y-60250000D01*
X119550000Y-60250000D01*
X119550000Y-58450000D01*
X119550000Y-61750000D02*
X120300000Y-61750000D01*
X120300000Y-62750000D01*
X119550000Y-62750000D01*
X119550000Y-61750000D01*
X119550000Y-64250000D02*
X120300000Y-64250000D01*
X120300000Y-66050000D01*
X119550000Y-66050000D01*
X119550000Y-64250000D01*
%TO.C,TP6*%
X145200000Y-54925000D02*
G75*
G02*
X143800000Y-54925000I-700000J0D01*
G01*
X143800000Y-54925000D02*
G75*
G02*
X145200000Y-54925000I700000J0D01*
G01*
%TO.C,J16*%
X119620000Y-52770000D02*
X119620000Y-50120000D01*
X122380000Y-50120000D02*
X119620000Y-50120000D01*
X122380000Y-52770000D02*
X119620000Y-52770000D01*
X122380000Y-52770000D02*
X122380000Y-50120000D01*
X122380000Y-54040000D02*
X122380000Y-55420000D01*
X122380000Y-55420000D02*
X121000000Y-55420000D01*
%TO.C,R7*%
X135842224Y-57477500D02*
X135332776Y-57477500D01*
X135842224Y-58522500D02*
X135332776Y-58522500D01*
%TO.C,TP5*%
X141700000Y-54925000D02*
G75*
G02*
X140300000Y-54925000I-700000J0D01*
G01*
X140300000Y-54925000D02*
G75*
G02*
X141700000Y-54925000I700000J0D01*
G01*
%TO.C,C20*%
X134490000Y-68991233D02*
X134490000Y-69283767D01*
X135510000Y-68991233D02*
X135510000Y-69283767D01*
%TO.C,R20*%
X147927500Y-84317224D02*
X147927500Y-83807776D01*
X148972500Y-84317224D02*
X148972500Y-83807776D01*
%TD*%
%LPC*%
D16*
%TO.C,C16*%
X131000000Y-73225000D03*
X131000000Y-71500000D03*
%TD*%
D17*
%TO.C,R8*%
X159500000Y-71825000D03*
X159500000Y-70000000D03*
%TD*%
D18*
%TO.C,TP2*%
X135000000Y-75500000D03*
%TD*%
D19*
%TO.C,C11*%
X152000000Y-58500000D03*
X152000000Y-60575000D03*
%TD*%
D20*
%TO.C,REF\u002A\u002A*%
X166000000Y-41000000D03*
D21*
X166000000Y-41000000D03*
%TD*%
D18*
%TO.C,TP3*%
X152000000Y-72500000D03*
%TD*%
D17*
%TO.C,R16*%
X128500000Y-90825000D03*
X128500000Y-89000000D03*
%TD*%
%TO.C,R6*%
X128000000Y-56000000D03*
X128000000Y-54175000D03*
%TD*%
D22*
%TO.C,R17*%
X130000000Y-89000000D03*
X130000000Y-90825000D03*
%TD*%
D18*
%TO.C,TP1*%
X135000000Y-73000000D03*
%TD*%
D16*
%TO.C,C18*%
X156500000Y-60225000D03*
X156500000Y-58500000D03*
%TD*%
D17*
%TO.C,R5*%
X131000000Y-56000000D03*
X131000000Y-54175000D03*
%TD*%
%TO.C,R15*%
X128000000Y-73325000D03*
X128000000Y-71500000D03*
%TD*%
D23*
%TO.C,C4*%
X146500000Y-78500000D03*
X146500000Y-80225000D03*
%TD*%
D24*
%TO.C,U3*%
X141562000Y-59000000D03*
X141562000Y-59500000D03*
X141562000Y-60000000D03*
X141562000Y-60500000D03*
X141562000Y-61000000D03*
X141562000Y-61500000D03*
X141562000Y-62000000D03*
X141562000Y-62500000D03*
X141562000Y-63000000D03*
X141562000Y-63500000D03*
X141562000Y-64000000D03*
X141562000Y-64500000D03*
X141562000Y-65000000D03*
X141562000Y-65500000D03*
X141562000Y-66000000D03*
X141562000Y-66500000D03*
X141562000Y-67000000D03*
X141562000Y-67500000D03*
X141562000Y-68000000D03*
X147438000Y-68000000D03*
X147438000Y-67500000D03*
X147438000Y-67000000D03*
X147438000Y-66500000D03*
X147438000Y-66000000D03*
X147438000Y-65500000D03*
X147438000Y-65000000D03*
X147438000Y-64500000D03*
X147438000Y-64000000D03*
X147438000Y-63500000D03*
X147438000Y-63000000D03*
X147438000Y-62500000D03*
X147438000Y-62000000D03*
X147438000Y-61500000D03*
X147438000Y-61000000D03*
X147438000Y-60500000D03*
X147438000Y-60000000D03*
X147438000Y-59500000D03*
X147438000Y-59000000D03*
%TD*%
D23*
%TO.C,C5*%
X134000000Y-63500000D03*
X134000000Y-65225000D03*
%TD*%
D25*
%TO.C,IC1*%
X142800000Y-73025000D03*
X142800000Y-73675000D03*
X142800000Y-74325000D03*
X142800000Y-74975000D03*
X147200000Y-74975000D03*
X147200000Y-74325000D03*
X147200000Y-73675000D03*
X147200000Y-73025000D03*
D26*
X145000000Y-74000000D03*
%TD*%
D27*
%TO.C,J13*%
X122000000Y-73000000D03*
D28*
X122000000Y-70500000D03*
%TD*%
D22*
%TO.C,R3*%
X144000000Y-78500000D03*
X144000000Y-80325000D03*
%TD*%
D17*
%TO.C,R13*%
X128000000Y-60500000D03*
X128000000Y-58675000D03*
%TD*%
D29*
%TO.C,J6*%
X151600000Y-41980000D03*
D30*
X151600000Y-44520000D03*
X151600000Y-47060000D03*
X151600000Y-49600000D03*
X151600000Y-52140000D03*
X151600000Y-54680000D03*
%TD*%
D18*
%TO.C,TP8*%
X152000000Y-75800000D03*
%TD*%
D31*
%TO.C,SW2*%
X133500000Y-79500000D03*
D32*
X140000000Y-79500000D03*
X133500000Y-84000000D03*
X140000000Y-84000000D03*
%TD*%
D31*
%TO.C,SW1*%
X152000000Y-79500000D03*
D32*
X158500000Y-79500000D03*
X152000000Y-84000000D03*
X158500000Y-84000000D03*
%TD*%
D33*
%TO.C,IC2*%
X128000000Y-39000000D03*
X128000000Y-40500000D03*
X128000000Y-42000000D03*
X128000000Y-43500000D03*
X128000000Y-45000000D03*
X128000000Y-46500000D03*
X128000000Y-48000000D03*
X128000000Y-49500000D03*
X128000000Y-51000000D03*
X145500000Y-51000000D03*
X145500000Y-49500000D03*
X145500000Y-48000000D03*
X145500000Y-46500000D03*
X145500000Y-45000000D03*
X145500000Y-43500000D03*
X145500000Y-42000000D03*
X145500000Y-40500000D03*
X145500000Y-39000000D03*
D34*
X137710000Y-45200000D03*
X138810000Y-45200000D03*
X138810000Y-44100000D03*
X137710000Y-44100000D03*
X136610000Y-44100000D03*
X136610000Y-45200000D03*
X136610000Y-46300000D03*
X137710000Y-46300000D03*
X138810000Y-46300000D03*
%TD*%
D17*
%TO.C,R10*%
X159500000Y-64000000D03*
X159500000Y-62175000D03*
%TD*%
D23*
%TO.C,C6*%
X124500000Y-45500000D03*
X124500000Y-47225000D03*
%TD*%
D35*
%TO.C,J10*%
X164500000Y-70500000D03*
D28*
X164500000Y-73000000D03*
%TD*%
D36*
%TO.C,J1*%
X139405000Y-94570000D03*
X145185000Y-94570000D03*
D37*
X139095000Y-93505000D03*
X139895000Y-93505000D03*
D38*
X141045000Y-93505000D03*
X142045000Y-93505000D03*
X142545000Y-93505000D03*
X143545000Y-93505000D03*
D37*
X144695000Y-93505000D03*
X145495000Y-93505000D03*
X145495000Y-93505000D03*
X144695000Y-93505000D03*
D38*
X144045000Y-93505000D03*
X143045000Y-93505000D03*
X141545000Y-93505000D03*
X140545000Y-93505000D03*
D37*
X139895000Y-93505000D03*
X139095000Y-93505000D03*
D39*
X137975000Y-94070000D03*
D40*
X137975000Y-98250000D03*
D39*
X146615000Y-94070000D03*
D40*
X146615000Y-98250000D03*
%TD*%
D17*
%TO.C,R12*%
X128000000Y-64912500D03*
X128000000Y-63087500D03*
%TD*%
D16*
%TO.C,C15*%
X131000000Y-69225000D03*
X131000000Y-67500000D03*
%TD*%
D17*
%TO.C,R11*%
X159500000Y-60325000D03*
X159500000Y-58500000D03*
%TD*%
D23*
%TO.C,C23*%
X122000000Y-45500000D03*
X122000000Y-47225000D03*
%TD*%
D16*
%TO.C,C19*%
X131000000Y-64892500D03*
X131000000Y-63167500D03*
%TD*%
D20*
%TO.C,REF\u002A\u002A*%
X166000000Y-98000000D03*
D21*
X166000000Y-98000000D03*
%TD*%
D18*
%TO.C,TP4*%
X138000000Y-55000000D03*
%TD*%
D20*
%TO.C,REF\u002A\u002A*%
X120500000Y-41000000D03*
D21*
X120500000Y-41000000D03*
%TD*%
D17*
%TO.C,R18*%
X128500000Y-81325000D03*
X128500000Y-79500000D03*
%TD*%
D18*
%TO.C,TP7*%
X147500000Y-55000000D03*
%TD*%
D17*
%TO.C,R9*%
X159500000Y-67825000D03*
X159500000Y-66000000D03*
%TD*%
D22*
%TO.C,R19*%
X130000000Y-79500000D03*
X130000000Y-81325000D03*
%TD*%
D35*
%TO.C,J9*%
X164500000Y-80000000D03*
D28*
X164500000Y-82500000D03*
%TD*%
D35*
%TO.C,J15*%
X164525000Y-89375000D03*
D28*
X164525000Y-91875000D03*
%TD*%
D23*
%TO.C,C10*%
X137500000Y-68275000D03*
X137500000Y-70000000D03*
%TD*%
D29*
%TO.C,J2*%
X156795000Y-49595000D03*
D30*
X156795000Y-52135000D03*
X156795000Y-54675000D03*
%TD*%
D41*
%TO.C,C12*%
X150775000Y-66000000D03*
X152500000Y-66000000D03*
%TD*%
D22*
%TO.C,R4*%
X149200000Y-78487500D03*
X149200000Y-80312500D03*
%TD*%
D16*
%TO.C,C21*%
X156500000Y-71725000D03*
X156500000Y-70000000D03*
%TD*%
%TO.C,C22*%
X156500000Y-67775000D03*
X156500000Y-66050000D03*
%TD*%
D27*
%TO.C,J8*%
X122000000Y-82500000D03*
D28*
X122000000Y-80000000D03*
%TD*%
D23*
%TO.C,C8*%
X136500000Y-63875000D03*
X136500000Y-65600000D03*
%TD*%
D27*
%TO.C,J7*%
X122000000Y-92000000D03*
D28*
X122000000Y-89500000D03*
%TD*%
D35*
%TO.C,J11*%
X164500000Y-61000000D03*
D28*
X164500000Y-63500000D03*
%TD*%
D16*
%TO.C,C14*%
X131000000Y-60362500D03*
X131000000Y-58637500D03*
%TD*%
D20*
%TO.C,REF\u002A\u002A*%
X120500000Y-98000000D03*
D21*
X120500000Y-98000000D03*
%TD*%
D22*
%TO.C,R2*%
X145450000Y-83125000D03*
X145450000Y-84950000D03*
%TD*%
D23*
%TO.C,C7*%
X138800000Y-63875000D03*
X138800000Y-65600000D03*
%TD*%
D41*
%TO.C,C9*%
X150775000Y-63500000D03*
X152500000Y-63500000D03*
%TD*%
D35*
%TO.C,J12*%
X164500000Y-51500000D03*
D28*
X164500000Y-54000000D03*
%TD*%
D23*
%TO.C,C2*%
X150000000Y-73137500D03*
X150000000Y-74862500D03*
%TD*%
D17*
%TO.C,R14*%
X128000000Y-69325000D03*
X128000000Y-67500000D03*
%TD*%
D16*
%TO.C,C17*%
X156500000Y-64000000D03*
X156500000Y-62275000D03*
%TD*%
D23*
%TO.C,C3*%
X137500000Y-73275000D03*
X137500000Y-75000000D03*
%TD*%
%TO.C,C13*%
X140000000Y-73275000D03*
X140000000Y-75000000D03*
%TD*%
D27*
%TO.C,J14*%
X122000000Y-63500000D03*
D28*
X122000000Y-61000000D03*
%TD*%
D18*
%TO.C,TP6*%
X144500000Y-54925000D03*
%TD*%
D29*
%TO.C,J16*%
X121000000Y-54040000D03*
D30*
X121000000Y-51500000D03*
%TD*%
D42*
%TO.C,R7*%
X136500000Y-58000000D03*
X134675000Y-58000000D03*
%TD*%
D18*
%TO.C,TP5*%
X141000000Y-54925000D03*
%TD*%
D23*
%TO.C,C20*%
X135000000Y-68275000D03*
X135000000Y-70000000D03*
%TD*%
D17*
%TO.C,R20*%
X148450000Y-84975000D03*
X148450000Y-83150000D03*
%TD*%
%LPD*%
M02*
