M48
; DRILL file KiCad 10.0.1 date 2026-05-09T02:55:21
; FORMAT={-:-/ absolute / inch / decimal}
; #@! TF.CreationDate,2026-05-09T02:55:21+08:00
; #@! TF.GenerationSoftware,Kicad,Pcbnew,10.0.1
; #@! TF.FileFunction,Plated,1,2,PTH
FMAT,2
INCH
; #@! TA.AperFunction,Plated,PTH,ViaDrill
T1C0.0118
; #@! TA.AperFunction,Plated,PTH,ComponentDrill
T2C0.0236
; #@! TA.AperFunction,Plated,PTH,ComponentDrill
T3C0.0394
; #@! TA.AperFunction,Plated,PTH,ComponentDrill
T4C0.0866
%
G90
G05
T1
X4.8819Y-1.9291
X4.9055Y-2.1024
X4.9213Y-1.9843
X4.9449Y-3.0118
X5.0236Y-3.0118
X5.0866Y-2.5906
X5.0945Y-2.9291
X5.0984Y-2.4016
X5.0984Y-2.7559
X5.1654Y-2.0276
X5.2362Y-2.7726
X5.2402Y-2.7008
X5.2411Y-2.4498
X5.2441Y-2.622
X5.2559Y-2.3228
X5.2677Y-1.7402
X5.2677Y-1.9528
X5.315Y-1.7874
X5.315Y-1.9882
X5.3701Y-3.0118
X5.4488Y-2.0276
X5.4528Y-3.622
X5.4553Y-2.4193
X5.4774Y-2.688
X5.4797Y-2.3898
X5.4921Y-2.7559
X5.5039Y-2.3661
X5.5118Y-2.4724
X5.5512Y-1.811
X5.5906Y-3.7795
X5.6457Y-2.5
X5.6496Y-2.7165
X5.6496Y-3.7402
X5.6693Y-2.2205
X5.6693Y-2.2992
X5.6693Y-2.4409
X5.6762Y-2.3947
X5.689Y-2.6181
X5.7283Y-2.3819
X5.748Y-3.622
X5.7874Y-3.2874
X5.8071Y-2.7913
X5.811Y-3.1811
X5.8189Y-1.5748
X5.8465Y-3.0118
X5.8661Y-2.5591
X5.8858Y-1.6142
X5.9252Y-2.815
X5.9528Y-2.6732
X5.9606Y-2.7795
X5.9685Y-2.4409
X6.0197Y-2.6496
X6.063Y-1.6772
X6.1339Y-1.5354
X6.173Y-1.6535
X6.2205Y-2.3819
X6.2205Y-2.5394
X6.2205Y-2.6969
X6.2205Y-2.8543
T3
X4.7638Y-2.0276
X4.7638Y-2.1276
X4.8031Y-2.4016
X4.8031Y-2.5
X4.8031Y-2.7756
X4.8031Y-2.874
X4.8031Y-3.1496
X4.8031Y-3.248
X4.8031Y-3.5236
X4.8031Y-3.622
X5.2559Y-3.1299
X5.2559Y-3.3071
X5.5118Y-3.1299
X5.5118Y-3.3071
X5.9685Y-1.6528
X5.9685Y-1.7528
X5.9685Y-1.8528
X5.9685Y-1.9528
X5.9685Y-2.0528
X5.9685Y-2.1528
X5.9843Y-3.1299
X5.9843Y-3.3071
X6.173Y-1.9526
X6.173Y-2.0526
X6.173Y-2.1526
X6.2402Y-3.1299
X6.2402Y-3.3071
X6.4764Y-2.0276
X6.4764Y-2.126
X6.4764Y-2.4016
X6.4764Y-2.5
X6.4764Y-2.7756
X6.4764Y-2.874
X6.4764Y-3.1496
X6.4764Y-3.248
X6.4774Y-3.5187
X6.4774Y-3.6171
T4
X4.7441Y-1.6142
X4.7441Y-3.8583
X6.5354Y-1.6142
X6.5354Y-3.8583
T2
G00X5.4321Y-3.6819
M15
G01X5.4321Y-3.7252
M16
G05
G00X5.4321Y-3.8563
M15
G01X5.4321Y-3.8799
M16
G05
G00X5.7722Y-3.6819
M15
G01X5.7722Y-3.7252
M16
G05
G00X5.7722Y-3.8563
M15
G01X5.7722Y-3.8799
M16
G05
M30
