M48
; DRILL file KiCad 10.0.1 date 2026-05-09T02:56:53
; FORMAT={-:-/ absolute / metric / decimal}
; #@! TF.CreationDate,2026-05-09T02:56:53+08:00
; #@! TF.GenerationSoftware,Kicad,Pcbnew,10.0.1
; #@! TF.FileFunction,Plated,1,2,PTH
FMAT,2
METRIC
; #@! TA.AperFunction,Plated,PTH,ViaDrill
T1C0.300
; #@! TA.AperFunction,Plated,PTH,ComponentDrill
T2C0.600
; #@! TA.AperFunction,Plated,PTH,ComponentDrill
T3C1.000
; #@! TA.AperFunction,Plated,PTH,ComponentDrill
T4C2.200
%
G90
G05
T1
X124.0Y-49.0
X124.6Y-53.4
X125.0Y-50.4
X125.6Y-76.5
X127.6Y-76.5
X129.2Y-65.8
X129.4Y-74.4
X129.5Y-61.0
X129.5Y-70.0
X131.2Y-51.5
X133.0Y-70.424
X133.1Y-68.6
X133.124Y-62.224
X133.2Y-66.6
X133.5Y-59.0
X133.8Y-44.2
X133.8Y-49.6
X135.0Y-45.4
X135.0Y-50.5
X136.4Y-76.5
X138.4Y-51.5
X138.5Y-92.0
X138.565Y-61.45
X139.125Y-68.275
X139.185Y-60.7
X139.5Y-70.0
X139.8Y-60.1
X140.0Y-62.8
X141.0Y-46.0
X142.0Y-96.0
X143.4Y-63.5
X143.5Y-69.0
X143.5Y-95.0
X144.0Y-56.4
X144.0Y-58.4
X144.0Y-62.0
X144.174Y-60.826
X144.5Y-66.5
X145.5Y-60.5
X146.0Y-92.0
X147.0Y-83.5
X147.5Y-70.9
X147.6Y-80.8
X147.8Y-40.0
X148.5Y-76.5
X149.0Y-65.0
X149.5Y-41.0
X150.5Y-71.5
X151.2Y-67.9
X151.4Y-70.6
X151.6Y-62.0
X152.9Y-67.3
X154.0Y-42.6
X155.8Y-39.0
X156.795Y-42.0
X158.0Y-60.5
X158.0Y-64.5
X158.0Y-68.5
X158.0Y-72.5
T3
X121.0Y-51.5
X121.0Y-54.04
X122.0Y-61.0
X122.0Y-63.5
X122.0Y-70.5
X122.0Y-73.0
X122.0Y-80.0
X122.0Y-82.5
X122.0Y-89.5
X122.0Y-92.0
X133.5Y-79.5
X133.5Y-84.0
X140.0Y-79.5
X140.0Y-84.0
X151.6Y-41.98
X151.6Y-44.52
X151.6Y-47.06
X151.6Y-49.6
X151.6Y-52.14
X151.6Y-54.68
X152.0Y-79.5
X152.0Y-84.0
X156.795Y-49.595
X156.795Y-52.135
X156.795Y-54.675
X158.5Y-79.5
X158.5Y-84.0
X164.5Y-51.5
X164.5Y-54.0
X164.5Y-61.0
X164.5Y-63.5
X164.5Y-70.5
X164.5Y-73.0
X164.5Y-80.0
X164.5Y-82.5
X164.525Y-89.375
X164.525Y-91.875
T4
X120.5Y-41.0
X120.5Y-98.0
X166.0Y-41.0
X166.0Y-98.0
T2
G00X137.975Y-93.52
M15
G01X137.975Y-94.62
M16
G05
G00X137.975Y-97.95
M15
G01X137.975Y-98.55
M16
G05
G00X146.615Y-93.52
M15
G01X146.615Y-94.62
M16
G05
G00X146.615Y-97.95
M15
G01X146.615Y-98.55
M16
G05
M30
